<svg width="9" height="32" viewBox="0 0 9 32" fill="none" xmlns="http://www.w3.org/2000/svg">
<g clip-path="url(#clip0_1_167)">
<path d="M1 27V29H2.33333L4 30.6667V25.3333L2.33333 27H1ZM3.33333 26.9433V29.0567L2.61 28.3333H1.66667V27.6667H2.61L3.33333 26.9433ZM5.5 28C5.5 27.41 5.16 26.9033 4.66667 26.6567V29.34C5.16 29.0967 5.5 28.59 5.5 28ZM4.66667 25.0767V25.7633C5.63 26.05 6.33333 26.9433 6.33333 28C6.33333 29.0567 5.63 29.95 4.66667 30.2367V30.9233C6.00333 30.62 7 29.4267 7 28C7 26.5733 6.00333 25.38 4.66667 25.0767Z" fill="#323232"/>
</g>
<g clip-path="url(#clip1_1_167)">
<path fill-rule="evenodd" clip-rule="evenodd" d="M8.3842 18.7596C8.58947 18.8517 8.75773 19.0159 8.84395 19.2318L8.86837 19.295C8.95155 19.5023 8.94048 19.7319 8.83785 19.9415C8.72644 20.1692 8.51545 20.3457 8.25944 20.4252C7.03586 20.8068 5.77108 21 4.50019 21C3.2293 21 1.96452 20.8064 0.740557 20.4252C0.484548 20.3457 0.273941 20.1692 0.162152 19.9415C0.0595193 19.7319 0.0488363 19.5012 0.132392 19.2924L0.154903 19.2348C0.24876 18.9996 0.439145 18.8257 0.668447 18.7384C0.426173 18.3757 0.305227 17.9262 0.305227 17.387L0 1.43158C0 1.238 0.0915681 1.04034 0.251431 0.88689C0.434185 0.624947 0.870278 0.421709 1.58337 0.265658C2.36589 0.0943737 3.40214 0 4.50019 0C5.59824 0 6.63411 0.0943737 7.41664 0.265658C7.95879 0.384183 8.33575 0.527972 8.56849 0.705202C8.83098 0.831157 9 1.11502 9 1.43047L8.80923 17.3885C8.80923 17.9094 8.66311 18.3765 8.3842 18.7596ZM4.5578 8.58763C5.91644 8.58763 7.22396 8.4301 8.27127 8.14289L8.32926 3.30271C7.32659 3.67128 5.86112 3.88604 4.43915 3.88604C3.01717 3.88604 1.68027 3.69358 0.685616 3.35175L0.776803 8.12394C1.83556 8.42341 3.19916 8.58763 4.5578 8.58763ZM8.26402 8.76077C7.19458 9.03349 5.89775 9.18211 4.5578 9.18211H4.55857C3.1881 9.18211 1.87066 9.02792 0.789393 8.7448L0.954597 17.3833C0.954597 17.8712 1.0786 18.2528 1.34033 18.5415V9.92558C1.34033 9.76136 1.47692 9.62834 1.64556 9.62834C1.81419 9.62834 1.95078 9.76136 1.95078 9.92558V18.9587C2.19077 19.0613 2.47615 19.1374 2.80961 19.1894V10.1485C2.80961 9.98429 2.9462 9.85127 3.11484 9.85127C3.28348 9.85127 3.42007 9.98429 3.42007 10.1485V19.2734C3.74018 19.3117 4.01831 19.3347 4.2789 19.344V10.2603C4.2789 10.0961 4.41549 9.96311 4.58413 9.96311C4.75277 9.96311 4.88936 10.0961 4.88936 10.2603V19.3414C5.16139 19.3291 5.43686 19.3028 5.74819 19.2645V10.1489C5.74819 9.98466 5.88478 9.85164 6.05341 9.85164C6.22205 9.85164 6.35864 9.98466 6.35864 10.1489V19.182C6.68791 19.1292 6.97482 19.0408 7.21747 18.9186V9.92558C7.21747 9.76136 7.35406 9.62834 7.5227 9.62834C7.69134 9.62834 7.82793 9.76136 7.82793 9.92558V18.4304C8.04693 18.1476 8.16101 17.7965 8.16101 17.3848L8.26402 8.76077ZM6.36856 19.8192C5.61825 19.9232 5.10631 19.9797 4.55208 19.9797C4.03853 19.9797 3.49752 19.9314 2.74285 19.8185C2.30637 19.7531 1.93056 19.6487 1.61274 19.5045C1.43571 19.4584 1.26135 19.409 1.09195 19.3563C1.06639 19.3485 1.03968 19.3444 1.01259 19.3444C0.914155 19.3444 0.827165 19.3964 0.796261 19.474L0.77375 19.532C0.758489 19.5699 0.761541 19.6115 0.782144 19.6535C0.812285 19.7152 0.873331 19.7642 0.949638 19.788C3.27203 20.5118 5.72759 20.5118 8.04998 19.788L8.05265 19.7873C8.12781 19.7635 8.1881 19.7148 8.21786 19.6535C8.23808 19.6123 8.24151 19.5703 8.22739 19.535L8.20259 19.4711C8.16292 19.3719 8.02785 19.3191 7.90767 19.3563C7.79016 19.393 7.67074 19.428 7.55093 19.461C7.2148 19.6364 6.81992 19.7568 6.36856 19.8192ZM0.899657 1.15663C0.898894 1.17001 0.898131 1.18376 0.898131 1.19713H0.898512L0.897367 1.23392C1.02404 1.30823 1.29187 1.42378 1.83823 1.53413C2.562 1.68015 3.50744 1.76077 4.50019 1.76077C5.49294 1.76077 6.43838 1.68015 7.16215 1.53413C7.81343 1.4026 8.06829 1.2655 8.16177 1.19602C8.06829 1.12654 7.81343 0.989437 7.16215 0.857909C6.43838 0.71189 5.49294 0.631263 4.50019 0.631263C3.50744 0.631263 2.562 0.71189 1.83823 0.857909C1.30637 0.965287 1.03625 1.07638 0.899657 1.15663ZM4.50019 2.39241C3.40214 2.39241 2.36627 2.29804 1.58337 2.12675H1.58375C1.18924 2.04055 0.884395 1.94172 0.65662 1.8258L0.673407 2.71231C1.61465 3.08126 2.91187 3.29156 4.43915 3.29156C5.96642 3.29156 7.40443 3.05637 8.33689 2.65844L8.34681 1.82431C8.11904 1.9406 7.81305 2.04018 7.41702 2.12675C6.63411 2.29804 5.59824 2.39241 4.50019 2.39241ZM6.76192 1.2478C6.76192 1.43986 5.91979 1.59557 4.88096 1.59557C3.84213 1.59557 3 1.43986 3 1.2478C3 1.05573 3.84213 0.900024 4.88096 0.900024C5.91979 0.900024 6.76192 1.05573 6.76192 1.2478Z" fill="#1D1D1B"/>
</g>
<defs>
<clipPath id="clip0_1_167">
<rect width="8" height="8" fill="white" transform="translate(0 24)"/>
</clipPath>
<clipPath id="clip1_1_167">
<rect width="9" height="21" fill="white"/>
</clipPath>
</defs>
</svg>
