<svg width="10" height="28" viewBox="0 0 10 28" fill="none" xmlns="http://www.w3.org/2000/svg">
<g clip-path="url(#clip0_1_164)">
<path d="M5.66671 22.9433V25.0566L4.94337 24.3333H4.00004V23.6666H4.94337L5.66671 22.9433ZM6.33337 21.3333L4.66671 23H3.33337V25H4.66671L6.33337 26.6666V21.3333Z" fill="#323232"/>
</g>
<g clip-path="url(#clip1_1_164)">
<path fill-rule="evenodd" clip-rule="evenodd" d="M9.57644 0.747951C9.7555 0.869209 9.86832 1.00817 9.91208 1.161C9.97029 1.29073 10 1.42777 10 1.56943V12.9588C10 14.0344 9.56038 15.0479 8.76225 15.8132C7.96411 16.5785 6.90662 17 5.78529 17H4.21471C3.09298 17 2.03589 16.5785 1.23775 15.8132C0.439618 15.0479 0 14.034 0 12.9588V1.56943C0 1.42777 0.0297093 1.29034 0.0879236 1.161C0.132086 1.0074 0.246106 0.867669 0.426771 0.745641C0.492613 0.697523 0.563674 0.657103 0.638349 0.624768C0.891681 0.500815 1.24016 0.390336 1.67456 0.297179C2.56665 0.105475 3.74739 0 5 0C6.25261 0 7.43335 0.105475 8.32544 0.297179C8.75582 0.389566 9.1023 0.49889 9.35523 0.621688C9.43352 0.655179 9.50779 0.697523 9.57644 0.747951ZM8.78192 8.97695V14.7739V14.7742C9.14044 14.2349 9.33355 13.6105 9.33355 12.9592V7.07262C8.10021 7.49144 6.66814 7.71971 5.06624 7.71971C3.46435 7.71971 1.92468 7.47527 0.666453 7.02643V12.9588C0.666453 13.6102 0.859563 14.2345 1.21808 14.7739V8.97695C1.21808 8.79641 1.37105 8.64974 1.55934 8.64974C1.74763 8.64974 1.90059 8.79641 1.90059 8.97695V15.5307C2.21214 15.7897 2.56263 15.9918 2.93841 16.1316V9.36959C2.93841 9.18905 3.09138 9.04239 3.27967 9.04239C3.46796 9.04239 3.62093 9.18905 3.62093 9.36959V16.3117C3.81524 16.3433 4.01357 16.3602 4.21471 16.3602H4.65874V9.50741C4.65874 9.32687 4.81171 9.1802 5 9.1802C5.18829 9.1802 5.34126 9.32687 5.34126 9.50741V16.3602H5.78529C5.98603 16.3602 6.18436 16.3433 6.37908 16.3117V9.36959C6.37908 9.18905 6.53204 9.04239 6.72033 9.04239C6.90862 9.04239 7.06159 9.18905 7.06159 9.36959V16.1316C7.43737 15.9918 7.78786 15.7897 8.09941 15.5307V8.97695C8.09941 8.79641 8.25237 8.64974 8.44066 8.64974C8.62895 8.64974 8.78192 8.79641 8.78192 8.97695ZM0.666051 6.32351C1.88775 6.80239 3.43865 7.06492 5.06584 7.06492C6.6292 7.06492 8.13273 6.82048 9.33315 6.37433V3.57654C8.18653 3.96341 6.54047 4.18783 4.92934 4.18783C3.31821 4.18783 1.80263 3.98458 0.666051 3.62312V6.32351ZM8.1793 0.920792C7.33379 0.739097 6.20443 0.639011 4.9996 0.639011V0.639781C3.79476 0.639781 2.66541 0.739867 1.8199 0.921562C1.25622 1.04282 0.976393 1.16562 0.840292 1.248C0.812189 1.26724 0.786896 1.28996 0.764413 1.31498C0.848322 1.38465 1.10527 1.54171 1.8199 1.6953C2.66541 1.877 3.79476 1.97708 4.9996 1.97708C6.20443 1.97708 7.33379 1.877 8.1793 1.6953C8.89433 1.54171 9.15128 1.38427 9.23519 1.31459C9.21391 1.29034 9.18942 1.26878 9.16292 1.24992C9.13963 1.23568 9.11354 1.22105 9.08503 1.20642C9.06656 1.19872 9.0485 1.19218 9.03083 1.18756L8.88751 1.14906L8.88991 1.12096C8.70162 1.04898 8.46355 0.981998 8.1793 0.920792ZM9.33315 2.00442C9.08142 2.12375 8.74819 2.2273 8.32504 2.31815C7.43295 2.50985 6.25221 2.61533 4.9996 2.61533C3.74699 2.61533 2.56624 2.50985 1.67416 2.31815C1.251 2.2273 0.917777 2.12375 0.666051 2.00442V2.93021C1.74763 3.31477 3.21664 3.53342 4.92934 3.53342C6.64204 3.53342 8.25719 3.29091 9.33315 2.87824V2.00442ZM7.06517 1.35377C7.06517 1.54915 6.17021 1.70753 5.06622 1.70753C3.96222 1.70753 3.06726 1.54915 3.06726 1.35377C3.06726 1.15839 3.96222 1 5.06622 1C6.17021 1 7.06517 1.15839 7.06517 1.35377Z" fill="#1D1D1B"/>
</g>
<defs>
<clipPath id="clip0_1_164">
<rect width="8" height="8" fill="white" transform="translate(1 20)"/>
</clipPath>
<clipPath id="clip1_1_164">
<rect width="10" height="17" fill="white"/>
</clipPath>
</defs>
</svg>
