<svg width="14" height="19" viewBox="0 0 14 19" fill="none" xmlns="http://www.w3.org/2000/svg">
<path d="M14 1.0412V17.8714C13.9963 17.8874 13.9914 17.9033 13.9888 17.9193C13.9783 17.9778 13.9715 18.0371 13.958 18.0945C13.9096 18.2978 13.817 18.4798 13.6738 18.6291C13.4309 18.8822 13.1291 19 12.7819 19C9.03053 19 5.27952 19 1.52815 18.9996C1.38005 18.9996 1.23159 18.9977 1.08387 18.989C1.00327 18.984 0.921536 18.9711 0.844304 18.9472C0.519629 18.8469 0.279685 18.6401 0.124471 18.3342C0.0266188 18.1412 0 17.9326 0 17.719C0 12.263 0 6.80732 0 1.35128C0 1.27224 0.00337422 1.19282 0.00787317 1.11378C0.0191206 0.92074 0.0693589 0.73986 0.174709 0.57684C0.376038 0.26524 0.647475 0.06308 1.02276 0.02584C1.03176 0.02508 1.04001 0.02052 1.05351 0.01672C1.04076 0.00950002 1.03251 0.00456 1.02464 0C4.99759 0 8.97092 0 12.9439 0C13.062 0.06726 13.2239 0.06916 13.3514 0.13338C13.4586 0.18734 13.5572 0.25878 13.642 0.34466C13.7372 0.4408 13.8178 0.55518 13.8782 0.67716C13.9438 0.80978 13.9441 0.93746 13.9798 1.07578C13.9888 1.0602 13.9944 1.05108 14 1.04158V1.0412ZM7.00075 16.1872C9.05415 16.1872 11.1075 16.1872 13.1606 16.1872C13.2247 16.1872 13.2194 16.1937 13.2194 16.1299C13.2194 12.4636 13.2194 8.79776 13.2194 5.13152C13.2194 5.07566 13.2194 5.07566 13.1636 5.07566C11.9219 5.07566 10.6801 5.07566 9.43843 5.07566C9.38295 5.07566 9.38332 5.07566 9.38257 5.13152C9.37995 5.3428 9.38182 5.55446 9.37357 5.76574C9.3627 6.04314 9.25173 6.28026 9.06727 6.48166C8.82545 6.74538 8.51915 6.85976 8.16973 6.86052C7.38766 6.86204 6.60522 6.86204 5.82315 6.86014C5.72904 6.86014 5.63307 6.85444 5.54159 6.83506C5.20079 6.76286 4.9391 6.57134 4.75202 6.27456C4.63092 6.08266 4.58106 5.8691 4.57694 5.64414C4.57356 5.47238 4.57619 5.30024 4.57619 5.12848C4.57619 5.07642 4.57619 5.07642 4.5267 5.07604C4.51695 5.07604 4.5072 5.07604 4.49746 5.07604C3.28161 5.07604 2.06615 5.07604 0.850303 5.07604C0.767072 5.07604 0.778694 5.06426 0.778694 5.15014C0.778694 8.8046 0.778694 12.4591 0.778694 16.1135C0.778694 16.199 0.767072 16.1872 0.850677 16.1872C2.9007 16.1872 4.95073 16.1872 7.00075 16.1872ZM6.99813 4.2864C9.04965 4.2864 11.1015 4.2864 13.1531 4.2864C13.2292 4.2864 13.2198 4.29628 13.2198 4.21724C13.2198 3.2072 13.2198 2.19754 13.2198 1.1875C13.2198 1.15976 13.2198 1.13088 13.2138 1.1039C13.1718 0.90858 13.0275 0.79154 12.8295 0.79154C12.0621 0.79154 11.2946 0.79154 10.5268 0.79154C7.41278 0.79154 4.29838 0.79268 1.18435 0.78888C0.974774 0.78888 0.772696 0.95836 0.77457 1.20004C0.782818 2.20324 0.777944 3.20644 0.778319 4.20964C0.778319 4.29818 0.766322 4.28602 0.852552 4.28602C2.90108 4.28602 4.94923 4.28602 6.99775 4.28602L6.99813 4.2864ZM7.00262 16.9769H6.71432C4.75577 16.9769 2.79723 16.9769 0.83868 16.9769C0.771946 16.9769 0.778694 16.9704 0.778319 17.0381C0.778319 17.2877 0.778319 17.537 0.778319 17.7867C0.778319 17.8114 0.779444 17.8364 0.784318 17.8604C0.827808 18.0724 1.01714 18.1739 1.16635 18.1727C1.63087 18.1689 2.09501 18.1712 2.55953 18.1712C5.98136 18.1712 9.40282 18.1712 12.8246 18.1712C12.8539 18.1712 12.8835 18.1712 12.912 18.1651C13.0965 18.1268 13.2183 17.9755 13.2191 17.784C13.2202 17.5393 13.2198 17.2949 13.2191 17.0502C13.2191 16.9655 13.2307 16.9773 13.1463 16.9773C11.0982 16.9773 9.05002 16.9773 7.00187 16.9773L7.00262 16.9769ZM6.979 5.07604C6.456 5.07604 5.93262 5.07604 5.40962 5.07604C5.35488 5.07604 5.35451 5.07604 5.35451 5.13266C5.35451 5.3143 5.35451 5.49632 5.35451 5.67796C5.35451 5.69772 5.35563 5.71786 5.35976 5.73686C5.40062 5.92914 5.57346 6.07126 5.76729 6.07164C6.59022 6.07164 7.41315 6.07164 8.23609 6.07164C8.25858 6.07164 8.28183 6.07012 8.30395 6.0648C8.48203 6.02376 8.60275 5.8729 8.60425 5.6867C8.60575 5.50164 8.60425 5.31658 8.60425 5.13152C8.60425 5.07642 8.60425 5.07642 8.54764 5.07642C8.02464 5.07642 7.50126 5.07642 6.97825 5.07642L6.979 5.07604ZM2.68325 3.48916C3.18151 3.5055 3.08628 2.84468 3.08628 2.52282C3.08628 2.20172 3.17214 1.56902 2.68175 1.59068C2.20561 1.61158 2.30759 2.21122 2.30759 2.5346C2.30759 2.85266 2.20749 3.47358 2.68325 3.48916ZM4.24439 3.48916C4.7374 3.51044 4.6508 2.8671 4.6508 2.54866C4.6508 2.22604 4.74902 1.61462 4.27851 1.58992C3.77762 1.5637 3.8721 2.21046 3.8721 2.5308C3.8721 2.84886 3.77087 3.46826 4.24439 3.48878V3.48916ZM5.8149 3.48916C6.31166 3.5017 6.21531 2.84126 6.21531 2.51978C6.21531 2.2002 6.30454 1.61006 5.83964 1.58992C5.34101 1.56864 5.43661 2.21198 5.43661 2.53232C5.43661 2.85038 5.33539 3.477 5.8149 3.48916Z" fill="black"/>
</svg>
