<?xml version="1.0" encoding="utf-8"?>
<!-- Generator: Adobe Illustrator 28.3.0, SVG Export Plug-In . SVG Version: 6.00 Build 0)  -->
<svg version="1.2" baseProfile="tiny" id="Capa_1" xmlns="http://www.w3.org/2000/svg" xmlns:xlink="http://www.w3.org/1999/xlink"
	 x="0px" y="0px" viewBox="0 0 56 58" overflow="visible" xml:space="preserve">
<path fill="#FFFFFF" d="M26,6.5L26,6.5c13.4,0,24.2,10.9,24.2,24.2v0C50.2,44.1,39.4,55,26,55l0,0C12.6,55,1.8,44.1,1.8,30.7v0
	C1.8,17.3,12.6,6.5,26,6.5z"/>
<path fill="#A4ABB3" d="M32.1,42l-2.9-15.6h3.6v-1.6L28.4,21l-0.7-2.8h-3.5L23.6,21l-4.5,3.7v1.6h3.6L19.9,42h-2v1.2h16.2V42H32.1z
	 M22.6,33.8l0.3-1.5l3.1-2l3.1,2l0.4,2l-3.2,1.9L22.6,33.8z M25.1,36.9l-3.4,2l0.7-3.8L25.1,36.9z M23.2,30.6l0.3-1.8l1.3,0.8
	L23.2,30.6z M27.2,29.6l1.3-0.8l0.3,1.8L27.2,29.6z M29.7,35.6l0.6,3.3L27.4,37L29.7,35.6z M26.8,19.5l0.3,1.2h-2.2l0.3-1.2H26.8z
	 M24.3,22h3.3l3.8,3.1H20.6L24.3,22z M28,26.4l0.2,1.1L26,28.9l-2.2-1.4l0.2-1.1H28z M21.4,40.6l4.9-2.9l4.4,2.9l0.2,1.4h-9.7
	L21.4,40.6z"/>
<path fill="none" stroke="#A4ABB3" stroke-width="1.5" d="M26,6.5L26,6.5c13.4,0,24.2,10.9,24.2,24.2v0C50.2,44.1,39.4,55,26,55l0,0
	C12.6,55,1.8,44.1,1.8,30.7v0C1.8,17.3,12.6,6.5,26,6.5z"/>
<circle fill="#FFFFFF" cx="44" cy="12.7" r="10"/>
<path fill="#A4ABB3" d="M44,23.2c-5.8,0-10.5-4.7-10.5-10.5c0-5.8,4.7-10.5,10.5-10.5s10.5,4.7,10.5,10.5
	C54.5,18.5,49.8,23.2,44,23.2z M44,3.3c-5.2,0-9.5,4.2-9.5,9.5c0,5.2,4.2,9.4,9.5,9.4s9.5-4.2,9.5-9.4C53.5,7.5,49.2,3.3,44,3.3z
	 M43.1,8.4c0-0.5,0.4-0.9,0.9-0.9c0.5,0,0.9,0.4,0.9,0.9S44.5,9.3,44,9.3C43.5,9.3,43.1,8.9,43.1,8.4z M43.3,10.7h1.4V18h-1.4V10.7z
	"/>
<path fill="#A4ABB3" d="M9,49.7c0-0.3-0.2-0.5-0.5-0.5H4c-0.3,0-0.5,0.2-0.5,0.5c0,0.3,0.2,0.5,0.5,0.5h4v4c0,0.3,0.2,0.5,0.5,0.5
	S9,54.5,9,54.2V49.7z M1.4,57.6l7.5-7.5l-0.7-0.7l-7.5,7.5L1.4,57.6z"/>
</svg>
