<svg width="20" height="20" viewBox="0 0 20 20" fill="none" xmlns="http://www.w3.org/2000/svg">
<path fill-rule="evenodd" clip-rule="evenodd" d="M15.4042 3.45516C15.3941 3.57326 15.385 3.67941 15.385 3.76124L15.3835 3.76162C15.3837 4.25074 15.3837 4.74003 15.3836 5.22938C15.3835 5.47407 15.3835 5.71878 15.3835 5.96349C15.3835 6.00512 15.3866 6.05543 15.3901 6.11036C15.4027 6.31184 15.4192 6.57538 15.2984 6.69989C15.1577 6.84509 14.851 6.83053 14.6074 6.81897C14.523 6.81496 14.4462 6.81132 14.3864 6.81479C13.6934 6.85488 13.0037 6.94857 12.3229 7.08544C10.8643 7.37885 9.41187 7.85731 8.01845 8.37858C8.01845 8.48361 8.02426 8.59672 8.03027 8.71373C8.05113 9.11989 8.07441 9.57306 7.8655 9.89841C7.60406 10.3056 7.17779 10.336 6.73772 10.336C6.73772 10.6393 6.73662 10.9425 6.73553 11.2457C6.73358 11.7832 6.73164 12.3207 6.7358 12.8583C6.73607 12.8931 6.73644 12.9279 6.73681 12.9626C6.74352 13.5868 6.74979 14.1711 6.09717 14.4772C6.09717 14.5298 6.09765 14.5818 6.09812 14.633C6.1033 15.1944 6.10764 15.665 5.47041 15.8328V16.5746C5.47041 17.5331 5.83918 18.566 6.87419 18.5918C6.88569 18.5922 6.89757 18.5922 6.90907 18.5922C7.73133 18.5922 8.60419 17.8762 8.66399 16.6552C8.67602 16.4101 8.6685 16.2211 8.66062 16.0226L8.66015 16.0109L8.66011 16.0098C8.65054 15.775 8.64063 15.5319 8.66092 15.1905C8.69772 14.5643 8.97219 14.0462 9.45442 13.6914C9.86881 13.3865 10.4105 13.2276 10.9805 13.245C12.0937 13.2781 13.2203 14.0149 13.2203 15.3586V18.3601C13.2203 18.5494 13.0678 18.7028 12.8795 18.7028C12.6913 18.7028 12.5387 18.5494 12.5387 18.3601V15.3586C12.5387 14.4097 11.7207 13.9532 10.9606 13.9305C10.1946 13.907 9.39692 14.3006 9.34211 15.2306C9.32416 15.5375 9.33284 15.7529 9.342 15.9802L9.34211 15.9828L9.3422 15.985C9.3506 16.1933 9.35931 16.409 9.34556 16.6887C9.26544 18.3211 8.05295 19.2777 6.90869 19.2777C6.89182 19.2777 6.87496 19.2773 6.85809 19.2769C5.90358 19.2534 4.78922 18.5313 4.78922 16.5742V15.8532C4.16504 15.5444 4.16541 15.2581 4.16624 14.6002C4.16627 14.5756 4.1663 14.5506 4.1663 14.525C3.38643 14.1697 3.25298 13.3133 3.12664 12.5027C3.09575 12.3044 3.06527 12.1089 3.02588 11.9241C2.94859 11.5612 2.87486 11.1968 2.80108 10.8322C2.641 10.0411 2.48067 9.24879 2.28335 8.46841C0.593225 7.48603 -0.317964 5.5043 0.101406 3.5781C0.482825 1.8277 1.87817 0.42546 3.63653 0.0965866C5.51936 -0.255666 7.42391 0.420756 9.26603 1.075C10.0249 1.34451 10.7731 1.61026 11.5049 1.79879C12.1182 1.95686 12.7396 2.07754 13.3694 2.14578C13.7072 2.18241 14.046 2.20554 14.3849 2.22868C14.4481 2.23306 14.5255 2.23119 14.6085 2.22919C14.8251 2.22397 15.0801 2.21782 15.2217 2.31928C15.4851 2.50781 15.4387 3.05133 15.4042 3.45516ZM4.82679 15.1419H5.43438V14.5343H4.82679V15.1419ZM6.08797 13.398V9.09454V9.09416V8.89174C5.06561 9.06987 4.06434 9.1624 3.06345 8.8154C3.06205 8.83265 3.06091 8.84414 3.06012 8.85211C3.05895 8.86392 3.05854 8.86801 3.05923 8.87169C3.13418 9.22386 3.2091 9.57605 3.28402 9.92825C3.53553 11.1107 3.78706 12.2931 4.04018 13.4752C4.11264 13.8137 4.18509 13.868 4.52817 13.868C4.65031 13.868 4.7725 13.8681 4.8947 13.8682C5.13914 13.8684 5.38364 13.8685 5.62796 13.868C5.98485 13.8676 6.08797 13.7624 6.08797 13.398ZM6.85396 9.68036C6.92656 9.68215 6.99358 9.68379 7.05972 9.67672C7.4417 9.63651 7.40329 9.14124 7.37595 8.78876C7.36974 8.70862 7.36409 8.63587 7.36409 8.57752C7.31535 8.59093 7.26779 8.60402 7.22109 8.61687C7.057 8.66202 6.90359 8.70424 6.74692 8.74716V9.67865C6.78417 9.67865 6.81968 9.67952 6.85396 9.68036ZM8.90937 7.40932C10.4005 6.94303 11.8753 6.48183 13.4473 6.22914H13.4476V2.84594C13.4289 2.84104 13.4115 2.83597 13.395 2.83115C13.3621 2.82154 13.3325 2.81291 13.3024 2.80854C12.0239 2.62541 10.7639 2.32236 9.53799 1.91599C9.29131 1.8342 9.04545 1.75015 8.79967 1.66613C7.86721 1.34734 6.93604 1.02899 5.96645 0.836456C4.11685 0.469799 2.20017 0.843396 1.1851 2.58724C0.361692 4.00143 0.533425 5.89834 1.64395 7.11166C3.12708 8.73213 5.25383 8.49424 7.17166 7.93905C7.75763 7.76948 8.33471 7.58902 8.90937 7.40932ZM14.3434 6.15229C14.4699 6.1448 14.595 6.13738 14.7238 6.12967V2.9377C14.595 2.92998 14.4698 2.92257 14.3434 2.91508C14.2677 2.91059 14.1915 2.90608 14.1139 2.90146V6.16591C14.1916 6.16129 14.2677 6.15677 14.3434 6.15229ZM17.8499 4.06505C18.0454 4.35113 18.367 4.5119 18.7384 4.5119H18.7388C18.7568 4.5119 18.7752 4.51151 18.7936 4.51074C19.254 4.49108 19.7002 4.237 19.9042 3.87844C19.9973 3.71381 19.9406 3.50446 19.7773 3.41039C19.6136 3.3167 19.4054 3.37376 19.3119 3.538C19.2257 3.68991 18.9853 3.81598 18.7649 3.82524C18.6533 3.83025 18.5015 3.80789 18.4115 3.67603C18.178 3.3352 17.8334 3.14744 17.4405 3.14744H17.4401C16.9548 3.14783 16.5082 3.43005 16.3177 3.7088C16.2111 3.86495 16.2502 4.07854 16.4055 4.18573C16.5607 4.29291 16.7731 4.25358 16.8796 4.09743C16.9536 3.98948 17.1955 3.83333 17.4405 3.83333C17.6091 3.83333 17.7433 3.90929 17.8499 4.06505ZM17.8499 5.7044C18.0454 5.99048 18.367 6.15126 18.7384 6.15126H18.7388C18.7568 6.15126 18.7752 6.15087 18.7936 6.1501C19.254 6.13044 19.7002 5.87636 19.9042 5.5178C19.9973 5.35317 19.9406 5.14382 19.7773 5.04974C19.6136 4.95567 19.4054 5.01273 19.3119 5.17736C19.2257 5.32926 18.9853 5.45534 18.7649 5.46459C18.6533 5.46922 18.5015 5.44724 18.4115 5.31538C18.178 4.97456 17.8334 4.7868 17.4405 4.7868H17.4401C16.9548 4.78718 16.5082 5.0694 16.3177 5.34816C16.2111 5.5043 16.2502 5.7179 16.4055 5.82508C16.5607 5.93226 16.7731 5.89294 16.8796 5.73679C16.9536 5.62884 17.1955 5.47269 17.4405 5.47269C17.6091 5.47269 17.7433 5.54864 17.8499 5.7044ZM3.57754 3.30123H6.07651C6.25629 3.30123 6.40234 3.15434 6.40234 2.97351C6.40234 2.79269 6.25629 2.6458 6.07651 2.6458H3.57754C3.39776 2.6458 3.2517 2.79269 3.2517 2.97351C3.2517 3.15434 3.39776 3.30123 3.57754 3.30123ZM3.57754 4.86005H6.07651C6.25629 4.86005 6.40234 4.71315 6.40234 4.53233C6.40234 4.35151 6.25629 4.20461 6.07651 4.20461H3.57754C3.39776 4.20461 3.2517 4.35151 3.2517 4.53233C3.2517 4.71315 3.39776 4.86005 3.57754 4.86005ZM6.07651 6.42111H3.57754C3.39776 6.42111 3.2517 6.27421 3.2517 6.09339C3.2517 5.91257 3.39776 5.76567 3.57754 5.76567H6.07651C6.25629 5.76567 6.40234 5.91257 6.40234 6.09339C6.40234 6.27421 6.25629 6.42111 6.07651 6.42111Z" fill="#1D1D1B"/>
</svg>
