<?xml version="1.0" encoding="utf-8"?>
<!-- Generator: Adobe Illustrator 27.4.0, SVG Export Plug-In . SVG Version: 6.00 Build 0)  -->
<svg version="1.1" id="Flat" xmlns="http://www.w3.org/2000/svg" xmlns:xlink="http://www.w3.org/1999/xlink" x="0px" y="0px"
	 viewBox="0 0 800 800" style="enable-background:new 0 0 800 800;" xml:space="preserve">
<style type="text/css">
	.st0{opacity:0.2;}
	.st1{fill:#FFFFFF;}
	.st2{fill:#FFFFFF;stroke:#1D1D1B;stroke-width:5;stroke-miterlimit:10;}
</style>
<g class="st0">
	<path d="M558,350v-37.5c0-34.5-28-62.5-62.5-62.5S433,278,433,312.5v-200C433,78,405,50,370.5,50S308,78,308,112.5v379l-68.5-118.7
		c-17.2-29.9-55.4-40.2-85.4-23c-29.9,17.2-40.2,55.4-23,85.4c0,0,0,0.1,0.1,0.1C233,650,294.9,725,433,725s250-111.9,250-250V350
		c0-34.5-28-62.5-62.5-62.5S558,315.5,558,350z"/>
</g>
<path class="st1" d="M622.5,262.5c-16.2,0-32,4.5-45.8,13c-20.4-43.8-72.4-62.7-116.2-42.2c-0.2,0.1-0.4,0.2-0.5,0.3v-121
	c0-48.3-39.2-87.5-87.5-87.5S285,64.2,285,112.5v285.7l-21.9-37.9c-24.2-41.9-77.7-56.2-119.5-32c-41.5,23.9-56,76.8-32.6,118.6
	C212.4,660.6,280,750,435,750c151.8-0.2,274.8-123.2,275-275V350C709.9,301.7,670.8,262.6,622.5,262.5z M660,475
	c-0.1,124.2-100.8,224.9-225,225c-63.1,0-107-17-146.8-57c-39.1-39.2-77.4-102.5-132.4-218.4c-0.3-0.6-0.6-1.2-0.9-1.8
	c-10.4-17.9-4.2-40.9,13.7-51.2c17.9-10.4,40.9-4.2,51.2,13.7l0,0L288.4,504c6.9,12,22.2,16.1,34.1,9.2c7.7-4.5,12.5-12.7,12.5-21.7
	v-379c0-20.7,16.8-37.5,37.5-37.5S410,91.8,410,112.5V325c0,13.8,11.2,25,25,25s25-11.2,25-25v-12.5c0-20.7,16.8-37.5,37.5-37.5
	s37.5,16.8,37.5,37.5V350c0,13.8,11.2,25,25,25s25-11.2,25-25c0-20.7,16.8-37.5,37.5-37.5S660,329.3,660,350V475z"/>
<path class="st2" d="M249.1,189.4c0,4.8-3.9,8.8-8.8,8.8s-8.8-3.9-8.8-8.8c0-53.2-43.2-96.4-96.4-96.4c-25.6,0-50.1,10.2-68.2,28.2
	l-20.1,20.1h49c4.8,0,8.8,3.9,8.8,8.8s-3.9,8.8-8.8,8.8h-70c-0.1,0-0.1,0-0.2,0c-0.2,0-0.4,0-0.7,0c-0.2,0-0.3,0-0.5-0.1
	c-0.1,0-0.3,0-0.4-0.1c-0.2,0-0.3-0.1-0.5-0.1c-0.1,0-0.2-0.1-0.4-0.1c-0.1,0-0.3-0.1-0.4-0.2c-0.1,0-0.3-0.1-0.4-0.1
	c-0.1-0.1-0.3-0.1-0.4-0.2c-0.1-0.1-0.3-0.1-0.4-0.2c-0.1-0.1-0.2-0.1-0.3-0.2c-0.1-0.1-0.3-0.2-0.4-0.2c-0.1-0.1-0.2-0.2-0.3-0.3
	c-0.1-0.1-0.2-0.2-0.4-0.3c-0.2-0.1-0.3-0.3-0.5-0.4c-0.1-0.1-0.1-0.1-0.2-0.2c-0.1-0.1-0.1-0.1-0.2-0.2c-0.1-0.1-0.3-0.3-0.4-0.4
	c-0.1-0.1-0.2-0.2-0.3-0.4c-0.1-0.1-0.2-0.2-0.2-0.3c-0.1-0.1-0.2-0.3-0.3-0.4c-0.1-0.1-0.1-0.2-0.2-0.3s-0.1-0.3-0.2-0.4
	c-0.1-0.1-0.1-0.2-0.2-0.3s-0.1-0.3-0.2-0.4c0-0.1-0.1-0.3-0.1-0.4c0-0.1-0.1-0.3-0.1-0.4c0-0.1-0.1-0.3-0.1-0.4
	c0-0.2-0.1-0.3-0.1-0.5c0-0.1,0-0.2-0.1-0.3c0-0.3,0-0.6,0-0.9V80c0-4.8,3.9-8.8,8.8-8.8s8.8,3.9,8.8,8.8v49l20.1-20.1
	c44.5-44.5,116.6-44.5,161.1,0C237.1,130.2,249.1,159.2,249.1,189.4z"/>
<path class="st2" d="M725.2,156.8c-0.2,0-0.4,0-0.7,0c-0.1,0-0.1,0-0.2,0h-70.1c-4.8,0-8.8-3.9-8.8-8.8s3.9-8.8,8.8-8.8h49l-20.2-20
	c-37.7-37.6-98.7-37.6-136.3,0c-18.1,18.1-28.2,42.6-28.2,68.2c0,4.8-3.9,8.8-8.8,8.8c-4.8,0-8.8-3.9-8.8-8.8
	c0-62.9,51-113.9,113.9-113.9c30.2,0,59.2,12,80.6,33.4l20.1,20.1V78c0-4.8,3.9-8.8,8.8-8.8c4.8,0,8.8,3.9,8.8,8.8v70.1
	c0,0.3,0,0.6,0,0.9c0,0.1,0,0.2-0.1,0.3c0,0.2,0,0.3-0.1,0.5c0,0.1-0.1,0.3-0.1,0.4c0,0.1-0.1,0.3-0.1,0.4c0,0.1-0.1,0.3-0.1,0.4
	c0,0.1-0.1,0.3-0.2,0.4c0,0.1-0.1,0.2-0.2,0.3c-0.1,0.1-0.1,0.3-0.2,0.4c-0.1,0.1-0.1,0.2-0.2,0.3c-0.1,0.1-0.2,0.3-0.3,0.4
	c-0.1,0.1-0.2,0.2-0.2,0.3c-0.1,0.1-0.2,0.3-0.3,0.4c-0.1,0.2-0.3,0.3-0.4,0.4c-0.1,0.1-0.1,0.1-0.2,0.2c-0.1,0.1-0.1,0.1-0.2,0.2
	c-0.1,0.1-0.3,0.3-0.5,0.4c-0.1,0.1-0.2,0.2-0.4,0.3c-0.1,0.1-0.2,0.2-0.3,0.3s-0.3,0.2-0.4,0.2c-0.1,0.1-0.2,0.1-0.3,0.2
	c-0.1,0.1-0.3,0.1-0.4,0.2c-0.1,0.1-0.3,0.1-0.4,0.2c-0.1,0.1-0.2,0.1-0.4,0.1c-0.1,0.1-0.3,0.1-0.4,0.2c-0.1,0-0.2,0.1-0.4,0.1
	s-0.3,0.1-0.5,0.1c-0.1,0-0.3,0-0.4,0.1C725.5,156.8,725.3,156.8,725.2,156.8z"/>
</svg>
