<svg width="50" height="51" viewBox="0 0 50 51" fill="none" xmlns="http://www.w3.org/2000/svg">
<rect x="0.75" y="1.73828" width="48.5" height="48.5" rx="24.25" fill="white"/>
<path d="M37.5 37.2383H35V35.9883H36.1562C35.5781 31.957 32.2344 28.8008 28.125 28.5195V29.7383H26.875V28.5195C22.7656 28.8164 19.4219 31.957 18.8438 35.9883H20V37.2383H17.5C17.5 31.7227 21.9844 27.2383 27.5 27.2383C33.0156 27.2383 37.5 31.7227 37.5 37.2383ZM15.625 30.3633V24.7383H13.75V20.9883H16.25V15.3633C16.25 14.332 17.0938 13.4883 18.125 13.4883C19.1562 13.4883 20 14.332 20 15.3633V20.9883H23.75V15.3633C23.75 14.332 24.5938 13.4883 25.625 13.4883C26.6562 13.4883 27.5 14.332 27.5 15.3633V20.9883H30V24.7383H28.125V26.0039C27.9219 25.9883 27.7188 25.9883 27.5312 25.9883C27.3125 25.9883 27.0938 25.9883 26.875 26.0039V23.4883H28.75V22.2383H15V23.4883H16.875V30.3633C16.875 31.0508 17.0937 31.6758 17.4688 32.1914C17.2656 32.5977 17.0781 33.0352 16.9219 33.4727C16.125 32.6758 15.625 31.582 15.625 30.3633ZM25 20.9883H26.25V15.3633C26.25 15.0195 25.9688 14.7383 25.625 14.7383C25.2812 14.7383 25 15.0195 25 15.3633V20.9883ZM17.5 20.9883H18.75V15.3633C18.75 15.0195 18.4688 14.7383 18.125 14.7383C17.7812 14.7383 17.5 15.0195 17.5 15.3633V20.9883ZM25 24.7383H18.75V25.9883H25V24.7383ZM31.7188 32.6445L29.125 35.6758C29.3906 36.1289 29.4688 36.707 29.2656 37.2539C28.9844 38.0195 28.2656 38.5039 27.5 38.5039C27.2969 38.5039 27.0781 38.4727 26.875 38.3945C25.9062 38.0508 25.3906 36.9727 25.7344 36.0039C26.0781 35.0352 27.1562 34.5195 28.125 34.8633C28.1406 34.8633 28.1562 34.8789 28.1562 34.8789L30.75 31.8477C30.9688 31.582 31.375 31.5508 31.625 31.7852C31.9062 31.9883 31.9375 32.3789 31.7188 32.6445ZM27.7031 36.0195C27.6406 35.9883 27.5625 35.9883 27.5 35.9883C27.25 35.9883 27 36.1445 26.9062 36.4102C26.7969 36.7383 26.9531 37.0977 27.2812 37.207C27.6094 37.3164 27.9688 37.1602 28.0781 36.832C28.2031 36.5039 28.0312 36.1445 27.7031 36.0195Z" fill="#00884A"/>
<rect x="0.75" y="1.73828" width="48.5" height="48.5" rx="24.25" stroke="#00884A" stroke-width="1.5"/>
</svg>
