<svg width="50" height="51" viewBox="0 0 50 51" fill="none" xmlns="http://www.w3.org/2000/svg">
<rect x="0.75" y="1.73828" width="48.5" height="48.5" rx="24.25" fill="white"/>
<path d="M34.838 27.2381H15.1614L12.5 35.9881H37.4983L34.838 27.2381ZM24.3747 30.6756H20.4656L20.8289 28.4881H24.3747V30.6756ZM25.6247 28.4881H29.1705L29.5338 30.6756H25.6247V28.4881ZM24.3747 31.9256V34.7381H19.7909L20.2581 31.9256H24.3747ZM25.6247 31.9256H29.7414L30.2086 34.7381H25.6245L25.6247 31.9256ZM31.0084 31.9256H34.9567L35.8119 34.7381H31.4756L31.0084 31.9256ZM34.5766 30.6756H30.8008L30.4375 28.4881H33.9116L34.5766 30.6756ZM19.5619 28.4881L19.1986 30.6756H15.4225L16.0878 28.4881H19.5619ZM15.0422 31.9256H18.9909L18.5238 34.7381H14.1867L15.0422 31.9256ZM21.5503 19.3017L20.3363 16.4223L21.4878 15.9365L22.702 18.8162L21.5503 19.3017ZM17.8231 23.6931L14.9483 22.4731L15.4366 21.3226L18.3114 22.5426L17.8231 23.6932V23.6931ZM28.4478 19.3017L27.2963 18.8162L28.5103 15.9365L29.6619 16.4223L28.4478 19.3017ZM32.175 23.6931L31.6867 22.5426L34.5616 21.3226L35.0498 22.4731L32.175 23.6931ZM20.0188 25.9881H18.7688C18.7688 22.5526 21.5638 19.7576 24.9992 19.7576C28.4347 19.7576 31.2297 22.5526 31.2297 25.9881H29.9797C29.9797 23.2418 27.7453 21.0076 24.9991 21.0076C22.2528 21.0076 20.0188 23.2418 20.0188 25.9881Z" fill="#18837E"/>
<rect x="0.75" y="1.73828" width="48.5" height="48.5" rx="24.25" stroke="#18837E" stroke-width="1.5"/>
</svg>
