<svg width="42" height="42" viewBox="0 0 42 42" fill="#007BC0" xmlns="http://www.w3.org/2000/svg">
<path d="M27.976 4.33691H14.0246C10.6589 4.33691 7.9209 7.019 7.9209 10.3161V32.5244C7.9209 35.8215 10.6589 38.5036 14.0246 38.5036H27.976C31.3418 38.5036 34.0798 35.8215 34.0798 32.5244V10.3161C34.0798 7.019 31.3418 4.33691 27.976 4.33691ZM32.3358 32.5244C32.3358 34.8794 30.38 36.7952 27.976 36.7952H14.0246C11.6206 36.7952 9.66482 34.8794 9.66482 32.5244V10.3161C9.66482 7.96114 11.6206 6.04525 14.0246 6.04525H27.976C30.38 6.04525 32.3358 7.96114 32.3358 10.3161V32.5244ZM30.5919 31.6702V33.3786C29.7564 33.3786 28.5879 32.7531 27.726 32.0311C27.0038 32.6624 25.8548 33.3786 24.3574 33.3786C22.8681 33.3786 21.7232 32.67 21.0003 32.041C20.2775 32.67 19.1326 33.3786 17.6433 33.3786C16.1459 33.3786 14.9969 32.6624 14.2747 32.0311C13.4127 32.7529 12.2443 33.3786 11.4087 33.3786V31.6702C11.756 31.6702 12.9696 31.0375 13.6137 30.2724C13.6955 30.1753 13.7982 30.0971 13.9145 30.0434C14.0308 29.9898 14.1577 29.9619 14.2862 29.9619C14.4147 29.9619 14.5417 29.9898 14.6579 30.0434C14.7742 30.0971 14.8769 30.1753 14.9587 30.2724C15.2351 30.6004 16.2451 31.6702 17.6433 31.6702C19.0415 31.6702 20.0516 30.6004 20.3278 30.2726C20.4096 30.1755 20.5123 30.0973 20.6286 30.0437C20.7449 29.99 20.8718 29.9622 21.0003 29.9622C21.1289 29.9622 21.2558 29.99 21.372 30.0437C21.4883 30.0973 21.591 30.1755 21.6728 30.2726C21.949 30.6004 22.9588 31.6702 24.3574 31.6702C25.756 31.6702 26.7657 30.6004 27.0417 30.2726C27.1235 30.1755 27.2262 30.0973 27.3425 30.0436C27.4588 29.9899 27.5858 29.962 27.7143 29.962C27.8429 29.962 27.9698 29.9899 28.0861 30.0436C28.2024 30.0973 28.3051 30.1755 28.3869 30.2726C29.0313 31.0373 30.2447 31.6702 30.5919 31.6702ZM30.5919 27.3994V29.1077C29.7564 29.1077 28.5879 28.4823 27.726 27.7603C27.0038 28.3915 25.8548 29.1077 24.3574 29.1077C22.8681 29.1077 21.7232 28.3992 21.0003 27.7701C20.2775 28.3992 19.1326 29.1077 17.6433 29.1077C16.1459 29.1077 14.9969 28.3915 14.2747 27.7603C13.4127 28.4821 12.2443 29.1077 11.4087 29.1077V27.3994C11.756 27.3994 12.9696 26.7667 13.6137 26.0016C13.6955 25.9045 13.7982 25.8263 13.9145 25.7726C14.0308 25.7189 14.1577 25.6911 14.2862 25.6911C14.4147 25.6911 14.5417 25.7189 14.6579 25.7726C14.7742 25.8263 14.8769 25.9045 14.9587 26.0016C15.2351 26.3296 16.2451 27.3994 17.6433 27.3994C19.0415 27.3994 20.0516 26.3296 20.3278 26.0018C20.4096 25.9047 20.5123 25.8265 20.6286 25.7728C20.7449 25.7192 20.8718 25.6913 21.0003 25.6913C21.1289 25.6913 21.2558 25.7192 21.372 25.7728C21.4883 25.8265 21.591 25.9047 21.6728 26.0018C21.949 26.3296 22.9588 27.3994 24.3574 27.3994C25.756 27.3994 26.7657 26.3296 27.0417 26.0018C27.1235 25.9046 27.2262 25.8264 27.3425 25.7727C27.4588 25.719 27.5858 25.6912 27.7143 25.6912C27.8429 25.6912 27.9698 25.719 28.0861 25.7727C28.2024 25.8264 28.3051 25.9046 28.3869 26.0018C29.0313 26.7665 30.2447 27.3994 30.5919 27.3994ZM30.5919 23.1286V24.8369C29.7564 24.8369 28.5879 24.2115 27.726 23.4895C27.0038 24.1207 25.8548 24.8369 24.3574 24.8369C22.8681 24.8369 21.7232 24.1284 21.0003 23.4993C20.2775 24.1284 19.1326 24.8369 17.6433 24.8369C16.1459 24.8369 14.9969 24.1207 14.2747 23.4895C13.4127 24.2112 12.2443 24.8369 11.4087 24.8369V23.1286C11.756 23.1286 12.9696 22.4959 13.6137 21.7307C13.6955 21.6336 13.7982 21.5554 13.9145 21.5018C14.0308 21.4481 14.1577 21.4203 14.2862 21.4203C14.4147 21.4203 14.5417 21.4481 14.6579 21.5018C14.7742 21.5554 14.8769 21.6336 14.9587 21.7307C15.2351 22.0587 16.2451 23.1286 17.6433 23.1286C19.0415 23.1286 20.0516 22.0587 20.3278 21.731C20.4096 21.6338 20.5123 21.5557 20.6286 21.502C20.7449 21.4483 20.8718 21.4205 21.0003 21.4205C21.1289 21.4205 21.2558 21.4483 21.372 21.502C21.4883 21.5557 21.591 21.6338 21.6728 21.731C21.949 22.0587 22.9588 23.1286 24.3574 23.1286C25.756 23.1286 26.7657 22.0587 27.0417 21.731C27.1235 21.6338 27.2262 21.5556 27.3425 21.5019C27.4588 21.4482 27.5858 21.4204 27.7143 21.4204C27.8429 21.4204 27.9698 21.4482 28.0861 21.5019C28.2024 21.5556 28.3051 21.6338 28.3869 21.731C29.0313 22.4956 30.2447 23.1286 30.5919 23.1286ZM25.4953 14.1897C25.0233 13.4594 24.4882 12.6317 24.4882 11.305C24.4882 9.23962 26.5506 7.94 26.6384 7.88555L27.5697 9.32995C27.2 9.56313 26.2321 10.3769 26.2321 11.3052C26.2321 12.1363 26.5571 12.6392 26.9689 13.2758C27.4409 14.0061 27.976 14.8338 27.976 16.1603C27.976 18.2259 25.9136 19.5257 25.8258 19.5799L25.3601 18.8577L24.8915 18.1375C25.2642 17.9024 26.2321 17.0886 26.2321 16.1603C26.2321 15.3292 25.9071 14.8263 25.4953 14.1897ZM20.2635 14.1897C19.7918 13.4594 19.2564 12.6317 19.2564 11.305C19.2564 9.23962 21.3188 7.94 21.4067 7.88555L22.3379 9.32995C21.9682 9.56313 21.0003 10.3769 21.0003 11.3052C21.0003 12.1363 21.3254 12.6392 21.7371 13.2758C22.2091 14.0061 22.7443 14.8338 22.7443 16.1603C22.7443 18.2259 20.6818 19.5257 20.594 19.5799L20.1284 18.8577L19.6597 18.1375C20.0325 17.9024 21.0003 17.0886 21.0003 16.1603C21.0003 15.3292 20.6753 14.8263 20.2635 14.1897ZM15.0317 14.1897C14.56 13.4594 14.0246 12.6317 14.0246 11.305C14.0246 9.23962 16.087 7.94 16.1749 7.88555L17.1061 9.32995C16.7364 9.56313 15.7686 10.3769 15.7686 11.3052C15.7686 12.1363 16.0936 12.6392 16.5054 13.2758C16.9771 14.0061 17.5125 14.8338 17.5125 16.1605C17.5125 18.2259 15.4501 19.5255 15.3622 19.5799L14.8966 18.8577L14.4279 18.1375C14.8007 17.9024 15.7686 17.0886 15.7686 16.1607C15.7686 15.3294 15.4435 14.8263 15.0317 14.1897Z"/>
</svg>