<svg width="20" height="20" viewBox="0 0 20 20" fill="none" xmlns="http://www.w3.org/2000/svg">
<path d="M6.15006 9.3264H7.06563C7.28106 8.31386 7.53954 7.77533 8.0565 7.2368C8.57355 6.71974 9.21975 6.46126 9.9845 6.46126C10.7169 6.46126 11.3094 6.70905 11.7294 7.17218C12.031 7.50606 12.2034 7.83995 12.4403 8.52929L11.654 8.74473C11.2555 7.60304 10.8248 7.20444 9.95224 7.20444C9.24132 7.20444 8.70279 7.51685 8.34734 8.14158C8.16426 8.46467 8.06728 8.75551 7.95962 9.3264H10.3507V10.005H7.895C7.88421 10.1341 7.88421 10.2419 7.88421 10.4357C7.88421 10.6619 7.88421 10.7804 7.895 10.8882H10.3507V11.5667H7.9704C8.26114 12.9992 8.87508 13.6348 9.97381 13.6348C10.9001 13.6348 11.3955 13.1823 11.7725 12.0083L12.5588 12.2775C12.3218 12.9885 12.1279 13.3331 11.7617 13.6994C11.2986 14.1409 10.6846 14.3779 9.97381 14.3779C9.14444 14.3779 8.46579 14.087 7.94883 13.5055C7.48571 12.9885 7.27027 12.5145 7.06563 11.5667H6.15006V10.8882H6.99022C6.97564 10.745 6.96844 10.6012 6.96865 10.4573L6.97943 10.005H6.15006V9.3264ZM9.71256 18.3363C5.34731 18.3363 1.7959 14.7848 1.7959 10.4196C1.7959 6.05435 5.34731 2.50293 9.71256 2.50293C14.0778 2.50293 17.6292 6.05435 17.6292 10.4196C17.6292 14.7848 14.0778 18.3363 9.71256 18.3363ZM9.71256 3.2946C5.78382 3.2946 2.58757 6.49085 2.58757 10.4196C2.58757 14.3483 5.78382 17.5446 9.71256 17.5446C13.6413 17.5446 16.8376 14.3483 16.8376 10.4196C16.8376 6.49085 13.6413 3.2946 9.71256 3.2946Z" fill="#A4ABB3"/>
</svg>
