<svg width="20" height="20" viewBox="0 0 20 20" fill="none" xmlns="http://www.w3.org/2000/svg">
<path d="M12.8125 6.57714L13.3724 7.13705L11.5091 9.00024L10.4375 7.92872L10.9974 7.36881L11.5091 7.88062L12.8125 6.57714ZM11.5091 10.6515L10.9974 10.1396L10.4375 10.6995L11.5091 11.7711L13.3724 9.90788L12.8125 9.34798L11.5091 10.6515ZM11.5091 13.4223L10.9974 12.9105L10.4375 13.4704L11.5091 14.5419L13.3724 12.6787L12.8125 12.1188L11.5091 13.4223ZM15.0716 3.2946V18.3363H3.98828V3.2946H6.75911V2.50293H12.3008V3.2946H15.0716ZM7.55078 4.08626H11.5091V3.2946H7.55078V4.08626ZM14.2799 4.08626H12.3008V4.87793H6.75911V4.08626H4.77995V17.5446H14.2799V4.08626ZM5.57161 8.44043H9.52995V7.64876H5.57161V8.44043ZM5.57161 11.2113H9.52995V10.4196H5.57161V11.2113ZM5.57161 13.9821H9.52995V13.1904H5.57161V13.9821Z" fill="#A4ABB3"/>
</svg>
