<svg width="38" height="38" viewBox="0 0 38 38" fill="none" xmlns="http://www.w3.org/2000/svg">
<path d="M17.1327 17.7162C16.7478 17.7783 16.3586 17.8095 15.9687 17.8097C11.9309 17.8097 8.646 14.5248 8.646 10.487C8.646 6.44916 11.9309 3.16406 15.9689 3.16406C19.508 3.16406 22.4684 5.68796 23.1458 9.0301C22.6427 9.20074 22.156 9.41649 21.6918 9.67471C21.2956 6.87042 18.8809 4.70573 15.9687 4.70573C12.7811 4.70573 10.1877 7.2992 10.1877 10.487C10.1877 13.6748 12.7811 16.2682 15.9689 16.2682C16.3987 16.2682 16.8172 16.2195 17.2206 16.1301C17.1573 16.5586 17.1254 16.9911 17.1252 17.4243C17.1252 17.5222 17.1294 17.6193 17.1325 17.7164L17.1327 17.7162ZM24.445 20.435L28.5718 19.6483L28.3809 18.6472L25.9146 19.1174C26.5324 18.5524 26.8423 18.2317 27.1138 17.8427C27.6738 17.0612 27.8719 16.3318 27.7276 15.5745C27.5137 14.4512 26.6232 13.8956 25.3939 14.1297C24.2872 14.341 23.727 14.9875 23.6322 16.1276L24.8246 16.1871C24.8774 15.5357 25.0884 15.2255 25.5278 15.1418C25.9919 15.0534 26.3179 15.3035 26.4141 15.8082C26.5336 16.4349 26.2898 17.1476 25.6961 17.9273C25.3031 18.4323 25.0782 18.6692 24.2556 19.4419L24.445 20.435ZM15.195 24.2011C15.2274 25.1238 14.7531 25.7086 13.9898 26.2735L14.4461 26.8782C14.978 26.6078 15.5124 26.1964 15.7841 25.8167L17.7256 29.6354L18.8707 29.0535L16.1555 23.7129L15.195 24.2011ZM15.5744 7.46782C15.1428 8.28413 14.4404 8.55527 13.497 8.66473L13.5917 9.41629C14.1875 9.44674 14.8558 9.35617 15.2806 9.16211L15.063 13.4406L16.3457 13.5061L16.6503 7.52274L15.5744 7.46782ZM33.3125 17.4243C33.3125 13.3863 30.0276 10.1014 25.9897 10.1014C21.9519 10.1014 18.6668 13.3863 18.6668 17.4243C18.6668 21.4623 21.9519 24.7472 25.9897 24.7472C30.0276 24.7472 33.3125 21.4621 33.3125 17.4243ZM31.7708 17.4243C31.7708 20.6121 29.1775 23.2055 25.9897 23.2055C22.802 23.2055 20.2085 20.6121 20.2085 17.4243C20.2085 14.2365 22.802 11.643 25.9897 11.643C29.1775 11.643 31.771 14.2365 31.771 17.4243H31.7708ZM22.4065 25.5294C22.4811 25.8996 22.5208 26.2825 22.5208 26.6745C22.5208 29.8623 19.9273 32.4555 16.7396 32.4555C13.5518 32.4555 10.9583 29.8623 10.9583 26.6743C10.9583 23.4863 13.5522 20.893 16.7396 20.893C17.1315 20.893 17.5142 20.9327 17.8846 21.0073C17.6521 20.4832 17.4713 19.9376 17.345 19.3783C17.1437 19.3611 16.9417 19.3521 16.7396 19.3514C12.7017 19.3514 9.41664 22.6363 9.41664 26.6743C9.41664 30.7123 12.7017 33.997 16.7396 33.997C20.7774 33.997 24.0625 30.7121 24.0625 26.6741C24.0625 26.4702 24.0519 26.2686 24.0355 26.0688C23.4762 25.9425 22.9306 25.7618 22.4065 25.5292V25.5294Z" fill="#007BC0"/>
</svg>
