<svg width="38" height="38" viewBox="0 0 38 38" fill="none" xmlns="http://www.w3.org/2000/svg">
<path d="M23.2917 33.9964H3.25V19.4257L13.2839 8.9875L23.2917 19.4263V33.9964ZM4.79167 32.4548H21.75V20.0459L13.2824 11.2139L4.79167 20.0463V32.4548ZM26.7595 13.9548C24.8468 13.9548 23.2907 12.3986 23.2907 10.486C23.2907 8.57337 24.8468 7.01725 26.7595 7.01725C28.6721 7.01725 30.2282 8.57337 30.2282 10.486C30.2282 12.3986 28.6721 13.9548 26.7595 13.9548ZM26.7595 8.55892C25.6969 8.55892 24.8324 9.4236 24.8324 10.486C24.8324 11.5484 25.6969 12.4131 26.7595 12.4131C27.822 12.4131 28.6865 11.5486 28.6865 10.486C28.6865 9.42341 27.822 8.55892 26.7595 8.55892ZM27.5303 3.16309H25.9886V5.47559H27.5303V3.16309ZM27.5303 15.4964H25.9886V17.8089H27.5303V15.4964ZM34.0872 9.71517H31.7708V11.2568H34.0872V9.71517ZM21.7519 9.71517H19.4356V11.2568H21.7519V9.71517ZM14.8125 17.2716L9.03125 24.9333H12.8854L10.9583 30.6795L16.7396 23.0178H12.8854L14.8125 17.2716ZM23.765 14.5753L22.675 13.4853L21.0397 15.1204L22.1298 16.2104L23.765 14.5753ZM32.486 5.85426L31.396 4.7643L29.7607 6.39943L30.8507 7.48939L32.486 5.85426ZM23.7642 6.39866L22.1262 4.76083L21.0362 5.85098L22.6742 7.48881L23.7642 6.39866ZM32.4866 15.1212L30.8485 13.4832L29.7586 14.5732L31.3966 16.2112L32.4866 15.1212Z" fill="#007BC0"/>
</svg>