<svg width="42" height="42" viewBox="0 0 42 42" fill="#007BC0" xmlns="http://www.w3.org/2000/svg">
<path d="M38.4392 36.3753H34.9514V34.667H36.5645C35.758 29.1576 31.093 24.8441 25.3598 24.4597V26.1253H23.6159V24.4597C17.8827 24.8654 13.2177 29.1576 12.4112 34.667H14.0243V36.3753H10.5365C10.5365 28.8373 16.7928 22.7087 24.4879 22.7087C32.1829 22.7087 38.4392 28.8373 38.4392 36.3753ZM7.92057 26.9795V19.292H5.30469V14.167H8.79254V6.47949C8.79254 5.07012 9.96968 3.91699 11.4084 3.91699C12.8472 3.91699 14.0243 5.07012 14.0243 6.47949V14.167H19.2561V6.47949C19.2561 5.07012 20.4332 3.91699 21.872 3.91699C23.3107 3.91699 24.4879 5.07012 24.4879 6.47949V14.167H27.9757V19.292H25.3598V21.0217C25.0764 21.0003 24.793 21.0003 24.5314 21.0003C24.2263 21.0003 23.9211 21.0003 23.6159 21.0217V17.5837H26.2318V15.8753H7.04861V17.5837H9.6645V26.9795C9.6645 27.9191 9.96968 28.7732 10.4929 29.4779C10.2095 30.0331 9.94789 30.6311 9.72989 31.229C8.61814 30.1399 7.92057 28.6451 7.92057 26.9795ZM21 14.167H22.7439V6.47949C22.7439 6.0097 22.3515 5.62533 21.872 5.62533C21.3924 5.62533 21 6.0097 21 6.47949V14.167ZM10.5365 14.167H12.2804V6.47949C12.2804 6.0097 11.888 5.62533 11.4084 5.62533C10.9288 5.62533 10.5365 6.0097 10.5365 6.47949V14.167ZM21 19.292H12.2804V21.0003H21V19.292ZM30.3736 30.0972L26.755 34.2399C27.1255 34.8592 27.2345 35.6493 26.9511 36.3967C26.5588 37.443 25.556 38.105 24.4879 38.105C24.2045 38.105 23.8993 38.0623 23.6159 37.9555C22.2643 37.4857 21.545 36.0123 22.0246 34.6883C22.5041 33.3644 24.0083 32.6597 25.3598 33.1295C25.3816 33.1295 25.4034 33.1508 25.4034 33.1508L29.0221 29.0081C29.3272 28.6451 29.894 28.6024 30.2428 28.9227C30.6352 29.2003 30.6788 29.7342 30.3736 30.0972ZM24.7712 34.7097C24.684 34.667 24.575 34.667 24.4879 34.667C24.1391 34.667 23.7903 34.8805 23.6595 35.2436C23.5069 35.692 23.7249 36.1831 24.1827 36.3326C24.6404 36.4821 25.1418 36.2686 25.2944 35.8201C25.4688 35.3717 25.229 34.8805 24.7712 34.7097Z" />
</svg>