<svg width="71" height="72" viewBox="0 0 71 72" fill="none" xmlns="http://www.w3.org/2000/svg">
<path d="M50.95 36.9543L43.0073 35.5698L39.2179 33.0431C38.5539 32.562 37.6612 32.0077 36.6178 31.9551C36.408 31.9456 36.198 31.941 35.988 31.9412L34.6095 33.7322H35.6794C35.9631 33.7311 36.2565 33.7309 36.5271 33.7445C37.1071 33.7739 37.7145 34.1656 38.179 34.5033L42.3276 37.2698L50.6483 38.7204C51.1746 38.8087 51.6257 39.4521 51.6257 39.9173V43.5866H49.7162C49.3169 42.0435 47.9167 40.8991 46.2507 40.8991C44.5846 40.8991 43.1847 42.0435 42.7853 43.5866H32.6953C32.296 42.0435 30.8958 40.8991 29.2298 40.8991C27.6664 40.8991 26.3367 41.9073 25.8487 43.3066L24.7507 42.9411V38.4723C25.1135 37.9617 26.2321 36.4925 27.2509 35.1767L25.8339 34.08C22.959 37.7932 22.959 37.8248 22.959 38.2116V40.6144C22.4437 40.2807 22.0632 39.6984 22.0632 39.1072V34.5109C23.6078 34.1125 24.7507 32.7139 24.7507 31.0449V29.2533H23.8548V26.5658H22.0632V29.2533H20.2715V26.5658H18.4798V29.2533H17.584V31.0449C17.584 32.7141 18.7268 34.1125 20.2715 34.5109V39.1074C20.2715 40.6771 21.4692 42.1253 22.959 42.5571V44.2323L25.7114 45.1496C26.025 46.8073 27.4823 48.0655 29.2298 48.0655C30.8961 48.0655 32.2958 46.9211 32.6953 45.378H42.7853C43.1847 46.9211 44.5849 48.0655 46.2507 48.0655C47.9165 48.0655 49.3166 46.9211 49.7162 45.378H53.4173V39.9173C53.4173 38.535 52.2848 37.1776 50.95 36.9543ZM29.2298 46.2741C28.2422 46.2741 27.4382 45.4701 27.4382 44.4824C27.4382 43.4943 28.2422 42.6908 29.2298 42.6908C30.2175 42.6908 31.0215 43.4943 31.0215 44.4824C31.0215 45.4701 30.2179 46.2741 29.2298 46.2741ZM48.0408 44.5169C48.0219 45.4889 47.2271 46.2741 46.2507 46.2741C45.263 46.2741 44.459 45.4701 44.459 44.4824C44.459 43.4943 45.263 42.6908 46.2507 42.6908C47.2271 42.6908 48.0222 43.476 48.0408 44.4477V44.5169ZM31.0215 32.4635H27.4382L33.0691 25.6699L31.0215 30.8955H34.6048L28.9738 38.2116L31.0215 32.4635Z" fill="#007BC0"/>
<rect x="0.75" y="1.66992" width="69.5" height="69.5" rx="34.75" stroke="#007BC0" stroke-width="1.5"/>
</svg>
