<svg width="72" height="72" viewBox="0 0 72 72" fill="none" xmlns="http://www.w3.org/2000/svg">
<path d="M47.3125 18.5029H32.9792C29.5213 18.5029 26.7083 21.3158 26.7083 24.7738V48.0654C26.7083 48.3696 26.7312 48.6686 26.7733 48.9613H24.0208C23.1165 48.9613 22.2292 48.0739 22.2292 47.1696V42.5731C23.7738 42.1744 24.9167 40.7763 24.9167 39.1071V37.3154H24.0208V34.6279H22.2292V37.3154H20.4375V34.6279H18.6458V37.3154H17.75V39.1071C17.75 40.7763 18.8929 42.1747 20.4375 42.5731V47.1696C20.4375 49.045 22.1454 50.7529 24.0208 50.7529H27.3146C28.3228 52.8696 30.4827 54.3363 32.9792 54.3363H47.3125C50.7704 54.3363 53.5833 51.5233 53.5833 48.0654V24.7738C53.5833 21.3158 50.7704 18.5029 47.3125 18.5029ZM51.7917 48.0654C51.7917 50.5352 49.7823 52.5446 47.3125 52.5446H32.9792C30.5094 52.5446 28.5 50.5352 28.5 48.0654V24.7738C28.5 22.304 30.5094 20.2946 32.9792 20.2946H47.3125C49.7823 20.2946 51.7917 22.304 51.7917 24.7738V48.0654ZM48.7165 27.8489L48.114 27.7361C47.7416 27.6662 38.9394 26.0862 33.7982 31.2271C30.2753 34.75 31.7407 39.4966 33.2808 42.0179L30.5537 44.7441L31.8209 46.0113L34.5478 43.2841C35.9213 44.1235 37.954 44.9405 40.0916 44.9405C41.877 44.9405 43.7345 44.3703 45.3381 42.767C50.479 37.6258 48.899 28.8234 48.8291 28.4512L48.7163 27.8487L48.7165 27.8489ZM44.0711 41.5003C42.5305 43.0411 40.5633 43.5128 38.2243 42.9027C37.281 42.6566 36.4563 42.2768 35.8709 41.9614L43.7162 34.1162L42.4492 32.8493L34.604 40.6945C33.6965 39.005 32.2542 35.3052 35.0651 32.4943C38.8097 28.7495 45.1558 29.1663 47.1589 29.4077C47.4032 31.4108 47.8256 37.7461 44.0711 41.5003Z" fill="#007BC0"/>
<rect x="0.916016" y="1.66992" width="69.5" height="69.5" rx="34.75" stroke="#007BC0" stroke-width="1.5"/>
</svg>
