<svg width="71" height="72" viewBox="0 0 71 72" fill="none" xmlns="http://www.w3.org/2000/svg">
<path d="M44.1222 54.1407L43.0028 52.7415L43.5625 53.4411L43.0017 52.7423C43.0429 52.7094 47.1458 49.3467 47.1458 44.4828C47.1458 41.1476 45.9024 39.0751 44.586 36.8812C43.2019 34.5744 41.7708 32.1892 41.7708 28.3578C41.7708 22.6771 45.4594 18.9231 45.6164 18.7658L46.8836 20.033C46.8516 20.065 43.5625 23.4394 43.5625 28.3578C43.5625 31.6929 44.8059 33.7655 46.1223 35.9594C47.5064 38.2661 48.9375 40.6513 48.9375 44.4828C48.9375 50.2224 44.3186 53.9833 44.1222 54.1407ZM39.0833 44.4828C39.0833 40.6513 37.6522 38.2661 36.2682 35.9594C34.9517 33.7655 33.7083 31.6929 33.7083 28.3578C33.7083 23.4392 36.9974 20.065 37.0294 20.033L35.762 18.7656C35.6055 18.9231 31.9167 22.6771 31.9167 28.3578C31.9167 32.1892 33.3478 34.5744 34.7318 36.8812C36.0482 39.0751 37.2917 41.1476 37.2917 44.4828C37.2917 49.3465 33.1888 52.7092 33.1475 52.7423L33.7083 53.4411L33.1487 52.7415L34.268 54.1407C34.4644 53.9831 39.0833 50.2224 39.0833 44.4828ZM29.2292 44.4828C29.2292 40.6513 27.7981 38.2661 26.414 35.9594C25.0976 33.7655 23.8542 31.6929 23.8542 28.3578C23.8542 23.4392 27.1432 20.065 27.1752 20.033L25.9079 18.7656C25.7513 18.9231 22.0625 22.6771 22.0625 28.3578C22.0625 32.1892 23.4936 34.5744 24.8777 36.8812C26.1941 39.0751 27.4375 41.1476 27.4375 44.4828C27.4375 49.3465 23.3346 52.7092 23.2934 52.7423L23.8542 53.4411L23.2945 52.7415L24.4138 54.1407C24.6103 53.9831 29.2292 50.2224 29.2292 44.4828Z" fill="#007BC0"/>
<rect x="0.75" y="1.66992" width="69.5" height="69.5" rx="34.75" stroke="#007BC0" stroke-width="1.5"/>
</svg>
