<svg width="24" height="24" viewBox="0 0 24 24" fill="none" xmlns="http://www.w3.org/2000/svg">
<path fill-rule="evenodd" clip-rule="evenodd" d="M3 20.25V10.5H4.5V20.25C4.5 20.4489 4.57902 20.6397 4.71967 20.7803C4.86032 20.921 5.05109 21 5.25 21H18.75C18.9489 21 19.1397 20.921 19.2803 20.7803C19.421 20.6397 19.5 20.4489 19.5 20.25V10.5H21V20.25C21 20.8467 20.7629 21.419 20.341 21.841C19.919 22.2629 19.3467 22.5 18.75 22.5H5.25C4.65326 22.5 4.08097 22.2629 3.65901 21.841C3.23705 21.419 3 20.8467 3 20.25ZM19.5 3.75V9L16.5 6V3.75C16.5 3.55109 16.579 3.36032 16.7197 3.21967C16.8603 3.07902 17.0511 3 17.25 3H18.75C18.9489 3 19.1397 3.07902 19.2803 3.21967C19.421 3.36032 19.5 3.55109 19.5 3.75Z" fill="white"/>
<path fill-rule="evenodd" clip-rule="evenodd" d="M10.9404 2.24973C11.2217 1.96852 11.6032 1.81055 12.0009 1.81055C12.3987 1.81055 12.7802 1.96852 13.0614 2.24973L23.0319 12.2187C23.1728 12.3596 23.2519 12.5506 23.2519 12.7497C23.2519 12.9489 23.1728 13.1399 23.0319 13.2807C22.8911 13.4216 22.7001 13.5007 22.5009 13.5007C22.3018 13.5007 22.1108 13.4216 21.9699 13.2807L12.0009 3.31023L2.03195 13.2807C1.89112 13.4216 1.70011 13.5007 1.50095 13.5007C1.30178 13.5007 1.11078 13.4216 0.969947 13.2807C0.829117 13.1399 0.75 12.9489 0.75 12.7497C0.75 12.5506 0.829117 12.3596 0.969947 12.2187L10.9404 2.24973Z" fill="white"/>
</svg>