<svg width="32" height="31" viewBox="0 0 32 31" fill="none" xmlns="http://www.w3.org/2000/svg">
<path d="M23.8698 11.5545C26.0334 11.5545 27.7937 9.83015 27.7937 7.71071C27.7937 5.59126 26.0334 3.86695 23.8698 3.86695C21.7062 3.86695 19.946 5.59126 19.946 7.71071C19.946 9.83015 21.7062 11.5545 23.8698 11.5545ZM23.8698 5.40445C25.1678 5.40445 26.2241 6.43919 26.2241 7.71071C26.2241 8.98222 25.1678 10.017 23.8698 10.017C22.5718 10.017 21.5155 8.98241 21.5155 7.71071C21.5155 6.439 22.5716 5.40445 23.8698 5.40445ZM24.6546 2.32945H23.0851V0.0449219H24.6546V2.32945ZM31.6953 6.94195V8.47946H29.3632V6.94195H31.6953ZM28.3091 4.44928L27.1992 3.36208L29.4189 1.18767L30.5288 2.27487L28.3091 4.44928ZM19.4304 4.44928L17.2105 2.27468L18.3206 1.18748L20.5401 3.36189L19.4302 4.44909L19.4304 4.44928ZM27.1992 12.0595L28.3091 10.9723L30.5288 13.1465L29.4189 14.2339L27.1992 12.0595ZM30.9106 21.5699H29.341V23.1074H27.7715V21.5699H26.202V23.1074H25.4172V25.4137C25.4172 26.8434 26.4197 28.0447 27.7715 28.3874V29.2574H20.7086V16.509L18.3331 14.2216L19.4432 13.1344L21.5958 15.2149L22.6982 14.1204L13.1185 4.86229L12.0161 5.9568L18.3257 12.0545L17.2138 13.1437L10.4694 6.64906L0.304688 16.6397V30.7949H29.341V28.3874C30.6928 28.0447 31.6953 26.8434 31.6953 25.4137V23.1074H30.9106V21.5699ZM12.0762 29.2574H8.93711V22.3387H12.0762V29.2574ZM19.1391 29.2574H13.6457V20.8012H7.36758V29.2574H1.87422V17.2751L10.4805 8.81578L19.1391 17.1536V29.2574ZM30.1258 25.4137C30.1258 26.2614 29.4217 26.9512 28.5563 26.9512C27.6909 26.9512 26.9867 26.2614 26.9867 25.4137V24.6449H30.1258V25.4137Z" fill="#007BC0"/>
</svg>
