<svg width="44" height="43" viewBox="0 0 44 43" fill="#FFF" xmlns="http://www.w3.org/2000/svg">
<path d="M32.7177 16.6403C35.6642 16.6403 38.0614 14.2851 38.0614 11.3903C38.0614 8.49541 35.6642 6.14026 32.7177 6.14026C29.7712 6.14026 27.3739 8.49541 27.3739 11.3903C27.3739 14.2851 29.7712 16.6403 32.7177 16.6403ZM32.7177 8.24026C34.4854 8.24026 35.9239 9.65356 35.9239 11.3903C35.9239 13.127 34.4854 14.5403 32.7177 14.5403C30.95 14.5403 29.5114 13.1272 29.5114 11.3903C29.5114 9.6533 30.9497 8.24026 32.7177 8.24026ZM33.7864 4.04026H31.6489V0.919922H33.7864V4.04026ZM43.375 10.3403V12.4403H40.1989V10.3403H43.375ZM38.7633 6.93563L37.2519 5.45067L40.2748 2.48075L41.7863 3.96571L38.7633 6.93563ZM26.6718 6.93563L23.6485 3.96545L25.1603 2.48048L28.183 5.45041L26.6715 6.93537L26.6718 6.93563ZM37.2519 17.3301L38.7633 15.8451L41.7863 18.8148L40.2748 20.3L37.2519 17.3301ZM42.3063 30.3199H40.1688V32.4199H38.0313V30.3199H35.8938V32.4199H34.825V35.5699C34.825 37.5227 36.1903 39.1635 38.0313 39.6316V40.8199H28.4125V23.4075L25.1774 20.2832L26.6891 18.7983L29.6207 21.6398L31.1221 20.1449L18.0758 7.49975L16.5745 8.99468L25.1672 17.3233L23.6531 18.8109L14.468 9.94021L0.625 23.586V42.9199H40.1688V39.6316C42.0097 39.1635 43.375 37.5227 43.375 35.5699V32.4199H42.3063V30.3199ZM16.6563 40.8199H12.3813V31.3699H16.6563V40.8199ZM26.275 40.8199H18.7938V29.2699H10.2438V40.8199H2.7625V24.4538L14.4832 12.8996L26.275 24.2879V40.8199ZM41.2375 35.5699C41.2375 36.7278 40.2786 37.6699 39.1 37.6699C37.9214 37.6699 36.9625 36.7278 36.9625 35.5699V34.5199H41.2375V35.5699Z" fill="#007BC0"/>
</svg>
