<svg width="71" height="72" viewBox="0 0 71 72" fill="none" xmlns="http://www.w3.org/2000/svg">
<path d="M35.5 67.0625C18.3721 67.0625 4.4375 53.1279 4.4375 36C4.4375 18.8721 18.3721 4.9375 35.5 4.9375C52.6279 4.9375 66.5625 18.8721 66.5625 36C66.5625 53.1279 52.6279 67.0625 35.5 67.0625ZM35.5 8.04375C20.0848 8.04375 7.54375 20.5848 7.54375 36C7.54375 51.4152 20.0848 63.9563 35.5 63.9563C50.9152 63.9563 63.4563 51.4152 63.4563 36C63.4563 20.5848 50.9152 8.04375 35.5 8.04375ZM32.7432 23.2255C32.7432 21.7112 33.9857 20.4688 35.5 20.4688C37.0531 20.4688 38.2568 21.6724 38.2568 23.2255C38.2568 24.7787 37.0531 25.9823 35.5 25.9823C33.9857 25.9823 32.7432 24.7398 32.7432 23.2255ZM33.4615 29.9428H37.5385V51.5313H33.4615V29.9428Z" fill="#007BC0"/>
</svg>
