<svg width="24" height="24" viewBox="0 0 24 24" fill="#007BC0" xmlns="http://www.w3.org/2000/svg">
<path d="M4 11.2683H5.26C5.93138 11.2683 6.325 11.6247 6.325 12.2299C6.325 12.8059 5.93963 13.1459 5.289 13.1459H4.66313V14.2317H4V11.2683ZM5.2185 12.6526C5.51688 12.6526 5.6785 12.4992 5.6785 12.2174C5.6785 11.9356 5.52525 11.7946 5.22262 11.7946H4.66313V12.6526H5.2185ZM6.83125 11.2683H7.9295C8.86625 11.2683 9.40913 11.807 9.40913 12.7396C9.40913 13.6888 8.86212 14.2317 7.90887 14.2317H6.83125V11.2683ZM7.942 13.7054C8.44763 13.7054 8.717 13.3696 8.717 12.7479C8.717 12.1304 8.4435 11.7946 7.93787 11.7946H7.49438V13.7054H7.942ZM9.95675 11.2683H12V11.803H10.6199V12.5863H11.685V13.1044H10.62V14.2317H9.95687L9.95675 11.2683ZM17.7267 2H7.5V9H2V16.5H7.5V22H21.5V6.31213L17.7269 2H17.7267ZM18 3.83075L19.8981 6H18V3.83075ZM3 10H13V15.5H3V10ZM8.5 21V16.5H14V9H8.5V3H17V7H20.5V21H8.5Z"/>
</svg>