<svg width="20" height="20" viewBox="0 0 20 20" fill="none" xmlns="http://www.w3.org/2000/svg">
<path d="M15.852 11.2114H3.39015L1.70459 16.753H17.5368L15.852 11.2114ZM9.22523 13.3885H6.74949L6.97956 12.003H9.22523V13.3885ZM10.0169 12.003H12.2626L12.4926 13.3885H10.0169V12.003ZM9.22523 14.1801V15.9614H6.32218L6.61807 14.1801H9.22523ZM10.0169 14.1801H12.6241L12.92 15.9614H10.0168L10.0169 14.1801ZM13.4266 14.1801H15.9272L16.4688 15.9614H13.7225L13.4266 14.1801ZM15.6864 13.3885H13.2951L13.065 12.003H15.2652L15.6864 13.3885ZM6.17711 12.003L5.94703 13.3885H3.55551L3.97687 12.003H6.17711ZM3.31464 14.1801H5.81552L5.51963 15.9614H2.77285L3.31464 14.1801ZM7.43645 6.18498L6.66755 4.36137L7.39687 4.05371L8.16588 5.87751L7.43645 6.18498ZM5.0759 8.9662L3.25517 8.19353L3.56441 7.4649L5.38515 8.23757L5.0759 8.9663V8.9662ZM11.8049 6.18498L11.0755 5.87751L11.8445 4.05371L12.5738 4.36137L11.8049 6.18498ZM14.1654 8.9662L13.8562 8.23757L15.6769 7.4649L15.9862 8.19353L14.1654 8.9662ZM6.46647 10.4197H5.6748C5.6748 8.2439 7.44497 6.47374 9.62076 6.47374C11.7966 6.47374 13.5667 8.2439 13.5667 10.4197H12.7751C12.7751 8.68041 11.36 7.2654 9.62066 7.2654C7.88137 7.2654 6.46647 8.68041 6.46647 10.4197Z" fill="#A4ABB3"/>
</svg>
