<svg width="25" height="24" viewBox="0 0 25 24" fill="none" xmlns="http://www.w3.org/2000/svg">
<path d="M20.0364 13.0002H4.29514L2.16602 20.0002H22.1646L20.0364 13.0002ZM11.6658 15.7502H8.53852L8.82914 14.0002H11.6658V15.7502ZM12.6658 14.0002H15.5024L15.793 15.7502H12.6658V14.0002ZM11.6658 16.7502V19.0002H7.99877L8.37252 16.7502H11.6658ZM12.6658 16.7502H15.9591L16.3329 19.0002H12.6656L12.6658 16.7502ZM16.9728 16.7502H20.1314L20.8155 19.0002H17.3465L16.9728 16.7502ZM19.8273 15.7502H16.8066L16.516 14.0002H19.2953L19.8273 15.7502ZM7.81552 14.0002L7.52489 15.7502H4.50402L5.03627 14.0002H7.81552ZM4.19977 16.7502H7.35877L6.98502 19.0002H3.51539L4.19977 16.7502ZM9.40627 6.65111L8.43502 4.34761L9.35627 3.95898L10.3276 6.26273L9.40627 6.65111ZM6.42452 10.1642L4.12464 9.18823L4.51527 8.26786L6.81514 9.24386L6.42452 10.1644V10.1642ZM14.9243 6.65111L14.003 6.26273L14.9743 3.95898L15.8955 4.34761L14.9243 6.65111ZM17.906 10.1642L17.5154 9.24386L19.8153 8.26786L20.2059 9.18823L17.906 10.1642ZM8.18102 12.0002H7.18102C7.18102 9.25186 9.41702 7.01586 12.1654 7.01586C14.9138 7.01586 17.1498 9.25186 17.1498 12.0002H16.1498C16.1498 9.80323 14.3623 8.01586 12.1653 8.01586C9.96827 8.01586 8.18102 9.80323 8.18102 12.0002Z" fill="#007BC0"/>
</svg>