<svg width="43" height="42" viewBox="0 0 43 42" fill="#007BC0" xmlns="http://www.w3.org/2000/svg">
<path d="M35.2271 22.7082H7.77553L4.0625 34.6665H38.9386L35.2271 22.7082ZM20.6293 27.4061H15.1757L15.6825 24.4165H20.6293V27.4061ZM22.3733 24.4165H27.3201L27.827 27.4061H22.3733V24.4165ZM20.6293 29.1144V32.9582H14.2344L14.8862 29.1144H20.6293ZM22.3733 29.1144H28.1167L28.7685 32.9582H22.373L22.3733 29.1144ZM29.8843 29.1144H35.3928L36.5858 32.9582H30.5361L29.8843 29.1144ZM34.8624 27.4061H29.5946L29.0878 24.4165H33.9346L34.8624 27.4061ZM13.9148 24.4165L13.408 27.4061H8.13979L9.068 24.4165H13.9148ZM7.60921 29.1144H13.1183L12.4665 32.9582H6.41571L7.60921 29.1144ZM16.6889 11.8617L14.9952 7.9266L16.6018 7.2627L18.2958 11.1983L16.6889 11.8617ZM11.489 17.8633L7.47819 16.196L8.15941 14.6237L12.1702 16.291L11.489 17.8635V17.8633ZM26.3119 11.8617L24.7053 11.1983L26.3991 7.2627L28.0057 7.9266L26.3119 11.8617ZM31.5119 17.8633L30.8306 16.291L34.8415 14.6237L35.5227 16.196L31.5119 17.8633ZM14.5522 20.9998H12.8083C12.8083 16.3047 16.7077 12.4849 21.5007 12.4849C26.2936 12.4849 30.193 16.3047 30.193 20.9998H28.4491C28.4491 17.2466 25.3318 14.1932 21.5004 14.1932C17.669 14.1932 14.5522 17.2466 14.5522 20.9998Z"/>
</svg>