<svg width="38" height="38" viewBox="0 0 38 38" fill="none" xmlns="http://www.w3.org/2000/svg">
<path d="M30.8002 20.1222H6.5324L3.25 30.9139H34.0812L30.8002 20.1222ZM17.8954 24.3618H13.0743L13.5223 21.6639H17.8954V24.3618ZM19.4371 21.6639H23.8102L24.2583 24.3618H19.4371V21.6639ZM17.8954 25.9034V29.3722H12.2422L12.8184 25.9034H17.8954ZM19.4371 25.9034H24.5144L25.0906 29.3722H19.4369L19.4371 25.9034ZM26.0771 25.9034H30.9466L32.0013 29.3722H26.6533L26.0771 25.9034ZM30.4778 24.3618H25.821L25.3729 21.6639H29.6576L30.4778 24.3618ZM11.9596 21.6639L11.5116 24.3618H6.85442L7.67497 21.6639H11.9596ZM6.38536 25.9034H11.2555L10.6793 29.3722H5.33029L6.38536 25.9034ZM14.4121 10.334L12.9147 6.78272L14.335 6.18359L15.8325 9.73521L14.4121 10.334ZM9.81519 15.75L6.26955 14.2454L6.87176 12.8264L10.4174 14.3311L9.81519 15.7502V15.75ZM22.919 10.334L21.4987 9.73521L22.9961 6.18359L24.4163 6.78272L22.919 10.334ZM27.5158 15.75L26.9136 14.3311L30.4593 12.8264L31.0615 14.2454L27.5158 15.75ZM12.5231 18.5805H10.9815C10.9815 14.3434 14.4286 10.8963 18.6657 10.8963C22.9028 10.8963 26.3499 14.3434 26.3499 18.5805H24.8083C24.8083 15.1935 22.0526 12.4379 18.6655 12.4379C15.2785 12.4379 12.5231 15.1935 12.5231 18.5805Z" fill="#007BC0"/>
</svg>