<svg width="43" height="41" viewBox="0 0 43 41" fill="#007BC0" xmlns="http://www.w3.org/2000/svg">
<path d="M31.7963 25.6251H35.4529L29.2932 32.4584L31.0933 27.3336H27.6055L33.6811 21.3545L31.7963 25.6251ZM23.2457 37.5836V35.0211H20.6298C19.0162 35.0211 18.0139 34.0393 18.0139 32.4588V20.3903C16.9187 20.0941 16.27 19.212 16.27 17.9382H18.0139V16.2295H19.7578V17.9382H21.5017C21.5017 19.2118 20.853 20.0939 19.7578 20.3903V32.4586C19.7578 33.105 19.9697 33.3126 20.6298 33.3126H23.2457V12.8128C23.2457 10.4579 25.2015 8.54196 27.6055 8.54196H34.5812C36.9852 8.54196 38.941 10.4579 38.941 12.8128L38.9412 37.5836H23.2457ZM24.9896 35.8753H37.1973L37.1971 12.8128C37.1971 11.3759 36.048 10.2503 34.5812 10.2503H27.6055C26.163 10.2503 24.9896 11.3998 24.9896 12.8128V35.8753ZM9.33722 18.7922V19.6463C9.33722 21.2449 9.04511 21.944 8.8838 22.2086H6.7743C6.64002 21.9169 6.44579 21.1552 6.44579 19.9312V15.5472C6.44579 14.5186 7.23186 13.3221 7.53356 12.9492L8.66668 11.5614H6.21319C5.81078 11.5614 5.80642 11.167 5.80642 11.163C5.80642 10.9509 5.92196 10.8164 6.13624 10.7647H9.39891L9.59771 10.1805C9.60513 10.1585 10.3613 7.956 11.3765 6.6771L11.4053 6.63866C12.2533 5.43898 15.3202 5.0749 17.0543 5.12743L17.0822 5.12828L17.1101 5.12743C18.2726 5.08942 21.8052 5.2895 22.7587 6.63887L22.7872 6.6771C23.1373 7.11785 23.4571 7.67049 23.7261 8.20584C24.1778 7.83991 24.6807 7.53939 25.2196 7.31345C24.9224 6.73796 24.5708 6.14431 24.178 5.64591C22.53 3.3546 17.7551 3.40158 17.0822 3.41909C16.4097 3.40073 11.6359 3.35183 9.98596 5.64591C9.14059 6.71831 8.48226 8.23339 8.15985 9.05617H6.05319L5.92981 9.06471C5.28412 9.15546 4.0625 9.71003 4.0625 11.1632C4.0625 11.9627 4.54208 12.7833 5.37982 13.116C5.03234 13.7844 4.70187 14.6548 4.70187 15.5474V19.9314C4.70187 21.42 4.93969 23.9172 6.53299 23.9172H9.44469L9.62104 23.836C9.93124 23.6932 10.8782 23.0491 11.0532 20.5007H15.5935C15.2212 19.9775 14.9553 19.3839 14.7822 18.7924L9.33722 18.7922Z"/>
</svg>
