<svg width="33" height="32" viewBox="0 0 33 32" fill="none" xmlns="http://www.w3.org/2000/svg">
<path d="M6.01196 29.0187C5.20435 29.0187 4.44499 28.7106 3.87386 28.1512C3.30282 27.5917 2.98828 26.8479 2.98828 26.0567C2.98828 25.2656 3.30282 24.5217 3.87386 23.9622L11.8739 16.1255L12.8167 17.0491L4.81673 24.8859C4.4974 25.1986 4.32162 25.6144 4.32162 26.0567C4.32162 26.499 4.4974 26.9148 4.81673 27.2276C5.13599 27.5404 5.56047 27.7126 6.01196 27.7126C6.46346 27.7126 6.88794 27.5404 7.2072 27.2276L15.2072 19.3908L16.1501 20.3145L8.15007 28.1512C7.57894 28.7106 6.81958 29.0187 6.01196 29.0187ZM24.6214 10.7098H26.7405L29.5866 5.61444L26.8801 2.96321L21.6786 5.75124V7.82705L17.2072 12.2071L18.1501 13.1308L23.012 8.36802V6.52547L26.6438 4.5788L27.9373 5.84594L25.9501 9.40366H24.0692L19.2072 14.1663L20.1501 15.09L24.6214 10.7098ZM29.6786 23.8526C29.6786 23.9364 29.6762 24.0195 29.6722 24.1023C29.6707 24.1319 29.668 24.1613 29.6661 24.1909C29.6626 24.2434 29.659 24.2959 29.6539 24.348C29.6503 24.3849 29.6456 24.4216 29.6412 24.4584C29.6359 24.502 29.6306 24.5455 29.6242 24.5888C29.6181 24.6306 29.6111 24.6723 29.6039 24.7139C29.5976 24.7504 29.5911 24.7867 29.584 24.8229C29.5749 24.8697 29.5651 24.9163 29.5546 24.9628C29.5481 24.9919 29.5412 25.0208 29.5341 25.0496C29.5214 25.1018 29.5081 25.1538 29.4937 25.2056C29.488 25.2264 29.4818 25.2469 29.4757 25.2676C29.4586 25.3261 29.441 25.3844 29.4217 25.4424C29.4181 25.4533 29.4142 25.4641 29.4105 25.4749C29.3881 25.5408 29.3648 25.6064 29.3397 25.6715L29.3393 25.6724C29.2211 25.9784 29.0743 26.2706 28.9015 26.5455L25.8739 23.5798C25.3986 23.1142 24.6253 23.1142 24.1501 23.5798C23.6748 24.0453 23.6748 24.8028 24.1501 25.2684L27.1776 28.2342C26.8975 28.4032 26.5999 28.5467 26.2882 28.6624L26.2853 28.6635C26.2181 28.6884 26.1503 28.7115 26.0823 28.7336C26.0723 28.7369 26.0624 28.7403 26.0524 28.7435C25.9923 28.7627 25.9319 28.7803 25.8713 28.7972C25.8511 28.8029 25.831 28.8087 25.8108 28.8141C25.7572 28.8284 25.7033 28.8416 25.6493 28.8542C25.6206 28.8609 25.5918 28.8675 25.5629 28.8738C25.5148 28.8842 25.4666 28.8939 25.4183 28.903C25.3819 28.9098 25.3453 28.9161 25.3086 28.9221C25.2657 28.9293 25.2228 28.9362 25.1797 28.9423C25.1359 28.9484 25.0917 28.9536 25.0476 28.9587C25.0098 28.9631 24.9721 28.9677 24.9341 28.9713C24.8811 28.9762 24.8277 28.9798 24.7743 28.9832C24.744 28.9851 24.7138 28.9877 24.6835 28.9892C24.599 28.9931 24.5141 28.9955 24.4286 28.9955C21.5338 28.9955 19.1786 26.6884 19.1786 23.8526C19.1786 23.7664 19.181 23.6805 19.1853 23.5951C19.1853 23.5941 19.1854 23.5931 19.1855 23.5922C19.1902 23.4995 19.1979 23.4075 19.2076 23.3159C19.2093 23.3018 19.211 23.2876 19.2127 23.2734C19.2127 23.2733 19.2127 23.2731 19.2127 23.2729C19.2209 23.2014 19.2303 23.1302 19.2415 23.0593C19.244 23.0448 19.2465 23.0304 19.2489 23.0159C19.2489 23.0159 19.2489 23.0158 19.2489 23.0157C19.2587 22.9568 19.2691 22.8981 19.281 22.8397C19.281 22.8397 19.281 22.8396 19.281 22.8397C19.283 22.8301 19.2852 22.8205 19.2873 22.8109C19.3021 22.7406 19.3181 22.6707 19.336 22.6011C19.336 22.6011 19.336 22.6011 19.336 22.6011C19.3449 22.5664 19.3546 22.5318 19.3642 22.4973C19.3642 22.4973 19.3642 22.4972 19.3642 22.4973C19.376 22.4553 19.3879 22.4131 19.4007 22.3714C19.4007 22.3714 19.4007 22.3714 19.4007 22.3714C19.4144 22.3269 19.429 22.2827 19.4439 22.2385C19.4439 22.2385 19.444 22.2385 19.4439 22.2385C19.4719 22.156 19.5019 22.074 19.5343 21.9927C19.5353 21.9902 19.5362 21.9875 19.5372 21.9849C19.5412 21.975 19.5445 21.9649 19.5486 21.955L19.0231 21.4402L17.512 19.9599L15.9024 18.3832L10.1991 12.7964C10.189 12.8003 10.1787 12.8036 10.1686 12.8075C10.1659 12.8085 10.1632 12.8094 10.1606 12.8104C10.0776 12.8421 9.99397 12.8714 9.90978 12.8988C9.9098 12.8988 9.90976 12.8988 9.90978 12.8988C9.86473 12.9135 9.8195 12.9278 9.77412 12.9412C9.77414 12.9412 9.7741 12.9412 9.77412 12.9412C9.73152 12.9538 9.6886 12.9654 9.6457 12.9769C9.64575 12.9769 9.64565 12.9769 9.6457 12.9769C9.61043 12.9864 9.57505 12.9959 9.5396 13.0046C9.53962 13.0046 9.53958 13.0046 9.5396 13.0046C9.46861 13.0221 9.39713 13.0378 9.32539 13.0523C9.31563 13.0543 9.3059 13.0565 9.2961 13.0585C9.29613 13.0585 9.29608 13.0585 9.2961 13.0585C9.23648 13.0702 9.17644 13.0803 9.11633 13.0899C9.11625 13.0899 9.11616 13.0899 9.11608 13.09C9.10133 13.0923 9.08659 13.0947 9.07186 13.0972C8.99949 13.1081 8.92676 13.1174 8.85373 13.1254C8.85355 13.1254 8.85339 13.1254 8.85322 13.1254C8.83875 13.127 8.82431 13.1287 8.80988 13.1304C8.71634 13.1399 8.62241 13.1475 8.52787 13.152C8.52687 13.1521 8.52588 13.1522 8.52488 13.1522C8.43763 13.1564 8.35002 13.1588 8.26196 13.1588C5.36711 13.1588 3.01196 10.8517 3.01196 8.0159C3.01196 7.93217 3.01437 7.84899 3.01841 7.76623C3.01986 7.73662 3.02255 7.70719 3.02452 7.67766C3.02801 7.62512 3.03163 7.57261 3.03671 7.52052C3.04033 7.48363 3.04501 7.44693 3.04944 7.41017C3.05467 7.36658 3.06002 7.32301 3.06635 7.27976C3.07251 7.23794 3.07948 7.19626 3.08669 7.15462C3.09297 7.11818 3.09951 7.08184 3.10656 7.04566C3.11571 6.99887 3.1255 6.95221 3.136 6.90569C3.14252 6.87665 3.14942 6.84775 3.15644 6.8189C3.16919 6.76674 3.18244 6.7147 3.19688 6.66291C3.20264 6.64216 3.20883 6.62159 3.21484 6.60094C3.23195 6.54248 3.2496 6.48412 3.26886 6.42617C3.27248 6.41526 3.27643 6.40448 3.28011 6.3936C3.30249 6.32776 3.32575 6.26215 3.35091 6.19703L3.35124 6.19615C3.46949 5.89014 3.61625 5.59796 3.78911 5.32303L6.81673 8.28878C7.29199 8.75434 8.06526 8.75434 8.54052 8.28878C9.01578 7.82322 9.01578 7.06573 8.54052 6.60017L5.51299 3.63434C5.79307 3.46535 6.0907 3.32187 6.40237 3.20615L6.40527 3.20508C6.47253 3.18016 6.5403 3.15706 6.60831 3.13491C6.61832 3.13166 6.6282 3.12819 6.63823 3.12499C6.69827 3.10583 6.75872 3.08827 6.81929 3.07129C6.83947 3.06566 6.85957 3.05986 6.87983 3.05445C6.93342 3.0401 6.98727 3.02695 7.04125 3.01431C7.06999 3.0076 7.09878 3.001 7.12771 2.99476C7.17575 2.98434 7.22395 2.97464 7.27228 2.96557C7.3087 2.95876 7.34528 2.95246 7.38195 2.94639C7.42486 2.93925 7.46781 2.93236 7.51091 2.92628C7.55473 2.92013 7.59885 2.91491 7.64301 2.90983C7.68079 2.90545 7.71853 2.90084 7.75645 2.89727C7.80946 2.89231 7.86288 2.88876 7.91633 2.88536C7.94661 2.88343 7.97679 2.88079 8.00714 2.87937C8.0916 2.87541 8.17649 2.87305 8.26196 2.87305C11.1568 2.87305 13.512 5.18013 13.512 8.0159C13.512 8.10216 13.5096 8.18799 13.5053 8.27346C13.5053 8.27443 13.5051 8.27541 13.5051 8.27638C13.5004 8.369 13.4927 8.46101 13.483 8.55263C13.4813 8.56677 13.4796 8.58092 13.4779 8.59509C13.4779 8.59526 13.4779 8.59542 13.4779 8.59559C13.4697 8.66713 13.4603 8.73838 13.4491 8.80927C13.4466 8.8237 13.4441 8.83814 13.4417 8.85259C13.4417 8.85267 13.4417 8.85276 13.4417 8.85284C13.4319 8.91172 13.4215 8.97047 13.4096 9.02888C13.4096 9.02886 13.4096 9.0289 13.4096 9.02888C13.4076 9.03847 13.4054 9.04806 13.4032 9.05763C13.3885 9.1279 13.3725 9.19787 13.3546 9.26742C13.3546 9.2674 13.3546 9.26744 13.3546 9.26742C13.3457 9.30215 13.336 9.33671 13.3264 9.37126C13.3264 9.37121 13.3264 9.37131 13.3264 9.37126C13.3146 9.41329 13.3027 9.45541 13.2899 9.49714C13.2899 9.49712 13.2899 9.49716 13.2899 9.49714C13.2762 9.54159 13.2616 9.58589 13.2466 9.63002C13.2467 9.63 13.2466 9.63004 13.2466 9.63002C13.2187 9.71249 13.1887 9.79451 13.1563 9.8758C13.1553 9.87839 13.1544 9.88101 13.1534 9.8836C13.1494 9.89353 13.146 9.90363 13.142 9.91354L15.1786 11.9086L17.1786 13.8678L21.9548 18.5465L22.4915 19.0722C22.5016 19.0682 22.5119 19.0649 22.522 19.061C22.5247 19.06 22.5273 19.0591 22.53 19.0581C22.613 19.0264 22.6966 18.9971 22.7808 18.9697C22.7808 18.9697 22.7808 18.9697 22.7808 18.9697C22.8259 18.955 22.8711 18.9408 22.9165 18.9274C22.9165 18.9274 22.9165 18.9273 22.9165 18.9274C22.9591 18.9148 23.002 18.9031 23.0449 18.8916C23.0448 18.8916 23.0449 18.8916 23.0449 18.8916C23.0802 18.8822 23.1155 18.8726 23.151 18.8639C23.151 18.8639 23.151 18.8639 23.151 18.8639C23.222 18.8464 23.2935 18.8308 23.3652 18.8163C23.375 18.8142 23.3847 18.812 23.3945 18.8101C23.3945 18.8101 23.3945 18.8101 23.3945 18.8101C23.4541 18.7984 23.5142 18.7883 23.5743 18.7786C23.5743 18.7786 23.5744 18.7786 23.5745 18.7786C23.5893 18.7762 23.604 18.7738 23.6187 18.7714C23.6911 18.7604 23.7638 18.7512 23.8369 18.7432C23.837 18.7432 23.8372 18.7431 23.8374 18.7431C23.8518 18.7415 23.8663 18.7398 23.8807 18.7381C23.9743 18.7287 24.0682 18.7211 24.1627 18.7165C24.1637 18.7165 24.1647 18.7163 24.1657 18.7163C24.253 18.7121 24.3406 18.7098 24.4286 18.7098C27.3235 18.7098 29.6786 21.0169 29.6786 23.8526ZM28.3453 23.8526C28.3453 21.737 26.5883 20.0159 24.4286 20.0159C23.8035 20.0159 23.205 20.1569 22.6495 20.435L22.2176 20.6511L20.2026 18.6772C20.2026 18.6772 20.2026 18.6772 20.2026 18.6772L17.2406 15.7757L17.1786 15.715L11.5302 10.1818L11.7508 9.75873C12.0347 9.21456 12.1786 8.62823 12.1786 8.0159C12.1786 5.90031 10.4216 4.17917 8.26196 4.17917C8.16284 4.17917 8.06405 4.18276 7.96582 4.19001L9.4834 5.67654C9.96541 6.14879 10.231 6.77667 10.231 7.44447C10.231 8.11228 9.96541 8.74015 9.4834 9.21241C9.0013 9.68459 8.36035 9.94471 7.67863 9.94471C6.99691 9.94471 6.35596 9.68459 5.87386 9.21241L4.35636 7.7258C4.34896 7.82203 4.3453 7.91873 4.3453 8.0159C4.3453 10.1315 6.10229 11.8526 8.26196 11.8526C8.88704 11.8526 9.4856 11.7116 10.0411 11.4336L10.473 11.2174L19.1506 19.7178C19.1506 19.7178 19.1505 19.7178 19.1506 19.7178L21.1604 21.6867L20.9398 22.1098C20.6559 22.654 20.512 23.2403 20.512 23.8526C20.512 25.9682 22.269 27.6894 24.4286 27.6894C24.5278 27.6894 24.6265 27.6858 24.7248 27.6785L23.2072 26.192C22.7252 25.7197 22.4596 25.0919 22.4596 24.4241C22.4596 23.7563 22.7252 23.1284 23.2072 22.6561C23.6893 22.1839 24.3302 21.9238 25.012 21.9238C25.6937 21.9238 26.3346 22.1839 26.8167 22.6561L28.3342 24.1427C28.3416 24.0465 28.3453 23.9498 28.3453 23.8526Z" fill="#007BC0"/>
</svg>
