<svg width="56" height="55" viewBox="0 0 56 55" fill="none" xmlns="http://www.w3.org/2000/svg">
<path d="M3.08301 20.15V52H24.4185V3H3.08301V20.15ZM23.1634 50.775H4.33803V25.05H23.1634V50.775ZM23.1634 23.825H4.33803V21.375H23.1634V23.825ZM23.1634 4.225V20.15H4.33803V4.225H23.1634ZM29.8822 10.783C34.4104 6.36263 37.1978 7.89081 40.4269 9.6591C42.1074 10.5797 43.9059 11.564 45.9842 11.564C47.8743 11.564 49.9972 10.7494 52.4727 8.33304L52.9163 7.9L52.029 7.03393L51.5854 7.46696C47.0566 11.8868 44.2698 10.358 41.0407 8.5909C37.8316 6.83303 34.1945 4.8424 28.9949 9.91696L28.5513 10.35L29.4386 11.2161L29.8822 10.783ZM51.5854 13.592C47.0566 18.0118 44.2698 16.483 41.0407 14.7159C37.8316 12.958 34.1945 10.9674 28.9949 16.042L28.5513 16.475L29.4386 17.3411L29.8822 16.908C34.4104 12.487 37.1978 14.017 40.4269 15.7841C42.1074 16.7047 43.9059 17.689 45.9842 17.689C47.8743 17.689 49.9972 16.8744 52.4727 14.458L52.9163 14.025L52.029 13.1589L51.5854 13.592ZM51.5854 20.3295C47.0566 24.7499 44.2698 23.2205 41.0407 21.4534C37.8316 19.6955 34.1945 17.7049 28.9949 22.7795L28.5513 23.2125L29.4386 24.0786L29.8822 23.6455C34.4104 19.2251 37.1978 20.7545 40.4269 22.5216C42.1074 23.4422 43.9059 24.4265 45.9842 24.4265C47.8743 24.4265 49.9972 23.6119 52.4727 21.1955L52.9163 20.7625L52.029 19.8964L51.5854 20.3295Z" fill="black"/>
</svg>
