<svg width="71" height="72" viewBox="0 0 71 72" fill="none" xmlns="http://www.w3.org/2000/svg">
<path d="M39.9785 38.2113H43.5618L38.1868 45.3779L39.9785 40.0029H36.3952L41.7702 32.8363L39.9785 38.2113ZM49.8327 23.8779V54.3363H30.1243V50.7529H27.289C25.3948 50.7529 23.8535 49.2262 23.8535 47.3494V34.5106C22.3089 34.1119 21.166 32.7138 21.166 31.0446V29.2529H22.0618V26.5654H23.8535V29.2529H25.6452V26.5654H27.4368V29.2529H28.3327V31.0446C28.3327 32.7138 27.1898 34.1122 25.6452 34.5106V47.3494C25.6452 48.2381 26.3827 48.9613 27.289 48.9613H30.1243V23.8779H34.6035V18.5029H45.3535V23.8779H49.8327ZM36.3952 23.8779H43.5618V20.2946H36.3952V23.8779ZM48.041 25.6696H31.916V52.5446H48.041V25.6696Z" fill="#007BC0"/>
<rect x="0.75" y="1.66992" width="69.5" height="69.5" rx="34.75" stroke="#007BC0" stroke-width="1.5"/>
</svg>
