<svg width="12" height="18" viewBox="0 0 12 18" fill="none" xmlns="http://www.w3.org/2000/svg">
<path d="M11.9745 5.87086C11.9521 5.3312 11.6783 4.85779 11.2464 4.56258C10.7583 4.22849 10.1422 4.30733 9.58694 4.30733C9.56765 3.70143 9.70611 3.00625 9.30795 2.49971C9.15572 2.30603 8.94837 2.17138 8.71795 2.10442C8.43001 2.02054 8.10797 2.05834 7.81245 2.05834C7.81245 1.51184 7.89166 0.915663 7.54448 0.458088C7.17043 -0.0351273 6.60316 0.00663399 6.06034 0.00627398C5.45415 0.00627398 4.8483 0.00591397 4.24211 0.00627398C3.70686 0.00627398 3.13305 -0.0732885 2.70492 0.334244C2.49999 0.52937 2.35774 0.790379 2.31917 1.07875C2.2768 1.39772 2.30608 1.73685 2.30608 2.05834C2.04535 2.05834 1.76739 2.03098 1.50976 2.08102C1.28692 2.12458 1.0744 2.2441 0.911144 2.40719C0.74203 2.57603 0.616656 2.79168 0.564647 3.03109C0.502995 3.3155 0.534338 3.62475 0.534338 3.91384C0.534338 4.22597 0.51884 4.54062 0.557761 4.85095C0.59427 5.14184 0.633533 5.43236 0.672109 5.72289C0.752016 6.32807 0.830547 6.93325 0.91011 7.53843C1.07199 8.77363 1.23628 10.0085 1.39575 11.244C1.41435 11.3891 1.43674 11.5342 1.45258 11.6796C1.46946 11.8344 1.35786 11.9172 1.26625 12.0296C1.07819 12.2607 0.889787 12.4915 0.702419 12.7233C0.528138 12.939 0.343869 13.1503 0.220564 13.4037C0.107936 13.6356 0.043184 13.8883 0.0183852 14.1464C-0.0136466 14.4838 0.00598598 14.8297 0.00564155 15.1685C0.00564155 15.5267 0.00564155 15.8853 0.00564155 16.2435C0.00564155 16.6017 0.00564155 16.9603 0.00564155 17.3185C0.00564155 17.4665 -0.0146802 17.6342 0.0524832 17.7703C0.117925 17.9032 0.21781 17.9438 0.346281 17.982C0.334226 17.9892 0.325271 17.9946 0.316316 18H9.82149C9.81667 17.9957 9.81185 17.9917 9.80427 17.9852C10.2327 17.8855 10.1504 17.4056 10.1508 17.0496C10.1508 16.5718 10.1515 16.0941 10.1515 15.6164C10.1515 14.7502 10.2686 13.8221 9.73332 13.0909C9.46742 12.7276 9.17569 12.3827 8.88982 12.0368C8.8292 11.9633 8.72656 11.8791 8.69315 11.7873C8.66215 11.7023 8.70107 11.5839 8.71278 11.4964C8.7424 11.2703 8.77099 11.0439 8.80233 10.8181C8.92633 9.92531 9.03964 9.03032 9.15158 8.13605C9.21461 7.63023 9.28315 7.12514 9.34928 6.62004C9.38132 6.37523 9.413 6.13043 9.444 5.88562C9.47672 5.62677 9.4843 5.34776 9.54871 5.09575C9.79635 5.09575 10.0436 5.09323 10.2913 5.09503C10.4825 5.09647 10.6616 5.10979 10.831 5.21168C10.9705 5.29592 11.0831 5.42408 11.1548 5.57493C11.2547 5.78482 11.245 6.00586 11.245 6.23411C11.245 7.29182 11.2323 8.35062 11.245 9.40833C11.2478 9.63478 11.3669 9.84646 11.6046 9.8551C11.8447 9.86374 11.958 9.66322 12 9.44721C12 8.22713 11.9769 5.87122 11.9749 5.87158L11.9745 5.87086ZM3.41479 0.804419C3.44544 0.798299 3.47713 0.794339 3.50813 0.794339C4.55485 0.793979 5.60156 0.795779 6.64828 0.792539C6.85838 0.791819 7.02887 0.990185 7.05023 1.14859C7.05402 1.17775 7.05884 1.20727 7.05884 1.23643C7.05953 1.49636 7.05918 1.75593 7.05918 2.01586V2.05546H3.06003V2.00254C3.06003 1.75413 3.06382 1.50572 3.05865 1.25767C3.05452 1.06075 3.20159 0.8469 3.41479 0.804059V0.804419ZM9.39716 14.2951C9.39888 14.3131 9.39785 14.3311 9.39785 14.3495C9.39785 15.2816 9.39785 16.214 9.39785 17.1461V17.208H0.762694C0.76166 17.1961 0.759595 17.1839 0.759595 17.1713C0.759595 16.2061 0.759595 15.2412 0.759595 14.276C0.759595 14.2285 0.764762 14.1817 0.777161 14.1346H9.36926C9.39027 14.1875 9.39268 14.2418 9.39785 14.2955L9.39716 14.2951ZM8.92116 13.304C8.92908 13.3137 8.93631 13.3242 8.94906 13.3411H1.19633C1.37233 13.1168 1.5504 12.8943 1.72606 12.6693C1.8101 12.5617 1.89069 12.4501 1.9768 12.3439C2.06256 12.2384 2.2024 12.2773 2.32778 12.2773C2.91227 12.2773 3.49677 12.2773 4.0816 12.2773C5.23337 12.2773 6.38479 12.2773 7.53656 12.2765C7.70154 12.2765 7.86893 12.2679 8.03392 12.2765C8.17237 12.2837 8.2354 12.4281 8.31634 12.5332C8.51577 12.7921 8.71553 13.0506 8.92116 13.3037V13.304ZM7.9571 11.4863H5.41385V11.0795C5.41385 10.8023 5.47309 10.6619 5.79582 10.6619H6.67101C6.88008 10.6619 7.04954 10.4848 7.04954 10.2662C7.04954 10.0477 6.88008 9.87058 6.67101 9.87058H5.79582C5.48308 9.87058 5.22545 9.95771 5.03498 10.119C4.84451 9.95735 4.58688 9.87058 4.27414 9.87058H3.39895C3.18988 9.87058 3.02042 10.0477 3.02042 10.2662C3.02042 10.4848 3.18988 10.6619 3.39895 10.6619H4.27414C4.52764 10.6619 4.65611 10.7263 4.65611 11.0795V11.4863H2.18794C1.91033 9.35865 1.63307 7.2317 1.3558 5.10583C1.36648 5.09287 1.36751 5.09539 1.39162 5.09539C3.85703 5.09539 6.32245 5.09539 8.79441 5.09539C8.51508 7.22882 8.23644 9.35613 7.95745 11.4867L7.9571 11.4863ZM8.83195 3.64023C8.83195 3.85047 8.83195 4.06036 8.83195 4.27061C8.83195 4.28033 8.83127 4.29005 8.83058 4.30517H1.28726C1.28726 3.96676 1.25833 3.61215 1.28726 3.27554C1.31275 2.97745 1.5566 2.8464 1.81492 2.8464C2.50791 2.8464 3.20124 2.8464 3.89423 2.8464C5.2716 2.8464 6.64931 2.8464 8.02668 2.84496C8.30877 2.84496 8.67765 2.78628 8.80406 3.12901C8.86089 3.28274 8.83195 3.4793 8.83195 3.64023ZM5.01638 16.9988C5.73176 17.0262 6.31832 16.4826 6.33829 15.6988C6.35793 14.9381 5.77722 14.3628 5.0894 14.3516C4.39572 14.3401 3.80537 14.9269 3.80399 15.6797C3.80089 16.3396 4.30342 16.9718 5.01604 16.9988H5.01638ZM5.07149 15.1336C5.51029 15.1289 5.74726 15.6927 5.46173 16.0358C5.15691 16.4023 4.55898 16.1729 4.55175 15.6876C4.54692 15.3629 4.79423 15.1282 5.07149 15.134V15.1336Z" fill="black"/>
</svg>
