<svg width="25" height="24" viewBox="0 0 25 24" fill="none" xmlns="http://www.w3.org/2000/svg">
<path d="M12.043 4.5C16.193 4.5 19.543 7.85 19.543 12C19.543 16.15 16.193 19.5 12.043 19.5C7.89297 19.5 4.54297 16.15 4.54297 12C4.54297 7.85 7.89297 4.5 12.043 4.5ZM12.043 4C7.61797 4 4.04297 7.575 4.04297 12C4.04297 16.425 7.61797 20 12.043 20C16.468 20 20.043 16.425 20.043 12C20.043 7.575 16.468 4 12.043 4Z" fill="black"/>
<path d="M14.7052 8.47478L14.3812 9.18278C13.8532 8.54678 13.2172 8.23478 12.4612 8.23478C11.7292 8.23478 11.1292 8.49878 10.6612 9.03878C10.2532 9.50678 9.97717 10.1308 9.83317 10.8868H13.8292L13.6132 11.4268H9.76117C9.73717 11.6308 9.72517 11.8108 9.72517 11.9428V12.0388C9.72517 12.0748 9.72517 12.0988 9.73717 12.1348H13.3852L13.1572 12.6748H9.77317C9.88117 13.5148 10.1332 14.1868 10.5292 14.7028C11.0092 15.3028 11.6452 15.6028 12.4252 15.6028C12.8452 15.6028 13.2292 15.5068 13.5772 15.3268C13.8532 15.1708 14.1652 14.9188 14.5132 14.5708V15.4948C13.9012 16.0108 13.1932 16.2748 12.4012 16.2748C11.4052 16.2748 10.5892 15.9148 9.97717 15.2068C9.43717 14.5708 9.11317 13.7308 8.99317 12.6748H8.20117L8.42917 12.1348H8.95717C8.94517 12.0988 8.94517 12.0628 8.94517 12.0268V11.8948C8.94517 11.7628 8.95717 11.6188 8.96917 11.4268H8.20117L8.41717 10.8868H9.02917C9.20917 9.89078 9.58117 9.11078 10.1332 8.53478C10.7452 7.87478 11.5252 7.55078 12.4732 7.55078C13.4692 7.55078 14.2132 7.86278 14.7052 8.47478Z" fill="black"/>
</svg>
