<svg width="58" height="57" viewBox="0 0 58 57" fill="#007BC0" xmlns="http://www.w3.org/2000/svg">
<path d="M38.334 51.9518H28.834V27.4518H38.334V51.9518ZM31.209 49.6185H35.959V29.7852H31.209V49.6185ZM52.584 51.9518H43.084V14.6185H52.584V51.9518ZM45.459 49.6185H50.209V16.9518H45.459V49.6185ZM24.084 51.9518H14.584V40.2852H24.084V51.9518ZM16.959 49.6185H21.709V42.6185H16.959V49.6185ZM19.9574 13.9185L19.5418 13.306C17.7605 10.5935 16.6324 8.72682 16.6324 8.72682L14.584 5.28516L12.5355 8.72682C12.5355 8.72682 11.4074 10.5935 9.62617 13.306L9.21055 13.9185C7.36992 16.6893 5.08398 20.1018 5.08398 23.9227C5.08398 27.7435 9.35898 33.2852 14.584 33.2852C19.809 33.2852 24.084 29.0852 24.084 23.9227C24.084 18.7602 21.798 16.6602 19.9574 13.9185ZM14.584 30.9518C10.6652 30.9518 7.45898 27.8018 7.45898 23.9227C7.45898 20.0435 9.18086 18.4685 10.5465 16.3977L10.8434 15.931C12.1793 13.8893 13.0105 12.5185 13.0402 12.4893L14.584 9.92266L16.1277 12.4893C16.1277 12.4893 16.959 13.8893 18.3246 15.931L18.6215 16.3977C20.0168 18.4685 21.709 21.0643 21.709 23.9227C21.709 26.781 18.5027 30.9518 14.584 30.9518Z" />
</svg>
