<svg width="72" height="72" viewBox="0 0 72 72" fill="none" xmlns="http://www.w3.org/2000/svg">
<path d="M29.1676 50.4518H22.001V36.1185H29.1676V50.4518ZM23.7926 48.6602H27.376V37.9102H23.7926V48.6602ZM39.0218 50.4518H31.8551V28.9518H39.0218V50.4518ZM33.6468 48.6602H37.2301V30.7435H33.6468V48.6602ZM53.0929 45.3391L47.9801 40.2266L42.8674 45.3391L44.1346 46.6062L47.0843 43.6563V54.0352H48.876V43.6563L51.8257 46.6062L53.0929 45.3391ZM43.501 23.5768H47.0843V38.4349L47.9801 37.5391L48.876 38.4349V21.7852H41.7093V43.8099L43.501 42.0182V23.5768Z" fill="#007BC0"/>
<rect x="1.58398" y="1.36914" width="69.5" height="69.5" rx="34.75" stroke="#007BC0" stroke-width="1.5"/>
</svg>
