<svg width="25" height="24" viewBox="0 0 25 24" fill="none" xmlns="http://www.w3.org/2000/svg">
<path d="M18.793 2.5V21.5H5.79297V2.5H18.793ZM19.293 2H5.29297V22H19.293V2Z" fill="black"/>
<path d="M7.29297 6.5H13.043V7H7.29297V6.5ZM7.29297 7.75H11.043V8.25H7.29297V7.75ZM17.293 9H14.043V5.75H17.293V9ZM14.543 8.5H16.793V6.25H14.543V8.5Z" fill="black"/>
<path d="M15.8137 8.12425L14.8662 7.17675L15.2197 6.82325L15.7722 7.37575L17.5977 5.09375L17.9882 5.40625L15.8137 8.12425ZM7.29297 15.5H13.043V16H7.29297V15.5ZM7.29297 16.75H11.043V17.25H7.29297V16.75ZM17.293 18H14.043V14.75H17.293V18ZM14.543 17.5H16.793V15.25H14.543V17.5Z" fill="black"/>
<path d="M15.8137 17.1243L14.8662 16.1768L15.2197 15.8232L15.7722 16.3757L17.5977 14.0938L17.9882 14.4062L15.8137 17.1243ZM7.29297 11H13.043V11.5H7.29297V11ZM7.29297 12.25H11.043V12.75H7.29297V12.25ZM17.293 13.5H14.043V10.25H17.293V13.5ZM14.543 13H16.793V10.75H14.543V13Z" fill="black"/>
<path d="M15.8147 12.6243L14.8672 11.6768L15.2207 11.3233L15.7732 11.8757L17.5987 9.59375L17.9892 9.90625L15.8147 12.6243Z" fill="black"/>
<path d="M18.793 2.5V21.5H5.79297V2.5H18.793ZM19.293 2H5.29297V22H19.293V2Z" fill="black"/>
<path d="M7.29297 6.5H13.043V7H7.29297V6.5ZM7.29297 7.75H11.043V8.25H7.29297V7.75ZM17.293 9H14.043V5.75H17.293V9ZM14.543 8.5H16.793V6.25H14.543V8.5Z" fill="black"/>
<path d="M15.8137 8.12425L14.8662 7.17675L15.2197 6.82325L15.7722 7.37575L17.5977 5.09375L17.9882 5.40625L15.8137 8.12425ZM7.29297 15.5H13.043V16H7.29297V15.5ZM7.29297 16.75H11.043V17.25H7.29297V16.75ZM17.293 18H14.043V14.75H17.293V18ZM14.543 17.5H16.793V15.25H14.543V17.5Z" fill="black"/>
<path d="M15.8137 17.1243L14.8662 16.1768L15.2197 15.8232L15.7722 16.3757L17.5977 14.0938L17.9882 14.4062L15.8137 17.1243ZM7.29297 11H13.043V11.5H7.29297V11ZM7.29297 12.25H11.043V12.75H7.29297V12.25ZM17.293 13.5H14.043V10.25H17.293V13.5ZM14.543 13H16.793V10.75H14.543V13Z" fill="black"/>
<path d="M15.8147 12.6243L14.8672 11.6768L15.2207 11.3233L15.7732 11.8757L17.5987 9.59375L17.9892 9.90625L15.8147 12.6243Z" fill="black"/>
</svg>
