<svg width="71" height="72" viewBox="0 0 71 72" fill="none" xmlns="http://www.w3.org/2000/svg">
<path d="M33.7164 35.4159C33.2691 35.488 32.8168 35.5243 32.3637 35.5245C27.6711 35.5245 23.8535 31.7069 23.8535 27.0143C23.8535 22.3217 27.6711 18.5039 32.3639 18.5039C36.4769 18.5039 39.9174 21.4371 40.7046 25.3212C40.1199 25.5195 39.5544 25.7702 39.0148 26.0703C38.5544 22.8113 35.7482 20.2956 32.3637 20.2956C28.6592 20.2956 25.6452 23.3096 25.6452 27.0143C25.6452 30.719 28.6592 33.7331 32.3639 33.7331C32.8634 33.7331 33.3498 33.6764 33.8185 33.5725C33.745 34.0705 33.708 34.5732 33.7077 35.0766C33.7077 35.1904 33.7126 35.3032 33.7162 35.4161L33.7164 35.4159ZM42.2145 38.5755L47.0106 37.6613L46.7886 36.4978L43.9224 37.0443C44.6404 36.3877 45.0006 36.015 45.3161 35.5628C45.9669 34.6547 46.1972 33.807 46.0294 32.9268C45.7808 31.6214 44.7459 30.9757 43.3173 31.2478C42.0311 31.4933 41.38 32.2446 41.2699 33.5696L42.6557 33.6388C42.7171 32.8818 42.9623 32.5212 43.4729 32.424C44.0122 32.3212 44.3912 32.6119 44.5029 33.1985C44.6418 33.9268 44.3585 34.755 43.6685 35.6611C43.2118 36.2481 42.9504 36.5234 41.9944 37.4214L42.2145 38.5755ZM31.4645 42.9523C31.5021 44.0246 30.951 44.7043 30.0639 45.3608L30.5942 46.0635C31.2123 45.7493 31.8334 45.2712 32.1492 44.83L34.4055 49.2679L35.7363 48.5916L32.5807 42.385L31.4645 42.9523ZM31.9055 23.5056C31.4038 24.4543 30.5875 24.7694 29.4912 24.8966L29.6012 25.77C30.2937 25.8054 31.0703 25.7001 31.564 25.4746L31.3111 30.4469L32.8018 30.5231L33.1559 23.5694L31.9055 23.5056ZM52.52 35.0766C52.52 30.3838 48.7024 26.5662 44.0098 26.5662C39.3172 26.5662 35.4993 30.3838 35.4993 35.0766C35.4993 39.7694 39.3172 43.587 44.0098 43.587C48.7024 43.587 52.52 39.7692 52.52 35.0766ZM50.7283 35.0766C50.7283 38.7813 47.7145 41.7953 44.0098 41.7953C40.305 41.7953 37.291 38.7813 37.291 35.0766C37.291 31.3719 40.305 28.3578 44.0098 28.3578C47.7145 28.3578 50.7285 31.3719 50.7285 35.0766H50.7283ZM39.8455 44.4961C39.9322 44.9263 39.9783 45.3713 39.9783 45.8268C39.9783 49.5315 36.9643 52.5453 33.2595 52.5453C29.5548 52.5453 26.5408 49.5315 26.5408 45.8266C26.5408 42.1217 29.5553 39.1078 33.2595 39.1078C33.7151 39.1078 34.1599 39.154 34.5903 39.2407C34.32 38.6316 34.11 37.9975 33.9632 37.3475C33.7292 37.3274 33.4944 37.317 33.2595 37.3162C28.5669 37.3162 24.7491 41.1338 24.7491 45.8266C24.7491 50.5194 28.5669 54.3368 33.2595 54.3368C37.9521 54.3368 41.77 50.5192 41.77 45.8264C41.77 45.5894 41.7576 45.3552 41.7386 45.1229C41.0886 44.9761 40.4546 44.7661 39.8455 44.4958V44.4961Z" fill="#007BC0"/>
<rect x="0.75" y="1.66992" width="69.5" height="69.5" rx="34.75" stroke="#007BC0" stroke-width="1.5"/>
</svg>
