<svg width="25" height="24" viewBox="0 0 25 24" fill="none" xmlns="http://www.w3.org/2000/svg">
<path d="M15.166 22H2.16602V12.5487L8.67452 5.778L15.166 12.5491V22ZM3.16602 21H14.166V12.951L8.67352 7.22213L3.16602 12.9513V21ZM17.4154 9C16.1748 9 15.1654 7.99062 15.1654 6.75C15.1654 5.50938 16.1748 4.5 17.4154 4.5C18.656 4.5 19.6654 5.50938 19.6654 6.75C19.6654 7.99062 18.656 9 17.4154 9ZM17.4154 5.5C16.7261 5.5 16.1654 6.06087 16.1654 6.75C16.1654 7.43913 16.7261 8 17.4154 8C18.1046 8 18.6654 7.43925 18.6654 6.75C18.6654 6.06075 18.1046 5.5 17.4154 5.5ZM17.9154 2H16.9154V3.5H17.9154V2ZM17.9154 10H16.9154V11.5H17.9154V10ZM22.1685 6.25H20.666V7.25H22.1685V6.25ZM14.1673 6.25H12.6648V7.25H14.1673V6.25ZM9.66602 11.1515L5.91602 16.1213H8.41602L7.16602 19.8485L10.916 14.8787H8.41602L9.66602 11.1515ZM15.473 9.4025L14.766 8.6955L13.7053 9.75613L14.4124 10.4631L15.473 9.4025ZM21.1299 3.74563L20.4229 3.03863L19.3621 4.09925L20.0691 4.80625L21.1299 3.74563ZM15.4725 4.09875L14.41 3.03638L13.703 3.7435L14.7655 4.80587L15.4725 4.09875ZM21.1303 9.75663L20.0678 8.69413L19.3608 9.40112L20.4233 10.4636L21.1303 9.75663Z" fill="#007BC0"/>
</svg>