<svg width="56" height="55" viewBox="0 0 56 55" fill="none" xmlns="http://www.w3.org/2000/svg">
<path d="M2.08301 19.85V53H24.1122V2H2.08301V19.85ZM22.8163 51.725H3.37884V24.95H22.8163V51.725ZM22.8163 23.675H3.37884V21.125H22.8163V23.675ZM22.8163 3.275V19.85H3.37884V3.275H22.8163ZM53.9163 23.675H46.1413V10.925H27.9997V12.2H44.8455V23.675H42.2538V14.75H27.9997V16.025H40.958V23.675H27.9997V24.95H40.958V49.8125C40.958 50.9154 41.4997 53 43.5497 53C45.5997 53 46.1413 50.9154 46.1413 49.8125V24.95H53.9163V23.675ZM44.8455 49.8106C44.8449 49.8884 44.8189 51.725 43.5497 51.725C42.2804 51.725 42.2545 49.889 42.2538 49.8125V24.95H44.8455V49.8106Z" fill="black"/>
</svg>
