<svg width="42" height="42" viewBox="0 0 42 42" fill="#007BC0" xmlns="http://www.w3.org/2000/svg">
<path d="M38.44 6.89941V35.9411C38.44 37.3541 37.2666 38.5036 35.8241 38.5036H22.7447C21.3022 38.5036 20.1288 37.3541 20.1288 35.9411V26.5452H21.8727V35.9411C21.8727 36.4122 22.2638 36.7952 22.7447 36.7952H35.8241C36.305 36.7952 36.6961 36.4122 36.6961 35.9411V6.89941C36.6961 6.42834 36.305 6.04525 35.8241 6.04525H22.7447C22.2638 6.04525 21.8727 6.42834 21.8727 6.89941V17.1494H20.1288V6.89941C20.1288 5.48641 21.3022 4.33691 22.7447 4.33691H35.8241C37.2666 4.33691 38.44 5.48641 38.44 6.89941ZM26.2325 22.2744H14.0251C13.0635 22.2744 12.2811 23.0408 12.2811 23.9827V35.9411C12.2811 36.4122 11.8901 36.7952 11.4092 36.7952C10.9283 36.7952 10.5372 36.4122 10.5372 35.9411V22.2744C10.5372 21.3325 11.3196 20.5661 12.2811 20.5661H26.2325V18.8577H12.2811C10.358 18.8577 8.7933 20.3905 8.7933 22.2744V35.9411C8.7933 37.3541 9.96674 38.5036 11.4092 38.5036C12.8516 38.5036 14.0251 37.3541 14.0251 35.9411V23.9827H26.2325V22.2744ZM15.769 32.5244H18.3849V30.8161H15.769V32.5244ZM3.56152 32.5244H7.04937V30.8161H3.56152V32.5244Z"/>
</svg>