<svg width="71" height="71" viewBox="0 0 71 71" fill="none" xmlns="http://www.w3.org/2000/svg">
<path d="M8 27.25V63H31.5475V8H8V27.25ZM30.1623 61.625H9.38515V32.75H30.1623V61.625ZM30.1623 31.375H9.38515V28.625H30.1623V31.375ZM30.1623 9.375V27.25H9.38515V9.375H30.1623ZM37.5777 16.7361C42.5753 11.7744 45.6517 13.4897 49.2157 15.4745C51.0704 16.5078 53.0553 17.6126 55.3491 17.6126C57.4352 17.6126 59.7781 16.6983 62.5103 13.9861L63 13.5L62.0207 12.5279L61.5311 13.0139C56.5327 17.9749 53.457 16.2589 49.8931 14.2755C46.3512 12.3024 42.3371 10.068 36.5984 15.7639L36.1088 16.25L37.0881 17.2221L37.5777 16.7361ZM61.5311 19.8889C56.5327 24.8499 53.457 23.1339 49.8931 21.1505C46.3512 19.1774 42.3371 16.943 36.5984 22.6389L36.1088 23.125L37.0881 24.0971L37.5777 23.6111C42.5753 18.6487 45.6517 20.3661 49.2157 22.3495C51.0704 23.3828 53.0553 24.4876 55.3491 24.4876C57.4352 24.4876 59.7781 23.5733 62.5103 20.8611L63 20.375L62.0207 19.4029L61.5311 19.8889ZM61.5311 27.4514C56.5327 32.4131 53.457 30.6964 49.8931 28.713C46.3512 26.7399 42.3371 24.5055 36.5984 30.2014L36.1088 30.6875L37.0881 31.6596L37.5777 31.1736C42.5753 26.2119 45.6517 27.9286 49.2157 29.912C51.0704 30.9453 53.0553 32.0501 55.3491 32.0501C57.4352 32.0501 59.7781 31.1357 62.5103 28.4236L63 27.9375L62.0207 26.9654L61.5311 27.4514Z" fill="black"/>
</svg>
