<svg width="42" height="42" viewBox="0 0 42 42" fill="#007BC0" xmlns="http://www.w3.org/2000/svg">
<path d="M10.5387 21.8545C7.24439 21.8545 4.86546 20.039 4.76562 19.9617L5.8462 18.6206C5.86582 18.636 7.86828 20.1462 10.5387 20.1462C12.4007 20.1462 13.4663 19.7575 14.5942 19.3456C15.8171 18.8993 17.0819 18.4378 19.2583 18.4378C22.5526 18.4378 24.9315 20.2534 25.0313 20.3307L23.9488 21.67C23.9309 21.6563 21.9287 20.1462 19.2583 20.1462C17.3962 20.1462 16.3307 20.5348 15.2028 20.9467C13.9799 21.393 12.7151 21.8545 10.5387 21.8545ZM15.2028 15.8217C16.3307 15.4098 17.3962 15.0212 19.2583 15.0212C21.9285 15.0212 23.9309 16.5313 23.9488 16.545L25.0313 15.2057C24.9315 15.1284 22.5528 13.3128 19.2583 13.3128C17.0819 13.3128 15.8171 13.7745 14.5942 14.2206C13.4663 14.6325 12.4007 15.0212 10.5387 15.0212C7.8685 15.0212 5.86604 13.511 5.8462 13.4956L4.76562 14.8367C4.86546 14.914 7.24418 16.7295 10.5387 16.7295C12.7151 16.7295 13.9799 16.2678 15.2028 15.8217ZM15.2028 10.6967C16.3307 10.2848 17.3962 9.89616 19.2583 9.89616C21.9285 9.89616 23.9309 11.4063 23.9488 11.42L25.0313 10.0807C24.9315 10.0034 22.5528 8.18783 19.2583 8.18783C17.0819 8.18783 15.8171 8.6495 14.5942 9.09559C13.4663 9.50751 12.4007 9.89616 10.5387 9.89616C7.8685 9.89616 5.86604 8.38599 5.8462 8.37062L4.76562 9.71166C4.86546 9.78896 7.24418 11.6045 10.5387 11.6045C12.7151 11.6045 13.9799 11.1428 15.2028 10.6967ZM34.0816 3.91699H21.0022C19.5598 3.91699 18.3863 5.06649 18.3863 6.47949V6.49593C18.6026 6.48526 18.8206 6.47949 19.0403 6.47949C19.4133 6.47949 19.7741 6.49957 20.1302 6.52882V6.47949C20.1302 6.00842 20.5213 5.62533 21.0022 5.62533H34.0816C34.5625 5.62533 34.9536 6.00842 34.9536 6.47949V35.5212C34.9536 35.9922 34.5625 36.3753 34.0816 36.3753H21.0022C20.5213 36.3753 20.1302 35.9922 20.1302 35.5212V21.926C19.7888 21.8773 19.4441 21.8542 19.0992 21.8568C18.855 21.859 18.6191 21.8767 18.3863 21.9025V35.5212C18.3863 36.9342 19.5598 38.0837 21.0022 38.0837H34.0816C35.5241 38.0837 36.6975 36.9342 36.6975 35.5212V6.47949C36.6975 5.06649 35.5241 3.91699 34.0816 3.91699Z"/>
</svg>