<svg width="71" height="72" viewBox="0 0 71 72" fill="none" xmlns="http://www.w3.org/2000/svg">
<path d="M24.7504 37.3154C21.366 37.3154 18.9219 35.4113 18.8193 35.3303L19.9295 33.9238C19.9497 33.9399 22.0069 35.5238 24.7504 35.5238C26.6635 35.5238 27.7582 35.1162 28.9169 34.6841C30.1734 34.2161 31.4728 33.7321 33.7088 33.7321C37.0932 33.7321 39.5373 35.6362 39.6398 35.7173L38.5277 37.1219C38.5093 37.1076 36.4522 35.5238 33.7088 35.5238C31.7957 35.5238 30.701 35.9314 29.5422 36.3634C28.2858 36.8315 26.9864 37.3154 24.7504 37.3154ZM29.5422 30.9884C30.701 30.5564 31.7957 30.1488 33.7088 30.1488C36.452 30.1488 38.5093 31.7326 38.5277 31.7469L39.6398 30.3423C39.5373 30.2612 37.0934 28.3571 33.7088 28.3571C31.4728 28.3571 30.1734 28.8413 28.9169 29.3091C27.7582 29.7412 26.6635 30.1488 24.7504 30.1488C22.0072 30.1488 19.9499 28.5649 19.9295 28.5488L18.8193 29.9553C18.9219 30.0363 21.3657 31.9404 24.7504 31.9404C26.9864 31.9404 28.2858 31.4562 29.5422 30.9884ZM29.5422 25.6134C30.701 25.1814 31.7957 24.7738 33.7088 24.7738C36.452 24.7738 38.5093 26.3576 38.5277 26.3719L39.6398 24.9673C39.5373 24.8862 37.0934 22.9821 33.7088 22.9821C31.4728 22.9821 30.1734 23.4663 28.9169 23.9341C27.7582 24.3662 26.6635 24.7738 24.7504 24.7738C22.0072 24.7738 19.9499 23.1899 19.9295 23.1738L18.8193 24.5803C18.9219 24.6613 21.3657 26.5654 24.7504 26.5654C26.9864 26.5654 28.2858 26.0812 29.5422 25.6134ZM48.9379 18.5029H35.5004C34.0185 18.5029 32.8129 19.7085 32.8129 21.1904V21.2077C33.0351 21.1965 33.259 21.1904 33.4848 21.1904C33.868 21.1904 34.2386 21.2115 34.6046 21.2422V21.1904C34.6046 20.6964 35.0064 20.2946 35.5004 20.2946H48.9379C49.432 20.2946 49.8338 20.6964 49.8338 21.1904V51.6488C49.8338 52.1428 49.432 52.5446 48.9379 52.5446H35.5004C35.0064 52.5446 34.6046 52.1428 34.6046 51.6488V37.3905C34.2538 37.3394 33.8997 37.3151 33.5453 37.3179C33.2944 37.3201 33.0521 37.3387 32.8129 37.3658V51.6488C32.8129 53.1307 34.0185 54.3363 35.5004 54.3363H48.9379C50.4199 54.3363 51.6254 53.1307 51.6254 51.6488V21.1904C51.6254 19.7085 50.4199 18.5029 48.9379 18.5029Z" fill="#007BC0"/>
<rect x="0.75" y="1.66992" width="69.5" height="69.5" rx="34.75" stroke="#007BC0" stroke-width="1.5"/>
</svg>