<svg width="41" height="40" viewBox="0 0 41 40" fill="none" xmlns="http://www.w3.org/2000/svg">
<g clip-path="url(#clip0_519_9368)">
<path d="M18.0859 28.7493H8.08594V9.16602H18.0859V28.7493ZM8.91927 27.916H17.2526V9.99935H8.91927V27.916Z" fill="black"/>
<path d="M15.1693 19.1667H14.3359V17.5H16.8359V18.3333H15.1693V19.1667ZM32.2526 28.75H21.0026V16.25H32.2526V28.75ZM21.8359 27.9167H31.4193V17.0833H21.8359V27.9167Z" fill="black"/>
<path d="M26.6283 27.5007C24.4616 27.5007 22.6699 25.709 22.6699 23.5423C22.6699 21.3757 24.4616 19.584 26.6283 19.584C28.7949 19.584 30.5866 21.3757 30.5866 23.5423C30.5866 25.709 28.7949 27.5007 26.6283 27.5007ZM26.6283 20.4173C24.9199 20.4173 23.5033 21.834 23.5033 23.5423C23.5033 25.2507 24.9199 26.6673 26.6283 26.6673C28.3366 26.6673 29.7533 25.2507 29.7533 23.5423C29.7533 21.834 28.3366 20.4173 26.6283 20.4173Z" fill="black"/>
<path d="M26.6283 25.8333C25.3783 25.8333 24.3366 24.7917 24.3366 23.5417C24.3366 22.2917 25.3783 21.25 26.6283 21.25C27.8783 21.25 28.9199 22.2917 28.9199 23.5417C28.9199 24.7917 27.8783 25.8333 26.6283 25.8333ZM26.6283 22.0833C25.8366 22.0833 25.1699 22.75 25.1699 23.5417C25.1699 24.3333 25.8366 25 26.6283 25C27.4199 25 28.0866 24.3333 28.0866 23.5417C28.0866 22.75 27.4199 22.0833 26.6283 22.0833ZM22.6699 18.3333H23.5033V19.1667H22.6699V18.3333ZM23.9199 18.3333H24.7533V19.1667H23.9199V18.3333ZM25.1699 18.3333H26.0033V19.1667H25.1699V18.3333ZM21.4199 17.5H31.8366V18.3333H21.4199V17.5ZM0.169922 27.9167H39.7533V28.75H0.169922V27.9167Z" fill="black"/>
<path d="M40.1699 40H0.169922V0H40.1699V40ZM1.00326 39.1667H39.3366V0.833333H1.00326V39.1667Z" fill="black"/>
</g>
<defs>
<clipPath id="clip0_519_9368">
<rect width="40" height="40" fill="white" transform="translate(0.169922)"/>
</clipPath>
</defs>
</svg>
