<svg width="72" height="72" viewBox="0 0 72 72" fill="none" xmlns="http://www.w3.org/2000/svg">
<path d="M44.5682 53.3073H28.0991V52.5677C28.0991 44.2526 21.823 37.9062 21.7594 37.8426L21.542 37.6259V25.2031H51.1253V37.6252L50.9079 37.8426C50.8443 37.9055 44.5682 44.2711 44.5682 52.5677V53.3073ZM29.5635 51.8281H43.1038C43.4144 44.0766 48.5028 38.2383 49.6462 37.0209V26.6823H23.0212V37.0209C24.1646 38.2383 29.2536 44.0766 29.5635 51.8281Z" fill="black"/>
<path d="M32.6365 26.5941H25.9795L25.9832 13.6491C25.9832 12.3785 27.4653 10.8439 29.3054 10.8439C31.1455 10.8439 32.6276 12.3785 32.6276 13.6491L32.6357 25.8545L32.6365 26.5941ZM27.4587 25.1149H31.1558L31.1484 13.6491C31.0191 13.2627 30.7715 12.9268 30.4408 12.6887C30.11 12.4507 29.7129 12.3227 29.3054 12.3227C28.8979 12.3227 28.5007 12.4507 28.17 12.6887C27.8393 12.9268 27.5917 13.2627 27.4624 13.6491L27.4587 25.1149ZM46.6886 26.5941H40.0316L40.0353 13.6107C40.0353 12.3401 41.5174 10.8047 43.3575 10.8047C45.1976 10.8047 46.6797 12.3401 46.6797 13.6107L46.6878 25.8545L46.6886 26.5941ZM41.5107 25.1149H45.2079L45.2005 13.6107C45.0711 13.2243 44.8236 12.8883 44.4929 12.6503C44.1621 12.4123 43.765 12.2842 43.3575 12.2842C42.95 12.2842 42.5528 12.4123 42.2221 12.6503C41.8914 12.8883 41.6438 13.2243 41.5144 13.6107L41.5107 25.1149ZM39.9717 59.223H32.5551L31.6654 51.9965H41.0197L39.9717 59.223ZM33.8635 57.7438H38.6922L39.3105 53.4757H33.3383L33.8635 57.7438Z" fill="black"/>
</svg>
