<svg width="72" height="71" viewBox="0 0 72 71" fill="none" xmlns="http://www.w3.org/2000/svg">
<path d="M53.5827 51.6247H49.9994V49.833H51.6566C50.828 44.0549 46.0353 39.5309 40.1452 39.1278V40.8747H38.3535V39.1278C32.4634 39.5533 27.6707 44.0549 26.8421 49.833H28.4993V51.6247H24.916C24.916 43.7189 31.3436 37.2913 39.2493 37.2913C47.1551 37.2913 53.5827 43.7189 53.5827 51.6247ZM22.2285 41.7705V33.708H19.541V28.333H23.1243V20.2705C23.1243 18.7924 24.3337 17.583 25.8118 17.583C27.29 17.583 28.4993 18.7924 28.4993 20.2705V28.333H33.8743V20.2705C33.8743 18.7924 35.0837 17.583 36.5618 17.583C38.04 17.583 39.2493 18.7924 39.2493 20.2705V28.333H42.8327V33.708H40.1452V35.5221C39.854 35.4997 39.5629 35.4997 39.2941 35.4997C38.9806 35.4997 38.6671 35.4997 38.3535 35.5221V31.9163H41.041V30.1247H21.3327V31.9163H24.0202V41.7705C24.0202 42.7559 24.3337 43.6518 24.8712 44.3908C24.5801 44.9731 24.3113 45.6002 24.0874 46.2273C22.9452 45.0851 22.2285 43.5174 22.2285 41.7705ZM35.666 28.333H37.4577V20.2705C37.4577 19.7778 37.0546 19.3747 36.5618 19.3747C36.0691 19.3747 35.666 19.7778 35.666 20.2705V28.333ZM24.916 28.333H26.7077V20.2705C26.7077 19.7778 26.3046 19.3747 25.8118 19.3747C25.3191 19.3747 24.916 19.7778 24.916 20.2705V28.333ZM35.666 33.708H26.7077V35.4997H35.666V33.708ZM45.2962 45.0403L41.5785 49.3851C41.9592 50.0346 42.0712 50.8632 41.7801 51.6471C41.377 52.7445 40.3467 53.4387 39.2493 53.4387C38.9582 53.4387 38.6447 53.3939 38.3535 53.282C36.965 52.7893 36.2259 51.2439 36.7186 49.8554C37.2113 48.4669 38.7566 47.7278 40.1452 48.2205C40.1676 48.2205 40.19 48.2429 40.19 48.2429L43.9077 43.8981C44.2212 43.5174 44.8035 43.4726 45.1618 43.8085C45.565 44.0997 45.6098 44.6596 45.2962 45.0403ZM39.5405 49.8778C39.4509 49.833 39.3389 49.833 39.2493 49.833C38.891 49.833 38.5327 50.057 38.3983 50.4377C38.2415 50.908 38.4655 51.4231 38.9358 51.5799C39.4061 51.7367 39.9212 51.5127 40.078 51.0424C40.2572 50.5721 40.0108 50.057 39.5405 49.8778Z" fill="#007BC0"/>
<rect x="0.916016" y="0.75" width="69.5" height="69.5" rx="34.75" stroke="#007BC0" stroke-width="1.5"/>
</svg>
