<svg width="50" height="51" viewBox="0 0 50 51" fill="none" xmlns="http://www.w3.org/2000/svg">
<rect x="0.75" y="1.73828" width="48.5" height="48.5" rx="24.25" fill="white"/>
<path d="M30.6409 23.1599C32.1917 23.1599 33.4534 21.8982 33.4534 20.3474C33.4534 18.7966 32.1917 17.5349 30.6409 17.5349C29.0901 17.5349 27.8284 18.7966 27.8284 20.3474C27.8284 21.8982 29.0901 23.1599 30.6409 23.1599ZM30.6409 18.6599C31.5713 18.6599 32.3284 19.417 32.3284 20.3474C32.3284 21.2778 31.5713 22.0349 30.6409 22.0349C29.7105 22.0349 28.9534 21.2779 28.9534 20.3474C28.9534 19.4169 29.7104 18.6599 30.6409 18.6599ZM31.2034 16.4099H30.0784V14.7383H31.2034V16.4099ZM36.25 19.7849V20.9099H34.5784V19.7849H36.25ZM33.8228 17.961L33.0273 17.1655L34.6183 15.5744L35.4138 16.37L33.8228 17.961ZM27.4588 17.961L25.8677 16.3698L26.6633 15.5743L28.2542 17.1653L27.4587 17.9608L27.4588 17.961ZM33.0273 23.5295L33.8228 22.7339L35.4138 24.3248L34.6183 25.1205L33.0273 23.5295ZM35.6875 30.4883H34.5625V31.6133H33.4375V30.4883H32.3125V31.6133H31.75V33.3008C31.75 34.3469 32.4686 35.2259 33.4375 35.4767V36.1133H28.375V26.7852L26.6723 25.1115L27.468 24.316L29.0109 25.8382L29.8011 25.0374L22.9346 18.2632L22.1445 19.064L26.667 23.5258L25.87 24.3227L21.0358 19.5706L13.75 26.8808V37.2383H34.5625V35.4767C35.5314 35.2259 36.25 34.3469 36.25 33.3008V31.6133H35.6875V30.4883ZM22.1875 36.1133H19.9375V31.0508H22.1875V36.1133ZM27.25 36.1133H23.3125V29.9258H18.8125V36.1133H14.875V27.3457L21.0438 21.156L27.25 27.2569V36.1133ZM35.125 33.3008C35.125 33.9211 34.6203 34.4258 34 34.4258C33.3797 34.4258 32.875 33.9211 32.875 33.3008V32.7383H35.125V33.3008Z" fill="#18837E"/>
<rect x="0.75" y="1.73828" width="48.5" height="48.5" rx="24.25" stroke="#18837E" stroke-width="1.5"/>
</svg>
