<svg width="24" height="24" viewBox="0 0 24 24" fill="none" xmlns="http://www.w3.org/2000/svg">
<path d="M12 22.5C6.2103 22.5 1.5 17.7897 1.5 12C1.5 6.2103 6.2103 1.5 12 1.5C17.7897 1.5 22.5 6.2103 22.5 12C22.5 17.7897 17.7897 22.5 12 22.5ZM12 2.55C6.78924 2.55 2.55 6.78924 2.55 12C2.55 17.2108 6.78924 21.45 12 21.45C17.2108 21.45 21.45 17.2108 21.45 12C21.45 6.78924 17.2108 2.55 12 2.55ZM11.0681 7.68187C11.0681 7.17 11.4881 6.75 12 6.75C12.525 6.75 12.9319 7.15687 12.9319 7.68187C12.9319 8.20687 12.525 8.61375 12 8.61375C11.4881 8.61375 11.0681 8.19375 11.0681 7.68187ZM11.3109 9.9525H12.6891V17.25H11.3109V9.9525Z" fill="#007BC0"/>
</svg>