<svg width="17" height="19" viewBox="0 0 17 19" fill="none" xmlns="http://www.w3.org/2000/svg">
<path d="M16.1726 17.8644C16.0005 17.8617 15.8283 17.8652 15.6562 17.8633C15.2441 17.8587 14.9892 17.603 14.9858 17.189C14.9831 16.9006 14.99 16.6118 14.9842 16.3234C14.9727 15.7817 14.7121 15.4039 14.2256 15.1795C14.175 15.156 14.1236 15.1351 14.0673 15.1108C14.0673 15.0569 14.0642 15.0121 14.0677 14.9678C14.0983 14.5641 13.9584 14.4535 13.5847 14.4755C13.3911 14.4866 13.196 14.4774 13.0254 14.4774V12.5627C13.1216 12.4972 13.2109 12.4363 13.3006 12.3761C13.9787 11.9212 14.6561 11.4643 15.3361 11.0121C15.7172 10.7588 15.9065 10.4129 15.905 9.94833C15.8996 8.3645 15.9035 6.78027 15.9027 5.19644C15.9027 4.48895 15.43 4.01126 14.7308 4.01049C13.8384 4.00972 12.946 4.01049 12.054 4.01049H11.8263C11.8087 3.96846 11.7903 3.9407 11.7861 3.91063C11.7289 3.50503 11.6534 3.10059 11.6228 2.69306C11.561 1.87608 10.914 1.24494 10.1005 1.24031C9.69265 1.238 9.28478 1.23993 8.87691 1.23993C8.77725 1.23993 8.67719 1.23993 8.55951 1.23993C8.55951 1.06836 8.56258 0.921849 8.55874 0.776111C8.55031 0.44184 8.38854 0.208197 8.08992 0.0667001C8.04469 0.0454948 8.00061 0.0223619 7.95576 0H6.73177C6.20583 0.124147 6.06706 0.28415 6.02106 0.820449C6.00151 1.04947 5.92982 1.12388 5.69407 1.1312C5.33144 1.14238 4.96842 1.13043 4.60578 1.13583C3.95066 1.14547 3.45347 1.43502 3.15447 2.02259C3.02644 2.27397 2.857 2.37383 2.58177 2.36997C1.8565 2.35956 1.13084 2.36573 0.405184 2.36689C0.119599 2.36727 0.0973674 2.38462 0 2.65489V2.88584C0.0594171 2.94136 0.115764 3.00073 0.178631 3.05162C0.690002 3.46532 1.20329 3.87747 1.71543 4.29001C2.05277 4.56182 2.38972 4.83441 2.72897 5.10853C2.69638 5.34834 2.66725 5.57659 2.63467 5.80406C2.47443 6.92563 2.31305 8.04719 2.1532 9.16875C2.00408 10.2144 1.85458 11.26 1.70968 12.306C1.60694 13.0466 1.59774 13.7888 1.71849 14.5275C1.84231 15.2851 1.98376 16.04 2.1164 16.7961C2.17888 17.1516 2.20495 17.1809 2.55532 17.2576C2.52848 17.3173 2.50433 17.3759 2.47673 17.4322C2.37898 17.6335 2.27241 17.8309 2.1831 18.036C2.09186 18.2461 2.21722 18.4424 2.44262 18.4613C2.48057 18.4644 2.5189 18.4624 2.55723 18.4624C5.75042 18.4624 8.94362 18.4624 12.1368 18.4624C12.1751 18.4624 12.2135 18.4647 12.2514 18.4609C12.4672 18.4401 12.5872 18.2508 12.5098 18.0468C12.4757 17.9574 12.4285 17.8729 12.3867 17.7869C12.3013 17.6111 12.2154 17.4353 12.1272 17.2537C12.4661 17.1947 12.5033 17.1577 12.5658 16.8254C12.5976 16.6573 12.6271 16.4888 12.6597 16.3072C12.7448 16.3072 12.8142 16.3072 12.8832 16.3072C13.1699 16.3072 13.457 16.3103 13.7437 16.306C13.9504 16.303 14.0565 16.1919 14.0673 15.9837C14.0703 15.9251 14.0753 15.8665 14.0819 15.7782C14.2981 15.9344 14.3878 16.114 14.3893 16.3392C14.3916 16.6407 14.3881 16.9422 14.3904 17.2433C14.3947 17.8236 14.7753 18.3167 15.3457 18.4246C15.6175 18.4759 15.9031 18.457 16.1825 18.4605C16.3842 18.4628 16.5114 18.3425 16.5141 18.1675C16.5168 17.9847 16.3865 17.8671 16.1726 17.8641V17.8644ZM12.0874 4.60847C12.9537 4.60847 13.82 4.6077 14.686 4.60847C15.1034 4.60886 15.307 4.81397 15.3074 5.23384C15.3081 6.80379 15.3062 8.37414 15.3093 9.94409C15.3097 10.1743 15.2326 10.3543 15.0402 10.4831C14.3671 10.9334 13.6947 11.3849 13.0215 11.836C13.0008 11.8499 12.9775 11.8595 12.9207 11.8896C12.8874 11.6502 12.8579 11.4369 12.8283 11.2218C12.9042 11.1694 12.9656 11.1246 13.0292 11.0838C13.5 10.7788 13.9688 10.4696 14.4441 10.172C14.6139 10.0655 14.6841 9.936 14.6829 9.73127C14.6756 8.37259 14.6737 7.01392 14.6833 5.65524C14.6856 5.3522 14.538 5.23191 14.2747 5.23653C13.5805 5.24849 12.8862 5.24077 12.192 5.24077H11.9781C11.9467 5.0241 11.9183 4.83016 11.8861 4.60809H12.0874V4.60847ZM6.72716 0.784979C6.73368 0.670856 6.79463 0.611096 6.91308 0.608783C7.19905 0.602999 7.4854 0.602999 7.77175 0.608783C7.89749 0.611482 7.95576 0.673941 7.96189 0.801557C7.96841 0.935343 7.96342 1.06951 7.96342 1.22798H6.72525C6.72525 1.07491 6.71911 0.92956 6.72716 0.784979ZM3.86671 2.19879C4.06605 1.94587 4.33285 1.83676 4.6514 1.83676C6.44695 1.8383 8.24211 1.83676 10.0377 1.83946C10.1446 1.83946 10.2554 1.85141 10.357 1.88187C10.6403 1.96669 10.8396 2.14867 10.963 2.46058H3.71683C3.77509 2.35725 3.81036 2.26973 3.86671 2.19879ZM1.21632 3.08247H3.01532C2.95514 3.51544 2.8961 3.94109 2.83669 4.36982C2.69562 4.31777 1.37541 3.26792 1.21671 3.08247H1.21632ZM2.96012 17.8544C2.97085 17.8132 2.97354 17.7812 2.98695 17.7538C3.07129 17.5822 3.15754 17.4114 3.24417 17.2391H11.4445C11.5422 17.438 11.64 17.6366 11.747 17.854H2.96012V17.8544ZM12.3177 14.8309C12.2169 15.3784 12.1184 15.9259 12.0176 16.4734C12.0084 16.5223 11.9919 16.5701 11.9773 16.6237H2.7006C2.65805 16.3943 2.61358 16.1696 2.57487 15.944C2.47558 15.3642 2.36633 14.7854 2.28392 14.2029C2.1854 13.5062 2.23715 12.8099 2.33912 12.1159C2.49054 11.0838 2.63543 10.0505 2.78264 9.018C2.93175 7.97278 3.08049 6.92717 3.22884 5.88156C3.34921 5.03258 3.46804 4.18321 3.58803 3.33385C3.59953 3.25211 3.61677 3.17114 3.63364 3.07514H11.0562C11.0957 3.33385 11.1374 3.58985 11.1739 3.84701C11.3502 5.08231 11.5258 6.318 11.7002 7.55369C11.8589 8.67525 12.0164 9.7972 12.1736 10.9191C12.2518 11.477 12.3342 12.0342 12.404 12.5928C12.4979 13.3427 12.4538 14.0888 12.3174 14.8305L12.3177 14.8309ZM12.0621 5.8511H14.0723V9.69233C13.6395 9.97185 13.2021 10.2548 12.731 10.559C12.5063 8.97714 12.2855 7.42453 12.0621 5.8511ZM13.4578 15.6977H12.7685C12.8073 15.486 12.8437 15.2886 12.8812 15.0854H13.4578V15.6977ZM6.40363 11.0915C6.31124 11.088 6.21848 11.0911 6.12456 11.0911V10.458C6.22576 10.458 6.31393 10.4607 6.40171 10.4576C6.59913 10.4507 6.72602 10.3281 6.72218 10.1523C6.71873 9.98381 6.59568 9.86775 6.40823 9.86043C6.31546 9.85696 6.22192 9.85966 6.12302 9.85966V9.22659C6.22844 9.22659 6.32236 9.23044 6.41628 9.22581C6.60067 9.21695 6.72333 9.09434 6.72218 8.92547C6.72103 8.7566 6.59836 8.63708 6.41283 8.62898C6.31929 8.62513 6.22576 8.62821 6.1284 8.62821V7.99514C6.2342 7.99514 6.32313 7.99823 6.41206 7.99437C6.59798 7.98627 6.72103 7.86714 6.72257 7.69865C6.7241 7.52978 6.60182 7.40641 6.41743 7.39792C6.32351 7.3933 6.2296 7.39715 6.11153 7.39715C6.11153 7.08139 6.1123 6.79994 6.11153 6.51849C6.11 5.95713 5.72321 5.54806 5.1965 5.54999C4.67977 5.55191 4.29298 5.96137 4.2926 6.51039C4.29183 8.94591 4.29183 11.3814 4.2926 13.8166C4.2926 14.3621 4.6859 14.7696 5.20494 14.7685C5.72167 14.7673 6.11 14.3579 6.11115 13.81C6.1123 13.1754 6.11115 12.5412 6.11191 11.9065C6.11191 11.8387 6.11766 11.7708 6.1215 11.6899C6.22998 11.6899 6.31853 11.6926 6.4067 11.6891C6.59453 11.6818 6.71797 11.5665 6.72257 11.3988C6.72755 11.2226 6.60066 11.0988 6.40401 11.0919L6.40363 11.0915ZM5.51506 13.7711C5.51506 13.8281 5.51199 13.8875 5.49589 13.9411C5.45526 14.0783 5.3299 14.1689 5.19689 14.1666C5.06425 14.1643 4.94005 14.0699 4.90325 13.933C4.88868 13.8786 4.88754 13.8193 4.88754 13.7622C4.88677 12.52 4.88677 11.2773 4.88754 10.0351C4.88754 9.97879 4.89367 9.92289 4.8975 9.85118H5.49972C5.50547 9.90747 5.51467 9.95643 5.51467 10.0054C5.51544 11.2607 5.51544 12.5157 5.51467 13.7711H5.51506ZM5.51506 9.10282C5.51506 9.14022 5.50969 9.17801 5.50586 9.22929H4.89635C4.8929 9.16143 4.88715 9.10514 4.88715 9.04885C4.88677 8.223 4.88677 7.39715 4.88715 6.57131C4.88715 6.52003 4.88485 6.46798 4.89367 6.41824C4.92165 6.26364 5.05237 6.15144 5.19919 6.15067C5.34562 6.14952 5.47672 6.26055 5.50777 6.41477C5.51505 6.45217 5.51506 6.49111 5.51506 6.52928C5.51506 7.38713 5.51506 8.24498 5.51506 9.10282Z" fill="black"/>
</svg>
