<svg width="24" height="24" viewBox="0 0 24 24" fill="none" xmlns="http://www.w3.org/2000/svg">
<path d="M21.3536 18.6464L14.2444 11.5372C14.7415 10.6021 15.001 9.55906 15 8.5C15 4.91587 12.0841 2 8.5 2C4.91587 2 2 4.91587 2 8.5C2 12.0841 4.91587 15 8.5 15C9.59662 15 10.63 14.726 11.5372 14.2444L18.6464 21.3536C19.0776 21.7849 19.6364 22.0036 20.1774 22.0036C20.6591 22.0036 21.127 21.8301 21.4786 21.4786C22.2249 20.7321 22.1689 19.4618 21.3536 18.6464ZM3 8.5C3 5.46725 5.46725 3 8.5 3C11.5328 3 14 5.46725 14 8.5C14 11.5328 11.5328 14 8.5 14C5.46725 14 3 11.5328 3 8.5ZM20.7714 20.7714C20.5526 20.9905 20.2871 21.0187 20.103 21.0035C19.8316 20.9815 19.5584 20.8514 19.3536 20.6464L12.402 13.695C12.8912 13.3266 13.3264 12.8914 13.6949 12.4021L20.6464 19.3538C20.8514 19.5585 20.9814 19.8317 21.0035 20.1031C21.0185 20.2873 20.9904 20.5525 20.7714 20.7714Z" fill="#007BC0"/>
</svg>