<svg width="18" height="13" viewBox="0 0 18 13" fill="none" xmlns="http://www.w3.org/2000/svg">
<path d="M0.000362848 12.0715C0.000362848 8.36932 0.000362848 4.66711 0.000362848 0.964906C0.00688774 0.982397 0.0130512 1.00025 0.0195761 1.01774C0.0315384 0.960898 0.031537 0.904782 0.0453117 0.851945C0.13811 0.497393 0.359962 0.25143 0.685844 0.0961991C0.845704 0.0200415 1.01789 0.000728681 1.19116 0.000728681C6.33459 -0.000364491 11.4784 1.00079e-07 16.6218 0.000364491C16.7255 0.000364491 16.8291 0.00327938 16.9328 0.00838085C17.2457 0.0240496 17.5052 0.154137 17.7122 0.387712C17.9137 0.615091 18 0.886562 18 1.18791C18 4.7021 18 8.21628 17.9993 11.7305C17.9993 11.8281 17.9931 11.9261 17.9819 12.0227C17.9547 12.2523 17.8565 12.4534 17.7053 12.6236C17.5694 12.7766 17.3972 12.8812 17.2007 12.9432C17.1355 12.9636 17.0702 12.9774 17.0013 12.9665C16.9894 12.9647 16.9767 12.9665 16.964 12.9665C16.964 12.9687 16.964 12.9712 16.964 12.9734C16.9923 12.9821 17.0205 12.9909 17.0488 13H0.952998C0.97946 12.9934 1.00557 12.9869 1.03203 12.98C0.972216 12.9577 0.898261 12.9687 0.835187 12.9537C0.764501 12.9366 0.697083 12.9074 0.632196 12.8743C0.524535 12.8193 0.424121 12.7493 0.33821 12.6637C0.136663 12.4633 0.0380636 12.2158 0.0380636 11.9338C0.0362512 11.9338 0.0348051 11.9338 0.0329926 11.9342C0.0221178 11.9797 0.0108748 12.0253 0 12.0712L0.000362848 12.0715ZM9.00254 12.2439C10.5152 12.2439 12.0279 12.2439 13.5406 12.2439C14.6444 12.2439 15.7482 12.2439 16.8523 12.2439C16.8821 12.2439 16.9125 12.2439 16.9412 12.2377C17.1249 12.1976 17.2486 12.0438 17.2489 11.8536C17.2496 11.5249 17.2489 11.1966 17.2489 10.868C17.2489 7.6318 17.2489 4.39564 17.2489 1.15949C17.2489 1.12815 17.2486 1.09609 17.2438 1.06511C17.2185 0.897859 17.0441 0.752831 16.864 0.753195C14.3134 0.755382 11.7629 0.754653 9.21243 0.754653C6.52671 0.754653 3.84099 0.754653 1.15491 0.754653C1.12519 0.754653 1.09474 0.754653 1.06574 0.760119C0.889928 0.792185 0.750732 0.963084 0.750732 1.14783C0.753632 4.61464 0.752901 8.08146 0.752901 11.5483C0.752901 11.6558 0.751451 11.7633 0.753626 11.8704C0.754351 11.9061 0.760513 11.9429 0.771025 11.9768C0.825399 12.1513 1.00048 12.2453 1.14258 12.245C3.76233 12.2428 6.38207 12.2435 9.00181 12.2435L9.00254 12.2439ZM7.10488 11.4819C5.50592 11.4819 3.9066 11.4819 2.30764 11.4819C2.15249 11.4819 2.00496 11.4535 1.87156 11.3686C1.66385 11.2367 1.54822 11.0469 1.52176 10.8027C1.51415 10.7324 1.51233 10.661 1.51233 10.5903C1.51197 7.82164 1.51197 5.05337 1.51233 2.28473C1.51233 1.9535 1.70917 1.67146 2.01946 1.55886C2.11697 1.52352 2.21955 1.51732 2.32141 1.51696C2.70022 1.5155 3.07939 1.51623 3.4582 1.51623C6.27441 1.51623 9.09027 1.51623 11.9065 1.51623C12.0674 1.51623 12.2233 1.54028 12.361 1.63174C12.5688 1.76984 12.6916 1.96006 12.7098 2.21294C12.7145 2.2789 12.7167 2.34522 12.7167 2.41154C12.7167 5.15941 12.717 7.90764 12.7167 10.6555C12.7167 10.7867 12.7076 10.9175 12.6481 11.0388C12.5216 11.2979 12.3154 11.4437 12.0294 11.4721C11.95 11.4801 11.8695 11.4812 11.7894 11.4812C10.2281 11.4816 8.6665 11.4816 7.10524 11.4816L7.10488 11.4819ZM7.13751 2.27088C5.54326 2.27088 3.94902 2.27088 2.35441 2.27088C2.34172 2.27088 2.32903 2.27198 2.3167 2.27088C2.28408 2.26724 2.27212 2.28072 2.27284 2.31388C2.27538 2.39915 2.27574 2.48442 2.27574 2.56968C2.27574 4.68278 2.27574 6.79589 2.27574 8.90862C2.27574 9.47889 2.27465 10.0488 2.27429 10.6191C2.27429 10.6905 2.25689 10.6901 2.34425 10.6901C5.54218 10.6901 8.74046 10.6901 11.9384 10.6901C12.0123 10.6901 12.0033 10.6996 12.0033 10.6242C12.0033 7.86355 12.0033 5.10329 12.0033 2.34267C12.0033 2.29505 11.9787 2.27125 11.9297 2.27125C10.3322 2.27125 8.73466 2.27125 7.13715 2.27125L7.13751 2.27088ZM16.5899 3.79404C16.5794 4.52427 16.0143 5.12151 15.278 5.13937C14.5705 5.15649 13.9118 4.6059 13.9067 3.79841C13.902 3.01825 14.5277 2.45308 15.2385 2.44652C16.0128 2.43923 16.5819 3.07582 16.5899 3.7944V3.79404ZM14.6477 3.79513C14.6473 4.06951 14.8528 4.39455 15.2632 4.39528C15.8044 4.39637 16.0291 3.69128 15.6358 3.34656C15.2552 3.01278 14.6564 3.29555 14.6477 3.79513ZM14.4432 6.74815C14.2482 6.74961 14.0568 6.76746 13.9665 6.96569C13.89 7.13331 13.9375 7.32389 14.0883 7.4332C14.2471 7.54799 14.507 7.50207 14.6893 7.50244C15.1512 7.5028 15.6137 7.509 16.0759 7.50244C16.2455 7.49989 16.4079 7.47839 16.5069 7.32316C16.5924 7.1887 16.5805 7.01124 16.4808 6.88662C16.3528 6.72665 16.139 6.74924 15.9563 6.74888C15.7214 6.74851 15.4868 6.74888 15.2519 6.74888C14.9822 6.74888 14.7125 6.74706 14.4432 6.74888V6.74815ZM16.0411 9.01794C16.2339 9.01648 16.425 8.99936 16.5243 8.80805C16.599 8.66448 16.5685 8.48812 16.454 8.37442C16.309 8.23013 16.0857 8.26438 15.8997 8.26402C15.4401 8.26365 14.9804 8.26365 14.5208 8.26402C14.3479 8.26402 14.1423 8.24689 14.0198 8.39447C13.91 8.5271 13.8977 8.71732 13.9992 8.85724C14.1293 9.03725 14.3312 9.01758 14.5295 9.0183C14.7666 9.01903 15.004 9.0183 15.2411 9.0183C15.5075 9.0183 15.7743 9.01976 16.0407 9.0183L16.0411 9.01794ZM16.0679 10.5342C16.2698 10.5334 16.4706 10.4897 16.546 10.2755C16.6051 10.1067 16.5265 9.91288 16.371 9.82834C16.2666 9.7715 16.1429 9.78097 16.0284 9.78061C15.8888 9.78061 15.7493 9.78061 15.6097 9.78061C15.348 9.78061 15.0866 9.78061 14.8249 9.78061C14.6194 9.78061 14.3403 9.73105 14.1467 9.81814C13.968 9.89867 13.8846 10.1089 13.9538 10.2911C14.0358 10.5068 14.2348 10.5331 14.4389 10.5349C14.7067 10.5371 14.9746 10.5349 15.2425 10.5349C15.5104 10.5349 15.7928 10.5353 16.0679 10.5345V10.5342Z" fill="black"/>
</svg>
