<svg xmlns="http://www.w3.org/2000/svg" width="75" height="108" viewBox="0 0 75 108" fill="none">
  <mask id="mask0_814_95872" style="mask-type:luminance" maskUnits="userSpaceOnUse" x="0" y="0" width="75" height="108">
    <path d="M74.166 0.5H0.166016V107.5H74.166V0.5Z" fill="white"/>
  </mask>
  <g mask="url(#mask0_814_95872)">
    <path d="M3.01057 -10.0693L-32.7754 123.107M9.85611 -10.0693L-25.9298 123.107M16.7092 -10.0693L-19.0767 123.107M23.5623 -10.0693L-12.2312 123.107M30.4079 -10.0693L-5.37807 123.107M37.261 -10.0693L1.47505 123.107M44.1141 -10.0693L8.32816 123.107M50.9597 -10.0693L15.1737 123.107M57.8128 -10.0693L22.0268 123.107M64.6583 -10.0693L28.8724 123.107M71.5114 -10.0693L35.7255 123.107M78.3645 -10.0693L42.5786 123.107M85.2101 -10.0693L49.4241 123.107M92.0632 -10.0693L56.2773 123.107M98.9088 -10.0693L63.1228 123.107M69.9759 123.107L105.762 -10.0693" stroke="#18837E" stroke-width="2" stroke-miterlimit="10"/>
  </g>
</svg>