<svg width="74" height="95" viewBox="0 0 74 95" fill="none" xmlns="http://www.w3.org/2000/svg">
<mask id="mask0_1550_51768" style="mask-type:luminance" maskUnits="userSpaceOnUse" x="0" y="0" width="74" height="95">
<path d="M74 0.5H0V94.5H74V0.5Z" fill="white"/>
</mask>
<g mask="url(#mask0_1550_51768)">
<path d="M2.84455 -8.78516L-32.9414 108.211M9.6901 -8.78516L-26.0959 108.211M16.5432 -8.78516L-19.2427 108.211M23.3963 -8.78516L-12.3972 108.211M30.2419 -8.78516L-5.54408 108.211M37.095 -8.78516L1.30903 108.211M43.9481 -8.78516L8.16214 108.211M50.7936 -8.78516L15.0077 108.211M57.6468 -8.78516L21.8608 108.211M64.4923 -8.78516L28.7063 108.211M71.3454 -8.78516L35.5595 108.211M78.1985 -8.78516L42.4126 108.211M85.0441 -8.78516L49.2581 108.211M91.8972 -8.78516L56.1112 108.211M98.7427 -8.78516L62.9568 108.211M69.8099 108.211L105.596 -8.78516" stroke="#B2B2B2" stroke-width="2" stroke-miterlimit="10"/>
</g>
</svg>
