<svg width="25" height="24" viewBox="0 0 25 24" fill="none" xmlns="http://www.w3.org/2000/svg">
<path d="M4.375 21H13.375V8H4.375V21ZM4.875 8.5H12.875V20.5H4.875V8.5Z" fill="white"/>
<path d="M10.325 8.75H5.125V20.25H12.625V8.75H10.325ZM10.325 14.225H9.175V12H10.325V14.225ZM10.325 16.975H9.175V14.75H10.325V16.975ZM7.425 14.75H8.575V16.975H7.425V14.75ZM7.425 12H8.575V14.225H7.425V12ZM6.85 14.225H5.625V12H6.85V14.225ZM6.85 16.975H5.625V14.75H6.85V16.975ZM10.9 14.75H12.125V16.975H10.9V14.75ZM10.9 12H12.125V14.225H10.9V12ZM10.325 9.25V11.475H9.175V9.25H10.325ZM8.575 9.25V11.475H7.425V9.25H8.575ZM5.625 9.25H6.85V11.475H5.625V9.25ZM5.625 19.75V17.5H6.85V19.75H5.625ZM7.425 19.75V17.5H8.575V19.75H7.425ZM9.175 19.75V17.5H10.325V19.75H9.175ZM12.125 19.75H10.9V17.5H12.125V19.75ZM12.125 9.25V11.475H10.9V9.25H12.125ZM17.375 9.25C18.75 9.25 19.875 8.125 19.875 6.75C19.875 5.375 18.75 4.25 17.375 4.25C16 4.25 14.875 5.375 14.875 6.75C14.875 8.125 16 9.25 17.375 9.25ZM17.375 4.75C18.475 4.75 19.375 5.65 19.375 6.75C19.375 7.85 18.475 8.75 17.375 8.75C16.275 8.75 15.375 7.85 15.375 6.75C15.375 5.65 16.275 4.75 17.375 4.75ZM17.125 2H17.625V4H17.125V2ZM17.125 9.5H17.625V11.5H17.125V9.5ZM20.125 6.5H22.125V7H20.125V6.5ZM12.625 6.5H14.625V7H12.625V6.5ZM19.199 8.9335L19.5527 8.58L20.9137 9.94125L20.5602 10.2948L19.199 8.9335ZM13.835 3.5575L14.1888 3.204L15.55 4.565L15.1962 4.91875L13.835 3.5575ZM13.8293 9.936L15.1905 8.57475L15.544 8.92825L14.1827 10.2895L13.8293 9.936ZM19.2057 4.57175L20.5667 3.21075L20.9205 3.56425L19.5592 4.9255L19.2057 4.57175ZM19.55 13.25H17.075L15.375 17.85H17.55L16.3 21H18.05L20.225 16.15H18.275L19.55 13.25ZM19.45 16.65L17.725 20.5H17.025L18 18.05L18.275 17.375H16.075L17.425 13.75H18.8L17.85 15.95L17.55 16.65H19.45Z" fill="white"/>
</svg>
