<svg width="61" height="60" viewBox="0 0 61 60" fill="none" xmlns="http://www.w3.org/2000/svg">
<g clip-path="url(#clip0_519_7179)">
<path d="M10.166 52.5H33.041V20H10.166V52.5ZM11.4368 21.25H31.7702V51.25H11.4368V21.25Z" fill="black"/>
<path d="M25.2889 21.875H12.0723V50.625H31.1348V21.875H25.2889ZM25.2889 35.5625H22.366V30H25.2889V35.5625ZM25.2889 42.4375H22.366V36.875H25.2889V42.4375ZM17.9181 36.875H20.841V42.4375H17.9181V36.875ZM17.9181 30H20.841V35.5625H17.9181V30ZM16.4566 35.5625H13.3431V30H16.4566V35.5625ZM16.4566 42.4375H13.3431V36.875H16.4566V42.4375ZM26.7504 36.875H29.8639V42.4375H26.7504V36.875ZM26.7504 30H29.8639V35.5625H26.7504V30ZM25.2889 23.125V28.6875H22.366V23.125H25.2889ZM20.841 23.125V28.6875H17.9181V23.125H20.841ZM13.3431 23.125H16.4566V28.6875H13.3431V23.125ZM13.3431 49.375V43.75H16.4566V49.375H13.3431ZM17.9181 49.375V43.75H20.841V49.375H17.9181ZM22.366 49.375V43.75H25.2889V49.375H22.366ZM29.8639 49.375H26.7504V43.75H29.8639V49.375ZM29.8639 23.125V28.6875H26.7504V23.125H29.8639ZM43.2077 23.125C46.7025 23.125 49.5618 20.3125 49.5618 16.875C49.5618 13.4375 46.7025 10.625 43.2077 10.625C39.7129 10.625 36.8535 13.4375 36.8535 16.875C36.8535 20.3125 39.7129 23.125 43.2077 23.125ZM43.2077 11.875C46.0035 11.875 48.291 14.125 48.291 16.875C48.291 19.625 46.0035 21.875 43.2077 21.875C40.4118 21.875 38.1243 19.625 38.1243 16.875C38.1243 14.125 40.4118 11.875 43.2077 11.875ZM42.5723 5H43.8431V10H42.5723V5ZM42.5723 23.75H43.8431V28.75H42.5723V23.75ZM50.1973 16.25H55.2806V17.5H50.1973V16.25ZM31.1348 16.25H36.2181V17.5H31.1348V16.25ZM47.8437 22.3338L48.7428 21.45L52.202 24.8531L51.3035 25.7369L47.8437 22.3338ZM34.2102 8.89375L35.1093 8.01L38.5691 11.4125L37.67 12.2969L34.2102 8.89375ZM34.1956 24.84L37.6554 21.4369L38.5539 22.3206L35.094 25.7238L34.1956 24.84ZM47.8608 11.4294L51.32 8.02688L52.2192 8.91062L48.7593 12.3137L47.8608 11.4294ZM48.7358 33.125H42.4452L38.1243 44.625H43.6525L40.4754 52.5H44.9233L50.4514 40.375H45.4952L48.7358 33.125ZM48.4816 41.625L44.0973 51.25H42.3181L44.7962 45.125L45.4952 43.4375H39.9035L43.3348 34.375H46.8296L44.415 39.875L43.6525 41.625H48.4816Z" fill="black"/>
</g>
<defs>
<clipPath id="clip0_519_7179">
<rect width="61" height="60" fill="white"/>
</clipPath>
</defs>
</svg>
