<svg width="48" height="39" viewBox="0 0 48 39" fill="#007BC0" xmlns="http://www.w3.org/2000/svg">
<path d="M47.7471 38.5869H0.250977L5.30794 22.2536H10.866C10.8601 22.416 10.853 22.5773 10.853 22.7448C10.853 23.3844 10.91 23.998 11.0082 24.5869H7.06752L3.45545 36.2536H44.5429L40.9324 24.5869H34.1624C33.9178 24.0217 33.7545 23.4016 33.7545 22.7448C33.7545 22.5753 33.7622 22.4128 33.7735 22.2536H42.6928L47.7471 38.5869ZM19.3608 29.4811C19.3231 29.454 15.6027 26.7146 15.6027 22.7448C15.6027 20.0212 16.7454 18.298 17.9548 16.4739C19.2379 14.5387 20.692 12.3457 20.692 8.92909C20.692 3.87042 17.0701 0.534924 16.9161 0.395508L15.3043 2.10934C15.3346 2.13676 18.317 4.91634 18.317 8.92909C18.317 11.6527 17.1743 13.3758 15.9649 15.1999C14.6818 17.1351 13.2277 19.3282 13.2277 22.7448C13.2277 27.8804 17.7592 31.22 17.9519 31.3594L19.3608 29.4811ZM27.2491 29.4811C27.2114 29.454 23.4912 26.7146 23.4912 22.7448C23.4912 20.0212 24.6336 18.298 25.8434 16.4739C27.1262 14.5387 28.5806 12.3457 28.5806 8.92909C28.5806 3.87042 24.9587 0.534924 24.8046 0.395508L23.1929 2.10934C23.2229 2.13676 26.2056 4.91634 26.2056 8.92909C26.2056 11.6527 25.0629 13.3758 23.8531 15.1999C22.5706 17.1351 21.1159 19.3282 21.1159 22.7448C21.1159 27.8804 25.6474 31.22 25.8404 31.3594L27.2491 29.4811ZM35.1377 29.4811C35.0999 29.454 31.3792 26.7146 31.3792 22.7448C31.3792 20.0212 32.5222 18.298 33.7316 16.4739C35.0147 14.5387 36.4688 12.3457 36.4688 8.92909C36.4688 3.87042 32.847 0.534924 32.6929 0.395508L31.0814 2.10934C31.1111 2.13676 34.0938 4.91634 34.0938 8.92909C34.0938 11.6527 32.9512 13.3758 31.7417 15.1999C30.4586 17.1351 29.0045 19.3282 29.0045 22.7448C29.0045 27.8804 33.5357 31.22 33.7287 31.3594L35.1377 29.4811Z"/>
</svg>
