<svg width="48" height="38" viewBox="0 0 48 38" fill="#007BC0" xmlns="http://www.w3.org/2000/svg">
<path d="M11.259 30.3494L9.82214 28.4915C9.85688 28.4653 13.3125 25.8196 13.3125 22.0512C13.3125 19.4423 12.2482 17.7914 11.1216 16.0438C9.92219 14.1829 8.5625 12.0736 8.5625 8.78797C8.5625 3.92122 11.9558 0.707055 12.1001 0.572597L13.7335 2.2666C13.7082 2.29022 10.9375 4.94818 10.9375 8.78826C10.9375 11.3972 12.0015 13.0478 13.1284 14.7954C14.3278 16.6563 15.6875 18.7656 15.6875 22.0512C15.6875 26.995 11.4398 30.215 11.259 30.3494ZM7.375 22.0512C7.375 18.7656 6.01531 16.6563 4.81594 14.7954C3.6887 13.0478 2.625 11.3972 2.625 8.78797C2.625 4.94818 5.39573 2.29022 5.42097 2.2663L3.78756 0.572597C3.64328 0.707055 0.25 3.92093 0.25 8.78797C0.25 12.0736 1.60969 14.1829 2.80906 16.0438C3.9357 17.7914 5 19.442 5 22.0512C5 25.8196 1.54438 28.4656 1.50934 28.4918L2.94622 30.3494C3.12731 30.2147 7.375 26.995 7.375 22.0512ZM15.6875 35.2579H0.25V37.5813H15.6875V35.2579ZM47.75 0.25293H33.5V2.58626H45.375V35.2529H26.375V37.5863H47.75V0.25293ZM40.625 7.25293H38.25V30.5863H40.625V7.25293ZM33.5 7.25293H31.125V30.5863H33.5V7.25293ZM28.6016 0.25293H26.1063L18.0625 37.5863H20.5574L28.6016 0.25293Z"/>
</svg>
