<svg width="57" height="55" viewBox="0 0 57 55" fill="none" xmlns="http://www.w3.org/2000/svg">
<path d="M23.2033 26.3119L21.0566 23.9922C19.9315 22.8634 19.3011 21.3446 19.3011 19.7626C19.3011 18.1806 19.9315 16.6618 21.0566 15.533L21.911 14.6101C22.8312 13.6876 23.3467 12.4461 23.3467 11.1528C23.3467 9.85955 22.8312 8.61801 21.911 7.69555L19.7638 5.37523L20.6239 4.60352L22.7706 6.92383C23.8959 8.05245 24.5264 9.57116 24.5264 11.1531C24.5264 12.735 23.8959 14.2537 22.7706 15.3824L21.9162 16.3053C20.9963 17.228 20.4809 18.4696 20.4809 19.7629C20.4809 21.0562 20.9963 22.2977 21.9162 23.2204L24.0635 25.5402L23.2033 26.3119ZM30.0237 26.3119L27.8765 23.9922C26.751 22.8635 26.1204 21.3447 26.1204 19.7626C26.1204 18.1805 26.751 16.6617 27.8765 15.533L28.7314 14.6101C29.6515 13.6876 30.1671 12.4461 30.1671 11.1528C30.1671 9.85955 29.6515 8.61801 28.7314 7.69555L26.5841 5.37523L27.4437 4.60352L29.591 6.92383C30.7163 8.05245 31.3468 9.57116 31.3468 11.1531C31.3468 12.735 30.7163 14.2537 29.591 15.3824L28.7361 16.3053C27.8159 17.2279 27.3003 18.4695 27.3003 19.7629C27.3003 21.0562 27.8159 22.2979 28.7361 23.2204L30.8833 25.5402L30.0237 26.3119ZM36.8435 26.3119L34.6968 23.9922C33.5714 22.8635 32.9408 21.3447 32.9408 19.7626C32.9408 18.1805 33.5714 16.6617 34.6968 15.533L35.5512 14.6101C36.4711 13.6875 36.9865 12.446 36.9865 11.1528C36.9865 9.85964 36.4711 8.61816 35.5512 7.69555L33.404 5.37523L34.2641 4.60352L36.4108 6.92383C37.5358 8.0526 38.1661 9.57125 38.1661 11.1531C38.1661 12.7349 37.5358 14.2536 36.4108 15.3824L35.5564 16.3053C34.6363 17.2279 34.1207 18.4695 34.1207 19.7629C34.1207 21.0562 34.6363 22.2979 35.5564 23.2204L37.7037 25.5402L36.8435 26.3119ZM51.9976 50.5039H12.1582C11.4641 50.5039 10.7984 50.2323 10.3076 49.7488C9.81675 49.2653 9.54102 48.6095 9.54102 47.9258C9.54102 47.242 9.81675 46.5862 10.3076 46.1027C10.7984 45.6192 11.4641 45.3476 12.1582 45.3476H41.2381C41.6237 45.3476 41.9935 45.1967 42.2662 44.9281C42.5389 44.6595 42.6921 44.2952 42.6921 43.9153C42.6921 43.5355 42.5389 43.1712 42.2662 42.9025C41.9935 42.6339 41.6237 42.483 41.2381 42.483H12.1582C11.4641 42.483 10.7984 42.2114 10.3076 41.7279C9.81675 41.2444 9.54102 40.5887 9.54102 39.9049C9.54102 39.2212 9.81675 38.5654 10.3076 38.0819C10.7984 37.5984 11.4641 37.3268 12.1582 37.3268H41.2381C41.6237 37.3268 41.9935 37.1759 42.2662 36.9073C42.5389 36.6387 42.6921 36.2744 42.6921 35.8945C42.6921 35.5146 42.5389 35.1503 42.2662 34.8817C41.9935 34.6131 41.6237 34.4622 41.2381 34.4622H12.1582C11.4641 34.4622 10.7984 34.1906 10.3076 33.7071C9.81675 33.2236 9.54102 32.5678 9.54102 31.8841C9.54102 31.2003 9.81675 30.5446 10.3076 30.0611C10.7984 29.5776 11.4641 29.306 12.1582 29.306H45.3092C46.0031 29.3067 46.6684 29.5786 47.159 30.0619C47.6497 30.5452 47.9257 31.2006 47.9264 31.8841V43.9153C47.9269 44.2951 48.0802 44.6591 48.3528 44.9276C48.6254 45.1961 48.9949 45.3472 49.3804 45.3476H51.9976V46.4935H49.3804C48.6865 46.4927 48.0213 46.2208 47.5306 45.7375C47.04 45.2542 46.764 44.5989 46.7632 43.9153V31.8841C46.7628 31.5044 46.6094 31.1403 46.3369 30.8718C46.0643 30.6033 45.6947 30.4522 45.3092 30.4518H12.1582C11.7726 30.4518 11.4028 30.6027 11.1301 30.8713C10.8574 31.1399 10.7042 31.5042 10.7042 31.8841C10.7042 32.264 10.8574 32.6283 11.1301 32.8969C11.4028 33.1655 11.7726 33.3164 12.1582 33.3164H41.2381C41.9322 33.3164 42.5979 33.588 43.0887 34.0715C43.5795 34.555 43.8553 35.2107 43.8553 35.8945C43.8553 36.5783 43.5795 37.234 43.0887 37.7175C42.5979 38.201 41.9322 38.4726 41.2381 38.4726H12.1582C11.7726 38.4726 11.4028 38.6235 11.1301 38.8921C10.8574 39.1607 10.7042 39.5251 10.7042 39.9049C10.7042 40.2848 10.8574 40.6491 11.1301 40.9177C11.4028 41.1863 11.7726 41.3372 12.1582 41.3372H41.2381C41.9322 41.3372 42.5979 41.6088 43.0887 42.0923C43.5795 42.5758 43.8553 43.2316 43.8553 43.9153C43.8553 44.5991 43.5795 45.2549 43.0887 45.7383C42.5979 46.2218 41.9322 46.4935 41.2381 46.4935H12.1582C11.7726 46.4935 11.4028 46.6444 11.1301 46.913C10.8574 47.1816 10.7042 47.5459 10.7042 47.9258C10.7042 48.3056 10.8574 48.6699 11.1301 48.9385C11.4028 49.2071 11.7726 49.358 12.1582 49.358H51.9976V50.5039Z" fill="black"/>
</svg>
