<svg width="61" height="60" viewBox="0 0 61 60" fill="none" xmlns="http://www.w3.org/2000/svg">
<g clip-path="url(#clip0_519_6569)">
<path d="M30.4993 11.25C41.0473 11.25 49.5619 19.625 49.5619 30C49.5619 40.375 41.0473 48.75 30.4993 48.75C19.9514 48.75 11.4368 40.375 11.4368 30C11.4368 19.625 19.9514 11.25 30.4993 11.25ZM30.4993 10C19.2525 10 10.166 18.9375 10.166 30C10.166 41.0625 19.2525 50 30.4993 50C41.7462 50 50.8327 41.0625 50.8327 30C50.8327 18.9375 41.7462 10 30.4993 10Z" fill="black"/>
<path d="M37.2634 21.185L36.4399 22.955C35.0979 21.365 33.4814 20.585 31.5599 20.585C29.6994 20.585 28.1744 21.245 26.9849 22.595C25.9479 23.765 25.2464 25.325 24.8804 27.215H35.0369L34.4879 28.565H24.6974C24.6364 29.075 24.6059 29.525 24.6059 29.855V30.095C24.6059 30.185 24.6059 30.245 24.6364 30.335H33.9084L33.3289 31.685H24.7279C25.0024 33.785 25.6429 35.465 26.6494 36.755C27.8694 38.255 29.4859 39.005 31.4684 39.005C32.5359 39.005 33.5119 38.765 34.3964 38.315C35.0979 37.925 35.8909 37.295 36.7754 36.425V38.735C35.2199 40.025 33.4204 40.685 31.4074 40.685C28.8759 40.685 26.8019 39.785 25.2464 38.015C23.8739 36.425 23.0504 34.325 22.7454 31.685H20.7324L21.3119 30.335H22.6539C22.6234 30.245 22.6234 30.155 22.6234 30.065V29.735C22.6234 29.405 22.6539 29.045 22.6844 28.565H20.7324L21.2814 27.215H22.8369C23.2944 24.725 24.2399 22.775 25.6429 21.335C27.1984 19.685 29.1809 18.875 31.5904 18.875C34.1219 18.875 36.0129 19.655 37.2634 21.185Z" fill="black"/>
</g>
<defs>
<clipPath id="clip0_519_6569">
<rect width="61" height="60" fill="white"/>
</clipPath>
</defs>
</svg>
