<svg width="37" height="37" viewBox="0 0 37 37" fill="none" xmlns="http://www.w3.org/2000/svg">
<path d="M18.4998 6.93685C24.8978 6.93685 30.0623 12.1014 30.0623 18.4993C30.0623 24.8973 24.8978 30.0618 18.4998 30.0618C12.1019 30.0618 6.93734 24.8973 6.93734 18.4993C6.93734 12.1014 12.1019 6.93685 18.4998 6.93685ZM18.4998 6.16602C11.678 6.16602 6.1665 11.6775 6.1665 18.4993C6.1665 25.3212 11.678 30.8327 18.4998 30.8327C25.3217 30.8327 30.8332 25.3212 30.8332 18.4993C30.8332 11.6775 25.3217 6.16602 18.4998 6.16602Z" fill="black"/>
<path d="M22.6032 13.0632L22.1037 14.1547C21.2897 13.1742 20.3092 12.6932 19.1437 12.6932C18.0152 12.6932 17.0902 13.1002 16.3687 13.9327C15.7397 14.6542 15.3142 15.6162 15.0922 16.7817H21.2527L20.9197 17.6142H14.9812C14.9442 17.9287 14.9257 18.2062 14.9257 18.4097V18.5577C14.9257 18.6132 14.9257 18.6502 14.9442 18.7057H20.5682L20.2167 19.5382H14.9997C15.1662 20.8332 15.5547 21.8692 16.1652 22.6647C16.9052 23.5897 17.8857 24.0522 19.0882 24.0522C19.7357 24.0522 20.3277 23.9042 20.8642 23.6267C21.2897 23.3862 21.7707 22.9977 22.3072 22.4612V23.8857C21.3637 24.6812 20.2722 25.0882 19.0512 25.0882C17.5157 25.0882 16.2577 24.5332 15.3142 23.4417C14.4817 22.4612 13.9822 21.1662 13.7972 19.5382H12.5762L12.9277 18.7057H13.7417C13.7232 18.6502 13.7232 18.5947 13.7232 18.5392V18.3357C13.7232 18.1322 13.7417 17.9102 13.7602 17.6142H12.5762L12.9092 16.7817H13.8527C14.1302 15.2462 14.7037 14.0437 15.5547 13.1557C16.4982 12.1382 17.7007 11.6387 19.1622 11.6387C20.6977 11.6387 21.8447 12.1197 22.6032 13.0632Z" fill="black"/>
</svg>
