<svg width="70" height="68" viewBox="0 0 70 68" fill="none" xmlns="http://www.w3.org/2000/svg">
<path d="M62.9709 11.334H55.4845C42.6853 11.334 36.4571 16.9388 36.4413 28.4645C34.4671 31.6138 33.8215 35.2569 33.6242 39.4022C33.2803 38.4436 32.8359 37.5207 32.2978 36.6478C32.6723 31.5527 31.3882 27.3215 28.5697 24.4085C25.4671 21.2022 20.622 19.5764 14.1693 19.5764H7.02791C6.83766 19.5764 6.65519 19.6488 6.52066 19.7776C6.38613 19.9064 6.31055 20.0811 6.31055 20.2633C6.31055 31.8178 12.0925 37.435 23.9893 37.435H31.1077C33.2526 40.9511 33.5367 45.2103 33.5704 50.4896C33.5798 51.9121 33.5769 52.9967 33.574 54.266L33.5704 56.6673H35.0052L35.0087 54.2695C35.0116 52.9953 35.0145 51.908 35.0052 50.4814C35.002 50.0248 34.9963 49.5683 34.9879 49.1118H35.0052C35.0052 48.087 34.998 47.0889 34.9908 46.1163C34.9399 39.1776 34.8997 33.6359 37.6594 29.2104L45.483 29.4797L45.5095 29.4804C57.9121 29.4804 63.6883 23.9325 63.6883 12.0209C63.6883 11.8387 63.6127 11.664 63.4782 11.5352C63.3437 11.4064 63.1612 11.334 62.9709 11.334ZM23.9893 36.0613C13.1449 36.0613 7.96981 31.2552 7.75245 20.9501H14.1693C20.2066 20.9501 24.6973 22.4276 27.518 25.3427C29.7332 27.632 30.8868 30.8747 30.9205 34.7837C28.8315 32.3879 25.6808 30.3259 20.9175 28.5524L20.3982 29.8327C25.1593 31.6049 28.1959 33.6476 30.1386 36.0613H23.9893ZM45.5217 28.1066L38.6135 27.869C40.5741 25.4265 43.5806 23.3508 48.1839 21.5882L47.6516 20.312C43.1322 22.043 40.0561 24.0857 37.9607 26.4437C38.6587 17.0941 44.2685 12.7077 55.4845 12.7077H62.2471C62.0362 23.3459 56.8525 28.1032 45.5217 28.1066Z" fill="black"/>
</svg>
