<svg width="37" height="37" viewBox="0 0 37 37" fill="none" xmlns="http://www.w3.org/2000/svg">
<path d="M6.1665 32.3757H20.0415V12.334H6.1665V32.3757ZM6.93734 13.1048H19.2707V31.6048H6.93734V13.1048Z" fill="black"/>
<path d="M15.3394 13.4902H7.32275V31.2194H18.8853V13.4902H15.3394ZM15.3394 21.9309H13.5665V18.5007H15.3394V21.9309ZM15.3394 26.1704H13.5665V22.7402H15.3394V26.1704ZM10.8686 22.7402H12.6415V26.1704H10.8686V22.7402ZM10.8686 18.5007H12.6415V21.9309H10.8686V18.5007ZM9.98213 21.9309H8.09359V18.5007H9.98213V21.9309ZM9.98213 26.1704H8.09359V22.7402H9.98213V26.1704ZM16.2259 22.7402H18.1144V26.1704H16.2259V22.7402ZM16.2259 18.5007H18.1144V21.9309H16.2259V18.5007ZM15.3394 14.2611V17.6913H13.5665V14.2611H15.3394ZM12.6415 14.2611V17.6913H10.8686V14.2611H12.6415ZM8.09359 14.2611H9.98213V17.6913H8.09359V14.2611ZM8.09359 30.4486V26.9798H9.98213V30.4486H8.09359ZM10.8686 30.4486V26.9798H12.6415V30.4486H10.8686ZM13.5665 30.4486V26.9798H15.3394V30.4486H13.5665ZM18.1144 30.4486H16.2259V26.9798H18.1144V30.4486ZM18.1144 14.2611V17.6913H16.2259V14.2611H18.1144ZM26.2082 14.2611C28.328 14.2611 30.0623 12.5267 30.0623 10.4069C30.0623 8.28711 28.328 6.55273 26.2082 6.55273C24.0884 6.55273 22.354 8.28711 22.354 10.4069C22.354 12.5267 24.0884 14.2611 26.2082 14.2611ZM26.2082 7.32357C27.904 7.32357 29.2915 8.71107 29.2915 10.4069C29.2915 12.1027 27.904 13.4902 26.2082 13.4902C24.5123 13.4902 23.1248 12.1027 23.1248 10.4069C23.1248 8.71107 24.5123 7.32357 26.2082 7.32357ZM25.8228 3.08398H26.5936V6.16732H25.8228V3.08398ZM25.8228 14.6465H26.5936V17.7298H25.8228V14.6465ZM30.4478 10.0215H33.5311V10.7923H30.4478V10.0215ZM18.8853 10.0215H21.9686V10.7923H18.8853V10.0215ZM29.0202 13.7731L29.5655 13.2282L31.6637 15.3267L31.1188 15.8717L29.0202 13.7731ZM20.7507 5.48513L21.296 4.94015L23.3946 7.03836L22.8493 7.58372L20.7507 5.48513ZM20.7418 15.3187L22.8404 13.2201L23.3854 13.765L21.2868 15.8636L20.7418 15.3187ZM29.0306 7.04877L31.1288 4.95056L31.6742 5.49554L29.5756 7.59413L29.0306 7.04877ZM29.5613 20.4277H25.7457L23.1248 27.5194H26.478L24.5509 32.3757H27.2488L30.6019 24.8986H27.5957L29.5613 20.4277ZM29.4071 25.6694L26.7478 31.6048H25.6686L27.1717 27.8277L27.5957 26.7871H24.204L26.2853 21.1986H28.405L26.9405 24.5902L26.478 25.6694H29.4071Z" fill="black"/>
</svg>
