<svg width="56" height="55" viewBox="0 0 56 55" fill="none" xmlns="http://www.w3.org/2000/svg">
<path d="M50.5619 9.16602H44.5228C34.198 9.16602 29.1739 13.6993 29.1612 23.0216C27.5686 25.5688 27.0478 28.5155 26.8887 31.8682C26.6113 31.0929 26.2528 30.3465 25.8187 29.6405C26.1208 25.5193 25.085 22.0971 22.8113 19.741C20.3085 17.1477 16.4001 15.8327 11.1949 15.8327H5.43415C5.28067 15.8327 5.13348 15.8912 5.02496 15.9954C4.91644 16.0996 4.85547 16.2409 4.85547 16.3882C4.85547 25.7338 9.51963 30.2771 19.1165 30.2771H24.8587C26.5889 33.121 26.8181 36.566 26.8453 40.836C26.8528 41.9866 26.8505 42.8638 26.8482 43.8905L26.8453 45.8327H28.0027L28.0056 43.8932C28.0079 42.8627 28.0102 41.9832 28.0027 40.8293C28.0001 40.4601 27.9955 40.0908 27.9888 39.7216H28.0027C28.0027 38.8927 27.9969 38.0855 27.9911 37.2988C27.95 31.6866 27.9176 27.2043 30.1438 23.6249L36.4549 23.8427L36.4763 23.8432C46.4811 23.8432 51.1406 19.356 51.1406 9.72157C51.1406 9.57423 51.0796 9.43292 50.9711 9.32873C50.8626 9.22455 50.7154 9.16602 50.5619 9.16602ZM19.1165 29.166C10.3686 29.166 6.19395 25.2788 6.01862 16.9438H11.1949C16.0651 16.9438 19.6876 18.1388 21.963 20.4966C23.7499 22.3482 24.6805 24.971 24.7077 28.1327C23.0225 26.1949 20.481 24.5271 16.6385 23.0927L16.2196 24.1282C20.0603 25.5616 22.5098 27.2138 24.0769 29.166H19.1165ZM36.4861 22.7321L30.9134 22.5399C32.4949 20.5643 34.9202 18.8855 38.6336 17.4599L38.2042 16.4277C34.5585 17.8277 32.0771 19.4799 30.3868 21.3871C30.9499 13.8249 35.4751 10.2771 44.5228 10.2771H49.978C49.8079 18.8816 45.6263 22.7293 36.4861 22.7321Z" fill="black"/>
</svg>
