<svg width="61" height="61" viewBox="0 0 61 61" fill="none" xmlns="http://www.w3.org/2000/svg">
<path d="M55.9168 26.882L55.6055 23.057C55.3958 20.757 53.7056 19.0445 50.9606 18.357L43.2149 16.5758C42.7637 16.4945 42.3443 16.2883 42.0076 15.9758L36.3778 11.9695C34.91 10.6445 32.0315 10.0508 27.0753 10.0508C27.0244 10.0508 21.6425 10.057 17.4868 10.6508C13.3312 11.2445 9.86819 16.0633 9.38527 16.7695C8.72444 17.3133 8.18434 17.707 7.70142 18.0508C5.49017 19.6383 5.07715 20.1133 5.07715 25.482V27.557C5.07715 29.282 6.03663 30.057 6.9834 30.057H10.7959V29.9695C11.6664 31.507 13.3312 32.557 15.2438 32.557C17.1564 32.557 18.8212 31.5133 19.6917 29.9695V30.057H40.0251V29.9695C40.8956 31.507 42.5604 32.557 44.473 32.557C46.3856 32.557 48.0504 31.5133 48.9209 29.9695V30.057H52.7334C53.5976 30.057 54.538 29.6133 55.1798 28.8945C55.7326 28.2758 55.9931 27.5508 55.9041 26.882H55.9168ZM15.2502 31.307C13.1469 31.307 11.4377 29.6258 11.4377 27.557C11.4377 25.4883 13.1469 23.807 15.2502 23.807C17.3534 23.807 19.0627 25.4883 19.0627 27.557C19.0627 29.6258 17.3534 31.307 15.2502 31.307ZM44.4793 31.307C42.3761 31.307 40.6668 29.6258 40.6668 27.557C40.6668 25.4883 42.3761 23.807 44.4793 23.807C46.5826 23.807 48.2918 25.4883 48.2918 27.557C48.2918 29.6258 46.5826 31.307 44.4793 31.307ZM54.233 28.0695C53.8327 28.5195 53.2417 28.807 52.7398 28.807H49.3975C49.5055 28.407 49.5627 27.9883 49.5627 27.557C49.5627 24.8008 47.2815 22.557 44.4793 22.557C41.6772 22.557 39.396 24.8008 39.396 27.557C39.396 27.9883 39.4595 28.407 39.5612 28.807H20.1619C20.27 28.407 20.3271 27.9883 20.3271 27.557C20.3271 24.8008 18.046 22.557 15.2438 22.557C12.4416 22.557 10.1605 24.8008 10.1605 27.557C10.1605 27.9883 10.224 28.407 10.3257 28.807H6.9834C6.59579 28.807 6.34798 28.3133 6.34798 27.557V25.482C6.34798 20.5758 6.58944 20.407 8.45757 19.0633C8.94684 18.7133 9.55684 18.2695 10.2812 17.6695L10.4019 17.5383C10.4337 17.4883 13.8586 12.4383 17.6775 11.8945C21.7378 11.3195 27.0308 11.307 27.0816 11.307C31.6058 11.307 34.3762 11.832 35.5517 12.9133L41.1815 16.9195C41.6899 17.382 42.3189 17.6883 42.967 17.8008L50.6683 19.5758C51.9518 19.8945 54.1313 20.7883 54.3474 23.1633L54.6587 27.007C54.7159 27.4633 54.4236 27.8695 54.2457 28.0695H54.233Z" fill="black"/>
<path d="M35.583 34.4316C35.583 33.4004 34.7252 32.5566 33.6768 32.5566C32.6283 32.5566 31.7705 33.4004 31.7705 34.4316V38.8066H29.2288V34.4316C29.2288 33.4004 28.371 32.5566 27.3226 32.5566C26.2742 32.5566 25.4163 33.4004 25.4163 34.4316V38.8066H24.1455V42.5566L26.8524 51.3066H27.958V55.0566H33.0413V51.3066H34.147L36.8284 42.7379L36.8538 38.8066H35.583V34.4316ZM33.0413 34.4316C33.0413 34.0879 33.3273 33.8066 33.6768 33.8066C34.0262 33.8066 34.3122 34.0879 34.3122 34.4316V38.8066H33.0413V34.4316ZM26.6872 34.4316C26.6872 34.0879 26.9731 33.8066 27.3226 33.8066C27.6721 33.8066 27.958 34.0879 27.958 34.4316V38.8066H26.6872V34.4316ZM31.7705 53.8066H29.2288V51.3066H31.7705V53.8066ZM35.583 42.4629L33.2065 50.0566H27.7928L25.4163 42.4629V40.0566H35.583V42.4629Z" fill="black"/>
</svg>
