<svg width="71" height="71" viewBox="0 0 71 71" fill="none" xmlns="http://www.w3.org/2000/svg">
<path d="M61.0982 32.9886L35.5 11.7217L9.90179 32.9886L8.875 31.7522L35.5 9.63281L62.125 31.7522L61.0982 32.9886Z" fill="black"/>
<path d="M13.4814 61.368V32.6774L35.502 14.4531L57.5193 32.7963V61.2941H26.5276L13.4814 61.368ZM15.0883 33.4335V59.7515L26.5244 59.6873H55.9124V33.5491L35.4988 16.5404L15.0883 33.4335Z" fill="black"/>
<path d="M28.8296 53.5815L28.1884 53.0994C28.0438 52.9909 24.6533 50.4079 24.6533 46.8326C24.6533 44.5268 26.0368 42.9127 27.2573 41.4898C28.3981 40.1585 29.4739 38.9027 29.4739 37.1914C29.4739 34.4276 26.6097 32.231 26.58 32.2093L25.9412 31.7256L26.9045 30.4434L27.5457 30.9254C27.6903 31.0331 31.0808 33.6169 31.0808 37.1922C31.0808 39.4981 29.6973 41.1114 28.4769 42.535C27.336 43.8655 26.2602 45.1221 26.2602 46.8334C26.2602 49.5972 29.1244 51.793 29.1542 51.8147L29.7929 52.2984L28.8296 53.5815ZM44.8983 53.5815L44.2571 53.0994C44.1125 52.9909 40.722 50.4079 40.722 46.8326C40.722 44.5268 42.1055 42.9127 43.3259 41.4898C44.4668 40.1585 45.5426 38.9027 45.5426 37.1914C45.5426 34.4276 42.6784 32.231 42.6486 32.2093L42.0099 31.7256L42.9732 30.4434L43.6144 30.9254C43.759 31.0331 47.1495 33.6169 47.1495 37.1922C47.1495 39.4981 45.766 41.1114 44.5455 42.535C43.4047 43.8655 42.3289 45.1221 42.3289 46.8334C42.3289 49.5972 45.1931 51.793 45.2228 51.8147L45.8616 52.2984L44.8983 53.5815ZM36.8639 53.5815L36.2228 53.0994C36.0782 52.9909 32.6877 50.4079 32.6877 46.8326C32.6877 44.5268 34.0712 42.9127 35.2916 41.4898C36.4325 40.1585 37.5083 38.9027 37.5083 37.1914C37.5083 34.4276 34.644 32.231 34.6143 32.2093L33.9756 31.7256L34.9389 30.4434L35.58 30.9254C35.7246 31.0331 39.1151 33.6169 39.1151 37.1922C39.1151 39.4981 37.7316 41.1114 36.5112 42.535C35.3703 43.8655 34.2945 45.1221 34.2945 46.8334C34.2945 49.5972 37.1588 51.793 37.1885 51.8147L37.8272 52.2984L36.8639 53.5815Z" fill="black"/>
</svg>
