<svg width="70" height="68" viewBox="0 0 70 68" fill="none" xmlns="http://www.w3.org/2000/svg">
<path d="M33.7171 10.6035L7.84277 31.8418L8.67185 32.8514L33.7171 12.2936L58.7623 32.8514L59.5914 31.8418L33.7171 10.6035Z" fill="black"/>
<path d="M53.3017 57.8155H14.1328V32.736L33.7185 16.8594L53.3017 32.6589V40.8359H54.6073V32.0333L33.7159 15.1797L13.0687 31.917L12.8271 32.1136V59.1217H54.6073V52.591H53.3017V57.8155Z" fill="black"/>
<path d="M49.3842 46.0615H51.9955V47.3676H49.3842V46.0615ZM45.4674 46.0615H48.0786V47.3676H45.4674V46.0615ZM53.3011 46.0615H55.9124V47.3676H53.3011V46.0615ZM29.7998 46.0615H32.4111V47.3676H29.7998V46.0615ZM41.5505 46.0615H44.1617V47.3676H41.5505V46.0615ZM33.7167 46.0615H36.328V47.3676H33.7167V46.0615ZM37.6336 46.0615H40.2448V47.3676H37.6336V46.0615ZM55.9124 49.9798V43.4492L59.8293 46.7145L55.9124 49.9798Z" fill="black"/>
</svg>
