<svg width="73" height="73" viewBox="0 0 73 73" fill="none" xmlns="http://www.w3.org/2000/svg">
<g clip-path="url(#clip0_624_10729)">
<path d="M45.375 63.1257H33.5417V42.4173H27.625V30.584H45.375V63.1257ZM36.5 60.1673H42.4167V33.5423H30.5833V39.459H36.5V60.1673Z" fill="black" stroke="white" stroke-width="0.5"/>
<path d="M37.9779 24.6667C36.5151 24.6667 35.0852 24.2329 33.869 23.4202C32.6527 22.6076 31.7048 21.4525 31.145 20.1011C30.5852 18.7497 30.4388 17.2626 30.7241 15.828C31.0095 14.3933 31.7139 13.0755 32.7482 12.0412C33.7826 11.0069 35.1004 10.3025 36.535 10.0171C37.9697 9.73174 39.4567 9.8782 40.8081 10.438C42.1595 10.9978 43.3146 11.9457 44.1273 13.1619C44.9399 14.3782 45.3737 15.8081 45.3737 17.2708C45.3719 19.2318 44.5921 21.1119 43.2055 22.4985C41.8189 23.8851 39.9388 24.6649 37.9779 24.6667ZM37.9779 12.8333C37.1002 12.8333 36.2423 13.0936 35.5125 13.5812C34.7828 14.0688 34.214 14.7618 33.8782 15.5727C33.5423 16.3835 33.4544 17.2758 33.6256 18.1366C33.7969 18.9973 34.2195 19.788 34.8401 20.4086C35.4607 21.0292 36.2514 21.4519 37.1122 21.6231C37.9729 21.7943 38.8652 21.7064 39.676 21.3706C40.4869 21.0347 41.1799 20.4659 41.6675 19.7362C42.1551 19.0064 42.4154 18.1485 42.4154 17.2708C42.4141 16.0943 41.9462 14.9664 41.1142 14.1345C40.2823 13.3026 39.1544 12.8346 37.9779 12.8333Z" fill="black" stroke="white" stroke-width="0.5"/>
<path d="M72 72H1V1H72V72ZM3.95833 69.0417H69.0417V3.95833H3.95833V69.0417Z" fill="black"/>
</g>
<rect x="1" y="1" width="71" height="71" stroke="white"/>
<defs>
<clipPath id="clip0_624_10729">
<rect x="1" y="1" width="71" height="71" fill="white"/>
</clipPath>
</defs>
</svg>
