<svg width="26" height="26" viewBox="0 0 26 26" fill="none" xmlns="http://www.w3.org/2000/svg">
<g clip-path="url(#clip0_1449_36461)">
<path d="M16 22H12V15H10V11H16V22ZM13 21H15V12H11V14H13V21Z" fill="black" stroke="white" stroke-width="0.5"/>
<path d="M13.5 9C13.0055 9 12.5222 8.85338 12.1111 8.57867C11.7 8.30397 11.3795 7.91352 11.1903 7.45671C11.0011 6.99989 10.9516 6.49723 11.048 6.01228C11.1445 5.52732 11.3826 5.08187 11.7322 4.73223C12.0819 4.3826 12.5273 4.1445 13.0123 4.04804C13.4972 3.95157 13.9999 4.00108 14.4567 4.1903C14.9135 4.37952 15.304 4.69995 15.5787 5.11108C15.8534 5.5222 16 6.00555 16 6.5C15.9994 7.16285 15.7358 7.79838 15.2671 8.26709C14.7984 8.7358 14.1629 8.99939 13.5 9ZM13.5 5C13.2033 5 12.9133 5.08797 12.6666 5.2528C12.42 5.41762 12.2277 5.65189 12.1142 5.92598C12.0007 6.20007 11.9709 6.50167 12.0288 6.79264C12.0867 7.08361 12.2296 7.35088 12.4393 7.56066C12.6491 7.77044 12.9164 7.9133 13.2074 7.97118C13.4983 8.02906 13.7999 7.99935 14.074 7.88582C14.3481 7.77229 14.5824 7.58003 14.7472 7.33336C14.912 7.08668 15 6.79667 15 6.5C14.9996 6.10231 14.8414 5.72103 14.5602 5.43982C14.279 5.15861 13.8977 5.00044 13.5 5Z" fill="black" stroke="white" stroke-width="0.5"/>
<path d="M25 25H1V1H25V25ZM2 24H24V2H2V24Z" fill="black"/>
</g>
<rect x="1" y="1" width="24" height="24" stroke="white"/>
<defs>
<clipPath id="clip0_1449_36461">
<rect x="1" y="1" width="24" height="24" fill="white"/>
</clipPath>
</defs>
</svg>
