<svg width="70" height="68" viewBox="0 0 70 68" fill="none" xmlns="http://www.w3.org/2000/svg">
<path d="M34.9931 13.4115C38.4899 17.2202 49.7076 30.2578 49.7076 40.8169C49.7076 44.6493 48.1581 48.3247 45.3998 51.0346C42.6415 53.7445 38.9004 55.2669 34.9996 55.2669C31.0988 55.2669 27.3577 53.7445 24.5995 51.0346C21.8412 48.3247 20.2916 44.6493 20.2916 40.8169C20.2916 30.0807 31.4906 17.1827 34.9931 13.4115ZM34.9996 11.334C34.9996 11.334 18.8496 27.4117 18.8496 40.8162C18.8496 45.0243 20.5511 49.0601 23.5798 52.0357C26.6085 55.0112 30.7164 56.6829 34.9996 56.6829C39.2829 56.6829 43.3907 55.0112 46.4194 52.0357C49.4481 49.0601 51.1496 45.0243 51.1496 40.8162C51.1496 27.6384 34.9996 11.334 34.9996 11.334Z" fill="black"/>
<path d="M34.6952 53.1258C31.3735 53.1221 28.1888 51.824 25.84 49.5163C23.4911 47.2087 22.1698 44.0799 22.166 40.8164H23.608C23.6112 43.7044 24.7804 46.4731 26.8589 48.5152C28.9375 50.5573 31.7557 51.706 34.6952 51.7092V53.1258Z" fill="black"/>
</svg>
