<svg width="20" height="20" viewBox="0 0 20 20" fill="none" xmlns="http://www.w3.org/2000/svg">
<path d="M2 9.26825H3.26C3.93138 9.26825 4.325 9.62475 4.325 10.2299C4.325 10.8059 3.93963 11.1459 3.289 11.1459H2.66313V12.2317H2V9.26825ZM3.2185 10.6526C3.51688 10.6526 3.6785 10.4992 3.6785 10.2174C3.6785 9.93563 3.52525 9.79463 3.22262 9.79463H2.66313V10.6526H3.2185ZM4.83125 9.26825H5.9295C6.86625 9.26825 7.40913 9.807 7.40913 10.7396C7.40913 11.6888 6.86212 12.2317 5.90887 12.2317H4.83125V9.26825ZM5.942 11.7054C6.44763 11.7054 6.717 11.3696 6.717 10.7479C6.717 10.1304 6.4435 9.79463 5.93787 9.79463H5.49438V11.7054H5.942ZM7.95675 9.26825H10V9.803H8.61987V10.5863H9.685V11.1044H8.62V12.2317H7.95687L7.95675 9.26825ZM15.7267 0H5.5V7H0V14.5H5.5V20H19.5V4.31213L15.7269 0H15.7267ZM16 1.83075L17.8981 4H16V1.83075ZM1 8H11V13.5H1V8ZM6.5 19V14.5H12V7H6.5V1H15V5H18.5V19H6.5Z" fill="black"/>
</svg>
