<svg width="40" height="45" viewBox="0 0 40 45" fill="none" xmlns="http://www.w3.org/2000/svg">
<path d="M12.23 16.0527H0.132812V42.4069H17.5807V16.0527H12.23ZM12.23 28.5996H9.55469V23.5007H12.23V28.5996ZM12.23 34.9017H9.55469V29.8027H12.23V34.9017ZM5.48351 29.8027H8.15885V34.9017H5.48351V29.8027ZM5.48351 23.5007H8.15885V28.5996H5.48351V23.5007ZM4.14583 28.5996H1.29601V23.5007H4.14583V28.5996ZM4.14583 34.9017H1.29601V29.8027H4.14583V34.9017ZM13.5677 29.8027H16.4175V34.9017H13.5677V29.8027ZM13.5677 23.5007H16.4175V28.5996H13.5677V23.5007ZM12.23 17.1986V22.2975H9.55469V17.1986H12.23ZM8.15885 17.1986V22.2975H5.48351V17.1986H8.15885ZM1.29601 17.1986H4.14583V22.2975H1.29601V17.1986ZM1.29601 41.2611V36.1048H4.14583V41.2611H1.29601ZM5.48351 41.2611V36.1048H8.15885V41.2611H5.48351ZM9.55469 41.2611V36.1048H12.23V41.2611H9.55469ZM16.4175 41.2611H13.5677V36.1048H16.4175V41.2611ZM16.4175 17.1986V22.2975H13.5677V17.1986H16.4175ZM28.6311 17.1986C31.8299 17.1986 34.4471 14.6204 34.4471 11.4694C34.4471 8.31836 31.8299 5.74023 28.6311 5.74023C25.4323 5.74023 22.8151 8.31836 22.8151 11.4694C22.8151 14.6204 25.4323 17.1986 28.6311 17.1986ZM28.6311 6.88607C31.1901 6.88607 33.2839 8.94857 33.2839 11.4694C33.2839 13.9902 31.1901 16.0527 28.6311 16.0527C26.0721 16.0527 23.9783 13.9902 23.9783 11.4694C23.9783 8.94857 26.0721 6.88607 28.6311 6.88607ZM28.0495 0.583984H29.2127V5.16732H28.0495V0.583984ZM28.0495 17.7715H29.2127V22.3548H28.0495V17.7715ZM35.0286 10.8965H39.6814V12.0423H35.0286V10.8965ZM17.5807 10.8965H22.2335V12.0423H17.5807V10.8965ZM32.8744 16.4733L33.6974 15.6632L36.8636 18.7827L36.0412 19.5928L32.8744 16.4733ZM20.3957 4.15325L21.2186 3.34315L24.3854 6.46211L23.5625 7.27279L20.3957 4.15325ZM20.3823 18.7707L23.5491 15.6511L24.3715 16.4612L21.2047 19.5808L20.3823 18.7707ZM32.8901 6.47758L36.0563 3.35862L36.8793 4.16872L33.7125 7.28826L32.8901 6.47758ZM33.691 26.3652H27.9332L23.9783 36.9069H29.0382L26.1302 44.1257H30.2014L35.2613 33.0111H30.7248L33.691 26.3652ZM33.4583 34.1569L29.4453 42.9798H27.8168L30.0851 37.3652L30.7248 35.8184H25.6068L28.7474 27.5111H31.9462L29.7361 32.5527L29.0382 34.1569H33.4583Z" fill="black"/>
</svg>
