<svg width="24" height="24" viewBox="0 0 24 24" fill="none" xmlns="http://www.w3.org/2000/svg">
<path d="M12 7C9.2385 7 7 9.2385 7 12C7 14.7615 9.2385 17 12 17C14.7615 17 17 14.7615 17 12C17 10.6739 16.4732 9.40215 15.5355 8.46447C14.5979 7.52678 13.3261 7 12 7ZM12 16.5C9.51475 16.5 7.5 14.4853 7.5 12C7.5 9.51475 9.51475 7.5 12 7.5C14.4853 7.5 16.5 9.51475 16.5 12C16.4972 14.484 14.484 16.4972 12 16.5ZM11.75 18H12.25V22H11.75V18ZM11.75 2H12.25V5.94725H11.75V2ZM18 11.75H22V12.25H18V11.75ZM2 11.75H6V12.25H2V11.75ZM16.103 16.4565L16.4568 16.103L19.248 18.8943L18.8945 19.2477L16.103 16.4565ZM4.752 5.10575L5.1055 4.75225L7.897 7.5435L7.54325 7.897L4.752 5.10575ZM16.103 7.54325L18.8943 4.752L19.2477 5.1055L16.4565 7.897L16.103 7.54325ZM4.75225 18.8945L7.5435 16.103L7.897 16.4568L5.10575 19.248L4.75225 18.8945Z" fill="#002D59"/>
</svg>
