<svg width="37" height="37" viewBox="0 0 37 37" fill="none" xmlns="http://www.w3.org/2000/svg">
<path d="M26.9792 5.01107V31.9902H10.0208V5.01107H26.9792ZM27.75 4.24023H9.25V32.7611H27.75V4.24023Z" fill="black"/>
<path d="M14.3213 6.16732V11.8117H11.1771V6.16732H14.3213ZM15.0921 5.39648H10.4062V12.5826H15.0921V5.39648Z" fill="black"/>
<path d="M18.1548 6.16732V11.8117H15.0106V6.16732H18.1548ZM18.9256 5.39648H14.2397V12.5826H18.9256V5.39648Z" fill="black"/>
<path d="M21.9893 6.16732V11.8117H18.8451V6.16732H21.9893ZM22.7601 5.39648H18.0742V12.5826H22.7601V5.39648Z" fill="black"/>
<path d="M25.8229 6.16732V11.8117H22.6787V6.16732H25.8229ZM26.5938 5.39648H21.9079V12.5826H26.5938V5.39648ZM14.3213 12.5082V18.1526H11.1771V12.5082H14.3213ZM15.0921 11.7374H10.4062V18.9235H15.0921V11.7374Z" fill="black"/>
<path d="M18.1548 12.5072V18.1516H15.0106V12.5072H18.1548ZM18.9256 11.7363H14.2397V18.9224H18.9256V11.7363Z" fill="black"/>
<path d="M21.9893 12.5072V18.1516H18.8451V12.5072H21.9893ZM22.7601 11.7363H18.0742V18.9224H22.7601V11.7363Z" fill="black"/>
<path d="M25.8229 12.5072V18.1516H22.6787V12.5072H25.8229ZM26.5938 11.7363H21.9079V18.9224H26.5938V11.7363ZM14.3213 18.8477V24.4921H11.1771V18.8477H14.3213ZM15.0921 18.0768H10.4062V25.2629H15.0921V18.0768Z" fill="black"/>
<path d="M18.1548 18.849V24.4934H15.0106V18.849H18.1548ZM18.9256 18.0781H14.2397V25.2642H18.9256V18.0781Z" fill="black"/>
<path d="M21.9893 18.849V24.4934H18.8451V18.849H21.9893ZM22.7601 18.0781H18.0742V25.2642H22.7601V18.0781Z" fill="black"/>
<path d="M25.8229 18.849V24.4934H22.6787V18.849H25.8229ZM26.5938 18.0781H21.9079V25.2642H26.5938V18.0781ZM14.3213 25.1898V30.8343H11.1771V25.1898H14.3213ZM15.0921 24.419H10.4062V31.6051H15.0921V24.419Z" fill="black"/>
<path d="M18.1548 25.1888V30.8332H15.0106V25.1888H18.1548ZM18.9256 24.418H14.2397V31.6041H18.9256V24.418Z" fill="black"/>
<path d="M21.9893 25.1888V30.8332H18.8451V25.1888H21.9893ZM22.7601 24.418H18.0742V31.6041H22.7601V24.418Z" fill="black"/>
<path d="M25.8228 25.1888V30.8332H22.6785V25.1888H25.8228ZM26.5936 24.418H21.9077V31.6041H26.5936V24.418Z" fill="black"/>
</svg>
