<svg width="57" height="55" viewBox="0 0 57 55" fill="none" xmlns="http://www.w3.org/2000/svg">
<path d="M42.6925 17.1868V40.1035H11.2862V17.1868H42.6925ZM43.8557 16.041H10.123V41.2493H43.8557V16.041ZM48.2351 18.1075C48.5364 18.1078 48.8309 18.196 49.0814 18.3611C49.3318 18.5261 49.5269 18.7606 49.6421 19.0349C49.7572 19.3092 49.7872 19.611 49.7283 19.9021C49.6694 20.1932 49.5242 20.4606 49.311 20.6704C49.0979 20.8802 48.8264 21.023 48.5308 21.0809C48.2352 21.1387 47.9289 21.1089 47.6506 20.9952C47.3722 20.8816 47.1343 20.6892 46.9669 20.4424C46.7995 20.1956 46.7102 19.9054 46.7102 19.6086C46.7108 19.2106 46.8716 18.829 47.1574 18.5476C47.4431 18.2663 47.8311 18.108 48.2351 18.1075ZM48.2345 16.9617C47.7031 16.9618 47.1837 17.1171 46.7419 17.4081C46.3001 17.699 45.9558 18.1124 45.7525 18.596C45.5492 19.0797 45.4961 19.6119 45.5998 20.1253C45.7036 20.6387 45.9595 21.1103 46.3353 21.4804C46.7111 21.8505 47.1899 22.1025 47.7111 22.2046C48.2323 22.3067 48.7726 22.2543 49.2635 22.0539C49.7545 21.8536 50.1741 21.5143 50.4693 21.079C50.7645 20.6438 50.9221 20.132 50.9221 19.6086C50.9221 18.9066 50.639 18.2333 50.1351 17.7369C49.6312 17.2406 48.9472 16.9617 48.2345 16.9617Z" fill="black"/>
<path d="M14.7754 19.4785H15.9386V37.8118H14.7754V19.4785ZM19.4282 19.4785H20.5914V37.8118H19.4282V19.4785ZM24.0809 19.4785H25.2441V37.8118H24.0809V19.4785ZM28.7337 19.4785H29.8969V37.8118H28.7337V19.4785ZM33.3865 19.4785H34.5497V37.8118H33.3865V19.4785ZM38.0393 19.4785H39.2025V37.8118H38.0393V19.4785Z" fill="black"/>
</svg>
