<svg width="57" height="55" viewBox="0 0 57 55" fill="none" xmlns="http://www.w3.org/2000/svg">
<path d="M45.6005 50.36H16.4044C15.7064 50.36 14.7759 49.2715 14.7759 48.0684C14.7177 46.8652 15.7064 45.834 16.9278 45.7767H35.3063C35.8879 45.7767 36.3531 45.2611 36.3531 44.6882C36.3531 44.0579 35.8879 43.5423 35.3063 43.5423H16.9859C15.7064 43.485 14.7759 42.4538 14.7759 41.2507C14.7177 40.0475 15.7064 39.0163 16.9278 39.0163H35.3063C35.8879 39.0163 36.3531 38.5007 36.3531 37.8704C36.3531 37.2402 35.8879 36.7246 35.3063 36.7246H16.9859C15.7064 36.6673 14.7759 35.6361 14.7759 34.4329C14.7177 33.2298 15.7064 32.1986 16.9278 32.1986H38.5632C39.8427 32.2559 40.7733 33.2871 40.7733 34.4902V44.7454C40.7733 45.3757 41.2386 45.834 41.8202 45.8913H46.1821V47.0371H41.762C40.4825 46.9798 39.5519 45.9486 39.5519 44.7454V34.4902C39.5519 33.86 39.0866 33.4017 38.505 33.3444H16.9278C16.3462 33.3444 15.8809 33.86 15.8809 34.4902C15.8809 35.1204 16.3462 35.6361 16.9278 35.6361H35.2481C36.5276 35.6934 37.4582 36.7246 37.4582 37.9277C37.5163 39.1309 36.5276 40.1621 35.3063 40.1621H16.9278C16.3462 40.1621 15.8809 40.6777 15.8809 41.3079C15.8809 41.9382 16.3462 42.4538 16.9278 42.4538H35.2481C36.5276 42.5111 37.4582 43.5423 37.4582 44.7454C37.5163 45.9486 36.5276 46.9798 35.3063 46.9798H16.9278C16.3462 46.9798 15.8809 47.4954 15.8809 48.1257C15.8809 48.6986 16.2299 49.1569 16.4044 49.2715H45.6005V50.36ZM39.203 7.44857V25.209H15.9391V7.44857H39.203ZM40.3662 6.30273H14.7759V26.3548H40.3662V6.30273ZM43.4486 8.19336C43.9721 8.19336 44.4373 8.65169 44.4373 9.16732C44.4373 9.68294 43.9721 10.1413 43.4486 10.1413C42.9252 10.1413 42.4599 9.68294 42.4599 9.16732C42.4599 8.5944 42.9252 8.19336 43.4486 8.19336ZM43.4486 7.04753C42.2854 7.04753 41.2967 8.02148 41.2967 9.16732C41.2967 10.3132 42.2854 11.2871 43.4486 11.2871C44.6118 11.2871 45.6005 10.3132 45.6005 9.16732C45.6005 7.96419 44.6118 7.04753 43.4486 7.04753Z" fill="black"/>
<path d="M18.2656 9.16602H19.4288V23.4889H18.2656V9.16602ZM21.7552 9.16602H22.9184V23.4889H21.7552V9.16602ZM25.2448 9.16602H26.408V23.4889H25.2448V9.16602ZM35.7135 9.16602H36.8767V23.4889H35.7135V9.16602ZM32.224 9.16602H33.3872V23.4889H32.224V9.16602ZM28.7344 9.16602H29.8976V23.4889H28.7344V9.16602Z" fill="black"/>
</svg>
