<svg width="56" height="55" viewBox="0 0 56 55" fill="none" xmlns="http://www.w3.org/2000/svg">
<path d="M34.4746 41.2493H21.5236V40.6764C21.5236 34.2351 16.5882 29.3189 16.5382 29.2697L16.3672 29.1018V19.4785H39.6311V29.1012L39.4601 29.2697C39.4101 29.3184 34.4746 34.2495 34.4746 40.6764V41.2493ZM22.6752 40.1035H33.3231C33.5673 34.0988 37.5687 29.5762 38.4679 28.6332V20.6243H17.5304V28.6332C18.4295 29.5762 22.4315 34.0988 22.6752 40.1035Z" fill="black"/>
<path d="M25.0904 20.5574H19.8555L19.8584 10.5296C19.8584 9.54534 21.0239 8.35654 22.4709 8.35654C23.9179 8.35654 25.0834 9.54534 25.0834 10.5296L25.0898 19.9845L25.0904 20.5574ZM21.0187 19.4115H23.9261L23.9203 10.5296C23.8185 10.2303 23.6238 9.97004 23.3638 9.78566C23.1037 9.60127 22.7913 9.50206 22.4709 9.50206C22.1505 9.50206 21.8381 9.60127 21.5781 9.78566C21.318 9.97004 21.1233 10.2303 21.0216 10.5296L21.0187 19.4115ZM36.1408 20.5574H30.9058L30.9087 10.4998C30.9087 9.51555 32.0742 8.32617 33.5213 8.32617C34.9683 8.32617 36.1338 9.51555 36.1338 10.4998L36.1402 19.9845L36.1408 20.5574ZM32.069 19.4115H34.9764L34.9706 10.4998C34.8689 10.2005 34.6742 9.94025 34.4141 9.75586C34.154 9.57147 33.8417 9.47227 33.5213 9.47227C33.2008 9.47227 32.8885 9.57147 32.6284 9.75586C32.3683 9.94025 32.1737 10.2005 32.0719 10.4998L32.069 19.4115ZM30.8587 45.8333H25.0264L24.3268 40.2353H31.6828L30.8587 45.8333ZM26.0553 44.6875H29.8525L30.3388 41.3812H25.6424L26.0553 44.6875Z" fill="black"/>
</svg>
