<svg width="26" height="26" viewBox="0 0 26 26" fill="none" xmlns="http://www.w3.org/2000/svg">
<path d="M7.60668 7.59684V7.56363H7.57346H6.7999L7.69336 4.8672H10.2007L11.0941 7.56363H10.3205H10.2873V7.59684V12.6304V12.6494L10.3037 12.659C10.7175 12.9018 10.9726 13.3469 10.9741 13.8289V20.0141C10.9733 20.7672 10.3666 21.3771 9.61831 21.3779H8.2757C7.52744 21.3771 6.92074 20.7672 6.91991 20.0141L6.91991 13.8288C6.9214 13.3469 7.17651 12.9018 7.59027 12.659L7.60668 12.6494V12.6304V7.59684ZM8.16433 5.49148H8.14035L8.13281 5.51424L7.67473 6.89567L7.66025 6.93934H7.70626H10.1878H10.2338L10.2193 6.89567L9.76122 5.51424L9.75367 5.49148H9.72969H8.16433ZM10.3538 20.0142V20.0142V13.8288V13.8287C10.3532 13.4208 10.0245 13.09 9.6184 13.0893H9.61835H8.27566H8.27561C7.86956 13.09 7.54086 13.4208 7.54025 13.8287V13.8288L7.54025 20.0142L7.54025 20.0142C7.54086 20.4222 7.86956 20.753 8.27561 20.7536H8.27566H9.61835H9.6184C10.0245 20.753 10.3532 20.4222 10.3538 20.0142ZM9.63378 12.4651H9.66699V12.4318V7.59684V7.56363H9.63378H8.26023H8.22702V7.59684V12.4318V12.4651H8.26023H9.63378Z" fill="black" stroke="white" stroke-width="0.0664286"/>
<path d="M17.1941 7.63006H17.2273V7.59684V4.86747C18.5668 4.88957 19.908 6.24546 19.908 8.28756C19.908 9.56109 18.9187 10.3838 17.8637 11.022L17.8477 11.0317V11.0504V21.3779H14.4802V11.0504V11.0317L14.4642 11.022C13.4085 10.3834 12.4199 9.6489 12.4199 8.28756C12.4199 6.24714 13.8386 4.89097 15.1006 4.86751V7.59684V7.63006H15.1338H17.1941ZM17.8477 8.25434H14.4802V5.71119V5.65283L14.4301 5.68263C13.5202 6.22304 12.9846 7.22736 13.0403 8.28843C13.0407 9.24949 13.6902 9.82538 14.7838 10.4869L15.1006 10.6785V20.7204V20.7536H15.1338H17.1941H17.2273V20.7204V10.6785L17.5441 10.4869C18.7565 9.75356 19.2871 9.09593 19.2876 8.28869C19.3603 7.21799 18.8212 6.19878 17.8976 5.66088L17.8477 5.6318V5.68958V8.25434Z" fill="black" stroke="white" stroke-width="0.0664286"/>
</svg>
