<svg width="51" height="51" viewBox="0 0 51 51" fill="none" xmlns="http://www.w3.org/2000/svg">
<rect x="1.08789" y="0.890625" width="48.5" height="48.5" rx="24.25" fill="white"/>
<path d="M36.1165 25.5134L30.5751 24.5475L27.9313 22.7847C27.468 22.4491 26.8452 22.0623 26.1173 22.0256C25.9709 22.019 25.8244 22.0158 25.6779 22.0159L24.7162 23.2655H25.4626C25.6605 23.2647 25.8652 23.2645 26.054 23.2741C26.4587 23.2945 26.8824 23.5678 27.2065 23.8034L30.1009 25.7336L35.906 26.7456C36.2732 26.8072 36.5879 27.2561 36.5879 27.5806V30.1406H35.2557C34.9771 29.0641 34.0002 28.2656 32.8379 28.2656C31.6755 28.2656 30.6988 29.0641 30.4202 30.1406H23.3807C23.1021 29.0641 22.1252 28.2656 20.9629 28.2656C19.8721 28.2656 18.9445 28.9691 18.604 29.9453L17.8379 29.6903V26.5725C18.091 26.2162 18.8715 25.1912 19.5823 24.2733L18.5937 23.5081C16.5879 26.0987 16.5879 26.1208 16.5879 26.3906V28.067C16.2284 27.8342 15.9629 27.428 15.9629 27.0155V23.8087C17.0405 23.5308 17.8379 22.555 17.8379 21.3906V20.1406H17.2129V18.2656H15.9629V20.1406H14.7129V18.2656H13.4629V20.1406H12.8379V21.3906C12.8379 22.5552 13.6352 23.5308 14.7129 23.8087V27.0156C14.7129 28.1108 15.5485 29.1211 16.5879 29.4223V30.5911L18.5082 31.2311C18.727 32.3877 19.7437 33.2655 20.9629 33.2655C22.1254 33.2655 23.102 32.467 23.3807 31.3905H30.4202C30.6988 32.467 31.6757 33.2655 32.8379 33.2655C34.0001 33.2655 34.977 32.467 35.2557 31.3905H37.8379V27.5806C37.8379 26.6162 37.0477 25.6692 36.1165 25.5134ZM20.9629 32.0156C20.2738 32.0156 19.7129 31.4547 19.7129 30.7656C19.7129 30.0762 20.2738 29.5156 20.9629 29.5156C21.652 29.5156 22.2129 30.0762 22.2129 30.7656C22.2129 31.4547 21.6523 32.0156 20.9629 32.0156ZM34.0868 30.7897C34.0737 31.4678 33.5191 32.0156 32.8379 32.0156C32.1488 32.0156 31.5879 31.4547 31.5879 30.7656C31.5879 30.0762 32.1488 29.5156 32.8379 29.5156C33.5191 29.5156 34.0738 30.0634 34.0868 30.7414V30.7897ZM22.2129 22.3803H19.7129L23.6415 17.6406L22.2129 21.2864H24.7129L20.7843 26.3906L22.2129 22.3803Z" fill="#C535BC"/>
<rect x="1.08789" y="0.890625" width="48.5" height="48.5" rx="24.25" stroke="#C535BC" stroke-width="1.5"/>
</svg>
