<svg width="51" height="54" viewBox="0 0 51 54" fill="none" xmlns="http://www.w3.org/2000/svg">
<rect x="1.75" y="1.73828" width="48.5" height="48.5" rx="24.25" fill="white"/>
<path d="M32.1406 37.2383L29.25 21.6133H32.875V19.9727L28.4375 16.2695L27.7344 13.4883H24.2656L23.5781 16.2695L19.125 19.9727V21.6133H22.75L19.8594 37.2383H17.875V38.4883H34.125V37.2383H32.1406ZM22.6406 29.0352L22.9219 27.5508L26 25.5977L29.0781 27.5508L29.4531 29.5664L26.2812 31.4727L22.6406 29.0352ZM25.0937 32.1758L21.6875 34.2227L22.4062 30.3789L25.0937 32.1758ZM23.2344 25.8789L23.5781 24.0508L24.8437 24.8633L23.2344 25.8789ZM27.1719 24.8477L28.4375 24.0352L28.7812 25.8633L27.1719 24.8477ZM29.6875 30.8789L30.2969 34.1445L27.4375 32.2383L29.6875 30.8789ZM26.7656 14.7383L27.0781 15.9883H24.9219L25.2344 14.7383H26.7656ZM24.3437 17.2383H27.6406L31.3906 20.3633H20.5938L24.3437 17.2383ZM27.9844 21.6133L28.1875 22.7227L26 24.1133L23.8125 22.7227L24.0156 21.6133H27.9844ZM21.375 35.8633L26.2344 32.9414L30.6094 35.8633L30.8594 37.2383H21.125L21.375 35.8633Z" fill="#A4ABB3"/>
<rect x="1.75" y="1.73828" width="48.5" height="48.5" rx="24.25" stroke="#A4ABB3" stroke-width="1.5"/>
<path d="M0 52.9922C0 53.2683 0.223858 53.4922 0.5 53.4922H5C5.27614 53.4922 5.5 53.2683 5.5 52.9922C5.5 52.716 5.27614 52.4922 5 52.4922H1V48.4922C1 48.216 0.776142 47.9922 0.5 47.9922C0.223858 47.9922 0 48.216 0 48.4922V52.9922ZM7.64645 45.1386L0.146447 52.6386L0.853553 53.3457L8.35355 45.8457L7.64645 45.1386Z" fill="#A4ABB3"/>
</svg>
