<svg width="51" height="50" viewBox="0 0 51 50" fill="none" xmlns="http://www.w3.org/2000/svg">
<rect x="0.916016" y="0.75" width="48.5" height="48.5" rx="24.25" fill="white"/>
<path d="M32.6763 12.5H17.6557C16.2829 12.5 15.166 13.6169 15.166 14.9897V35.0103C15.166 36.3831 16.2829 37.5 17.6557 37.5H32.6763C34.0491 37.5 35.166 36.3831 35.166 35.0103V14.9897C35.166 13.6169 34.0491 12.5 32.6763 12.5ZM33.916 35.0103C33.916 35.6939 33.3598 36.25 32.6763 36.25H17.6557C16.9723 36.25 16.416 35.6938 16.416 35.0103V18.75H33.916V35.0103ZM33.916 17.5H16.416V14.9897C16.416 14.3063 16.9723 13.75 17.6557 13.75H32.6763C33.3599 13.75 33.916 14.3063 33.916 14.9897V17.5Z" fill="#9E2896"/>
<path d="M30.166 15H32.041V16.25H30.166V15ZM27.666 15H29.541V16.25H27.666V15ZM25.166 15H27.041V16.25H25.166V15ZM18.291 15H23.291V16.25H18.291V15ZM25.166 33.75C28.6123 33.75 31.416 30.9463 31.416 27.5C31.416 24.0538 28.6123 21.25 25.166 21.25C21.7198 21.25 18.916 24.0538 18.916 27.5C18.916 30.9463 21.7198 33.75 25.166 33.75ZM25.166 22.5C27.923 22.5 30.166 24.743 30.166 27.5C30.166 30.257 27.923 32.5 25.166 32.5C22.409 32.5 20.166 30.257 20.166 27.5C20.166 24.743 22.409 22.5 25.166 22.5Z" fill="#9E2896"/>
<path d="M23.9815 30.9458C24.681 30.9458 25.1282 30.6775 25.4874 30.462C25.7832 30.2845 25.9968 30.1563 26.3501 30.1563C26.8576 30.1563 27.2237 30.4995 27.2238 30.4995L28.1079 29.6156C28.0352 29.5431 27.369 28.9063 26.3501 28.9063C25.6507 28.9063 25.2035 29.1745 24.8443 29.39C24.5485 29.5675 24.3349 29.6958 23.9816 29.6958C23.5116 29.6958 23.1538 29.2723 23.1504 29.268L22.1777 30.0533C22.2509 30.1447 22.9223 30.9458 23.9815 30.9458ZM23.9815 28.4269C24.681 28.4269 25.1282 28.1586 25.4874 27.9431C25.7832 27.7656 25.9968 27.6373 26.3501 27.6373C26.8576 27.6373 27.2237 27.9808 27.2238 27.9808L28.1079 27.0967C28.0352 27.0242 27.369 26.3873 26.3501 26.3873C25.6507 26.3873 25.2035 26.6556 24.8443 26.8712C24.5485 27.0486 24.3349 27.1769 23.9816 27.1769C23.5116 27.1769 23.1538 26.7534 23.1504 26.7491L22.1777 27.5345C22.2509 27.6258 22.9223 28.4269 23.9815 28.4269ZM23.9815 25.9458C24.681 25.9458 25.1282 25.6775 25.4874 25.462C25.7832 25.2844 25.9968 25.1563 26.3502 25.1563C26.8577 25.1563 27.2238 25.4995 27.224 25.4995L28.108 24.6156C28.0354 24.5431 27.3691 23.9062 26.3502 23.9062C25.6509 23.9062 25.2037 24.1745 24.8445 24.39C24.5487 24.5675 24.3351 24.6958 23.9818 24.6958C23.5118 24.6958 23.154 24.2723 23.1505 24.268L22.1779 25.0533C22.251 25.1447 22.9226 25.9458 23.9818 25.9458H23.9815Z" fill="#9E2896"/>
<rect x="0.916016" y="0.75" width="48.5" height="48.5" rx="24.25" stroke="#9E2896" stroke-width="1.5"/>
</svg>
