<svg width="51" height="51" viewBox="0 0 51 51" fill="none" xmlns="http://www.w3.org/2000/svg">
<rect x="1.01953" y="1.47363" width="48.5" height="48.5" rx="24.25" fill="white"/>
<path d="M17.7688 26.3486C15.4076 26.3486 13.7024 25.0202 13.6309 24.9636L14.4054 23.9824C14.4195 23.9936 15.8548 25.0986 17.7688 25.0986C19.1035 25.0986 19.8673 24.8143 20.6757 24.5129C21.5523 24.1863 22.4588 23.8486 24.0188 23.8486C26.3801 23.8486 28.0852 25.1771 28.1568 25.2336L27.3809 26.2136C27.368 26.2036 25.9329 25.0986 24.0188 25.0986C22.6841 25.0986 21.9204 25.383 21.112 25.6844C20.2354 26.011 19.3288 26.3486 17.7688 26.3486ZM21.112 21.9344C21.9204 21.633 22.6841 21.3486 24.0188 21.3486C25.9327 21.3486 27.368 22.4536 27.3809 22.4636L28.1568 21.4836C28.0852 21.4271 26.3802 20.0986 24.0188 20.0986C22.4588 20.0986 21.5523 20.4364 20.6757 20.7629C19.8673 21.0643 19.1035 21.3486 17.7688 21.3486C15.8549 21.3486 14.4196 20.2436 14.4054 20.2324L13.6309 21.2136C13.7024 21.2702 15.4074 22.5986 17.7688 22.5986C19.3288 22.5986 20.2354 22.2608 21.112 21.9344ZM21.112 18.1844C21.9204 17.883 22.6841 17.5986 24.0188 17.5986C25.9327 17.5986 27.368 18.7036 27.3809 18.7136L28.1568 17.7336C28.0852 17.6771 26.3802 16.3486 24.0188 16.3486C22.4588 16.3486 21.5523 16.6864 20.6757 17.0129C19.8673 17.3143 19.1035 17.5986 17.7688 17.5986C15.8549 17.5986 14.4196 16.4936 14.4054 16.4824L13.6309 17.4636C13.7024 17.5202 15.4074 18.8486 17.7688 18.8486C19.3288 18.8486 20.2354 18.5108 21.112 18.1844ZM34.6438 13.2236H25.2688C24.2349 13.2236 23.3938 14.0647 23.3938 15.0986V15.1107C23.5488 15.1029 23.7051 15.0986 23.8626 15.0986C24.1299 15.0986 24.3885 15.1133 24.6438 15.1347V15.0986C24.6438 14.7539 24.9241 14.4736 25.2688 14.4736H34.6438C34.9885 14.4736 35.2688 14.7539 35.2688 15.0986V36.3486C35.2688 36.6933 34.9885 36.9736 34.6438 36.9736H25.2688C24.9241 36.9736 24.6438 36.6933 24.6438 36.3486V26.401C24.3991 26.3653 24.152 26.3484 23.9048 26.3504C23.7298 26.3519 23.5607 26.3649 23.3938 26.3838V36.3486C23.3938 37.3825 24.2349 38.2236 25.2688 38.2236H34.6438C35.6777 38.2236 36.5188 37.3825 36.5188 36.3486V15.0986C36.5188 14.0647 35.6777 13.2236 34.6438 13.2236Z" fill="#004975"/>
<rect x="1.01953" y="1.47363" width="48.5" height="48.5" rx="24.25" stroke="#004975" stroke-width="1.5"/>
</svg>
