<svg width="102" height="95" viewBox="0 0 102 95" fill="none" xmlns="http://www.w3.org/2000/svg">
<path d="M6.4375 -0.632812V88.6346H95.635V-0.632812H6.4375Z" fill="#002D59"/>
<path d="M62.2647 46.7981V43.9298C62.2647 42.8804 62.8944 42.1808 64.0837 42.0409C64.5734 41.971 64.7831 42.0409 64.993 42.0409V40.082C63.314 40.082 62.5444 40.5018 62.1947 41.6911V40.3619H59.7461V46.7981H62.2647Z" fill="white"/>
<path d="M74.9961 44.6983C75.4158 46.5172 77.2348 47.0769 79.5434 47.0769C81.3623 47.0769 83.2513 46.4473 83.2513 44.6283C83.2513 41.9699 77.7944 42.9493 77.7944 41.83C77.7944 41.4102 78.634 41.2703 79.0537 41.2703C79.4035 41.2703 79.9633 41.4102 80.1731 41.4802C80.3131 41.6201 80.5228 41.7601 80.5928 42.0399H83.0414C82.6216 40.6407 81.0825 39.8711 79.1936 39.8711C76.9549 39.8711 75.206 40.5707 75.206 42.2497C75.206 44.7682 80.6628 43.7888 80.6628 44.9781C80.6628 45.4678 79.8233 45.6078 79.2636 45.6078C78.9139 45.6078 78.4242 45.5378 78.0744 45.258C77.8645 45.1181 77.6545 44.8382 77.5845 44.5584H74.9961V44.6983Z" fill="white"/>
<path d="M55.7541 44.9807C55.4043 45.5404 54.7746 45.6803 54.145 45.6803C53.0956 45.6803 52.466 45.1207 52.396 44.1413H58.5524C58.8323 42.3223 57.573 40.0137 54.145 40.0137C51.4865 40.0137 49.5977 41.2729 49.5977 43.6515C49.5977 45.8902 51.6965 47.0795 54.0751 47.0795C55.8941 47.0795 57.5731 46.3799 58.2727 44.9108H55.7541V44.9807ZM52.396 42.812C52.5359 42.0425 53.0957 41.4828 54.0751 41.4828C54.9846 41.4828 55.6141 42.1124 55.7541 42.812H52.396Z" fill="white"/>
<path d="M35.472 40.4316V43.9296C35.472 44.6991 34.9824 45.4686 34.003 45.4686C33.0935 45.4686 32.5338 44.6991 32.5338 43.8596V40.4316H29.9453V44.2094C29.9453 46.0983 31.4844 47.0777 33.0935 47.0777C34.0029 47.0777 34.8424 46.7279 35.472 46.0983V46.7979H37.9906V40.4316H35.472Z" fill="white"/>
<path d="M71.2845 40.3633V43.8612C71.2845 44.6308 70.7949 45.4003 69.8155 45.4003C68.906 45.4003 68.3463 44.6308 68.3463 43.7913V40.3633H65.7578V44.1411C65.7578 46.03 67.2969 47.0094 68.906 47.0094C69.8154 47.0094 70.6549 46.6596 71.2845 46.0299V46.7295H73.8031V40.3633H71.2845Z" fill="white"/>
<path d="M18.8164 49.5273H82.8988V50.2269H18.8164V49.5273Z" fill="white"/>
<path d="M24.3433 43.021C25.3926 43.021 25.7424 43.3709 25.7424 44.1405C25.7424 44.84 25.3226 45.1198 23.7135 45.1198H21.5449V43.021H24.3433ZM24.1333 39.5931C25.2527 39.5931 25.5325 39.9429 25.5325 40.4326C25.5325 40.9923 25.2527 41.482 24.1333 41.482H21.4749V39.5931H24.1333ZM18.8164 46.8688H25.2528C27.7713 46.8688 28.8206 45.6096 28.8206 44.2803C28.8206 43.161 27.9111 42.2516 26.5119 42.0417C27.7012 41.8318 28.4709 41.0622 28.4009 39.8729C28.3309 39.0334 27.9811 37.7042 24.4831 37.7741H18.8164V46.8688Z" fill="white"/>
<path d="M24.3433 43.021C25.3926 43.021 25.7424 43.3709 25.7424 44.1405C25.7424 44.84 25.3226 45.1198 23.7135 45.1198H21.5449V43.021H24.3433ZM24.1333 39.5931C25.2527 39.5931 25.5325 39.9429 25.5325 40.4326C25.5325 40.9923 25.2527 41.482 24.1333 41.482H21.4749V39.5931H24.1333ZM18.8164 46.8688H25.2528C27.7713 46.8688 28.8206 45.6096 28.8206 44.2803C28.8206 43.161 27.9111 42.2516 26.5119 42.0417C27.7012 41.8318 28.4709 41.0622 28.4009 39.8729C28.3309 39.0334 27.9811 37.7042 24.4831 37.7741H18.8164V46.8688Z" fill="white"/>
<path d="M45.7521 40.8523C45.1225 40.2227 44.0732 40.0828 43.2337 40.0828C40.5053 40.1527 39.2461 42.1815 39.2461 43.7206C39.2461 45.8893 41.5547 47.1486 43.2337 47.1486C44.3531 47.1486 45.3324 46.7988 45.8222 46.1692V46.9388H48.3407V37.9141H45.7521V40.8523ZM41.9744 43.5807C41.9744 42.5313 42.814 41.6919 43.9333 41.6919C44.9827 41.6919 45.8922 42.5313 45.8922 43.5807C45.8922 44.6301 45.0526 45.4696 43.9333 45.4696C42.8839 45.4696 41.9744 44.6301 41.9744 43.5807Z" fill="white"/>
<mask id="mask0_2218_68210" style="mask-type:luminance" maskUnits="userSpaceOnUse" x="0" y="-7" width="102" height="102">
<path d="M102 -7H0V95H102V-7Z" fill="white"/>
</mask>
<g mask="url(#mask0_2218_68210)">
<path d="M0 88.6338H102M0 -0.633679H102M6.43618 -7V95M95.6337 -7V95" stroke="black" stroke-width="0.7"/>
</g>
</svg>
