<?xml version="1.0" encoding="utf-8"?>
<!-- Generator: Adobe Illustrator 28.3.0, SVG Export Plug-In . SVG Version: 6.00 Build 0)  -->
<svg version="1.2" baseProfile="tiny" id="Capa_1" xmlns="http://www.w3.org/2000/svg" xmlns:xlink="http://www.w3.org/1999/xlink"
	 x="0px" y="0px" viewBox="0 0 51 51" overflow="visible" xml:space="preserve">
<circle fill="#FFFFFF" stroke="#5278A2" stroke-width="1.5" stroke-miterlimit="10" cx="25.4" cy="25.1" r="24.2"/>
<path fill="#5278A2" d="M31.2,19.5l0-6.5c0-0.7-0.8-1.6-1.9-1.6c-1,0-1.9,0.9-1.9,1.6l0,6.5h-4.2l0-6.5c0-0.7-0.8-1.6-1.9-1.6
	s-1.9,0.9-1.9,1.6l0,6.5H17v7l0.1,0.1c0,0,3.6,3.6,3.6,8.3v0.4h2.1l0.4,3.3h4.2l0.5-3.3H30v-0.4c0-4.7,3.5-8.3,3.6-8.3l0.1-0.1v-7
	H31.2z M28.3,12.9c0.1-0.2,0.2-0.4,0.4-0.5c0.2-0.1,0.4-0.2,0.6-0.2c0.2,0,0.5,0.1,0.6,0.2c0.2,0.1,0.3,0.3,0.4,0.5l0,6.5h-2.1
	L28.3,12.9z M20.4,13c0.1-0.2,0.2-0.4,0.4-0.5c0.2-0.1,0.4-0.2,0.6-0.2s0.5,0.1,0.6,0.2c0.2,0.1,0.3,0.3,0.4,0.5l0,6.5h-2.1L20.4,13
	z M26.7,37.8H24l-0.3-2.4H27L26.7,37.8z M32.9,26.1c-0.6,0.7-3.5,4-3.7,8.3h-7.6c-0.2-4.4-3-7.7-3.7-8.3v-5.8h15V26.1z"/>
</svg>
