<svg width="41" height="40" viewBox="0 0 41 40" fill="none" xmlns="http://www.w3.org/2000/svg">
<path d="M24.8084 29.9993H15.5301V29.5827C15.5301 24.8981 11.9943 21.3227 11.9584 21.2868L11.8359 21.1648V14.166H28.5026V21.1643L28.3801 21.2868C28.3443 21.3223 24.8084 24.9085 24.8084 29.5827V29.9993ZM16.3551 29.166H23.9834C24.1584 24.7989 27.0251 21.5098 27.6693 20.8239V14.9993H12.6693V20.8239C13.3134 21.5098 16.1805 24.7989 16.3551 29.166Z" fill="black"/>
<path d="M18.0864 14.9501H14.3359L14.338 7.65719C14.338 6.94135 15.173 6.07677 16.2097 6.07677C17.2464 6.07677 18.0814 6.94135 18.0814 7.65719L18.0859 14.5334L18.0864 14.9501ZM15.1693 14.1168H17.2522L17.248 7.65719C17.1751 7.4395 17.0357 7.25023 16.8493 7.11613C16.663 6.98203 16.4393 6.90988 16.2097 6.90988C15.9801 6.90988 15.7564 6.98203 15.57 7.11613C15.3837 7.25023 15.2442 7.4395 15.1714 7.65719L15.1693 14.1168ZM26.003 14.9501H22.2526L22.2547 7.63552C22.2547 6.91969 23.0897 6.05469 24.1264 6.05469C25.163 6.05469 25.998 6.91969 25.998 7.63552L26.0026 14.5334L26.003 14.9501ZM23.0859 14.1168H25.1689L25.1647 7.63552C25.0918 7.41784 24.9523 7.22857 24.766 7.09446C24.5797 6.96036 24.3559 6.88821 24.1264 6.88821C23.8968 6.88821 23.673 6.96036 23.4867 7.09446C23.3004 7.22857 23.1609 7.41784 23.088 7.63552L23.0859 14.1168ZM22.2189 33.3326H18.0405L17.5393 29.2614H22.8093L22.2189 33.3326ZM18.7776 32.4993H21.498L21.8464 30.0947H18.4818L18.7776 32.4993Z" fill="black"/>
</svg>
