<svg width="41" height="40" viewBox="0 0 41 40" fill="none" xmlns="http://www.w3.org/2000/svg">
<g clip-path="url(#clip0_601_13712)">
<path d="M35.5563 22.5009L23.7359 17.5009L22.8853 14.1676H30.8049L22.0473 10.8834L19.7779 1.99023L17.7261 10.8342L9.81046 14.1676H16.9527L16.1794 17.5009L5.37891 22.5009H15.0194L11.7327 36.6676H28.6268L25.0118 22.5009H35.5563ZM18.388 11.6676H21.3871L21.8124 13.3342H18.0014L18.388 11.6676ZM20.7418 15.5738L22.1432 14.6305L22.7245 16.9082L20.7418 15.5738ZM22.1118 17.5009H17.8786L19.9952 16.0763L22.1118 17.5009ZM19.9952 15.0713L18.6525 14.1676H21.3379L19.9952 15.0713ZM19.2486 15.5738L17.1549 16.983L17.7204 14.5453L19.2486 15.5738ZM16.8415 18.3342H23.0884L23.939 21.6676H16.0681L16.8415 18.3342ZM19.5072 27.1527L13.0473 34.6892L15.7765 22.9247L19.5072 27.1527ZM16.5137 22.5009H23.4944L20.0547 26.514L16.5137 22.5009ZM20.0635 27.7833L27.1673 35.8342H13.1627L20.0635 27.7833ZM20.611 27.1446L24.2525 22.8962L27.2595 34.6795L20.611 27.1446ZM31.458 21.6676H24.7991L23.9907 18.4995L31.458 21.6676ZM26.2094 13.3342H22.6727L22.2984 11.8677L26.2094 13.3342ZM19.8162 5.51156L21.1744 10.8342H18.5814L19.8162 5.51156ZM13.8705 13.3342L17.5077 11.7754L17.1461 13.3342H13.8705ZM9.13541 21.6676L15.9506 18.4871L15.2127 21.6676H9.13541Z" fill="black"/>
</g>
<defs>
<clipPath id="clip0_601_13712">
<rect width="40" height="40" fill="white" transform="translate(0.173828)"/>
</clipPath>
</defs>
</svg>
