<svg width="41" height="41" viewBox="0 0 41 41" fill="none" xmlns="http://www.w3.org/2000/svg">
<path d="M28.8568 35.0143L25.0026 14.181H29.8359V11.9935L23.9193 7.05599L22.9818 3.34766H18.3568L17.4401 7.05599L11.5026 11.9935V14.181H16.3359L12.4818 35.0143H9.83594V36.681H31.5026V35.0143H28.8568ZM16.1901 24.0768L16.5651 22.0977L20.6693 19.4935L24.7734 22.0977L25.2734 24.7852L21.0443 27.3268L16.1901 24.0768ZM19.4609 28.2643L14.9193 30.9935L15.8776 25.8685L19.4609 28.2643ZM16.9818 19.8685L17.4401 17.431L19.1276 18.5143L16.9818 19.8685ZM22.2318 18.4935L23.9193 17.4102L24.3776 19.8477L22.2318 18.4935ZM25.5859 26.5352L26.3984 30.8893L22.5859 28.3477L25.5859 26.5352ZM21.6901 5.01432L22.1068 6.68099H19.2318L19.6484 5.01432H21.6901ZM18.4609 8.34766H22.8568L27.8568 12.5143H13.4609L18.4609 8.34766ZM23.3151 14.181L23.5859 15.6602L20.6693 17.5143L17.7526 15.6602L18.0234 14.181H23.3151ZM14.5026 33.181L20.9818 29.2852L26.8151 33.181L27.1484 35.0143H14.1693L14.5026 33.181Z" fill="black"/>
</svg>
