<?xml version="1.0" encoding="utf-8"?>
<!-- Generator: Adobe Illustrator 28.3.0, SVG Export Plug-In . SVG Version: 6.00 Build 0)  -->
<svg version="1.2" baseProfile="tiny" id="Capa_1" xmlns="http://www.w3.org/2000/svg" xmlns:xlink="http://www.w3.org/1999/xlink"
	 x="0px" y="0px" viewBox="0 0 51 54" overflow="visible" xml:space="preserve">
<circle fill="#FFFFFF" stroke="#75ACE7" stroke-width="1.5" stroke-miterlimit="10" cx="26" cy="25.9" r="24.2"/>
<path fill="#75ACE7" d="M32.1,37.2l-2.9-15.6h3.6V20l-4.4-3.7l-0.7-2.8h-3.5l-0.7,2.8L19.1,20v1.6h3.6l-2.9,15.6h-2v1.2h16.2v-1.2
	H32.1z M22.6,29l0.3-1.5l3.1-2l3.1,2l0.4,2l-3.2,1.9L22.6,29z M25.1,32.2l-3.4,2l0.7-3.8L25.1,32.2z M23.2,25.9l0.3-1.8l1.3,0.8
	L23.2,25.9z M27.2,24.8l1.3-0.8l0.3,1.8L27.2,24.8z M29.7,30.9l0.6,3.3l-2.9-1.9L29.7,30.9z M26.8,14.7l0.3,1.2h-2.2l0.3-1.2H26.8z
	 M24.3,17.2h3.3l3.8,3.1H20.6L24.3,17.2z M28,21.6l0.2,1.1L26,24.1l-2.2-1.4l0.2-1.1H28z M21.4,35.9l4.9-2.9l4.4,2.9l0.2,1.4h-9.7
	L21.4,35.9z"/>
</svg>
