<?xml version="1.0" encoding="utf-8"?>
<!-- Generator: Adobe Illustrator 28.3.0, SVG Export Plug-In . SVG Version: 6.00 Build 0)  -->
<svg version="1.2" baseProfile="tiny" id="Capa_1" xmlns="http://www.w3.org/2000/svg" xmlns:xlink="http://www.w3.org/1999/xlink"
	 x="0px" y="0px" viewBox="0 0 56 58" overflow="visible" xml:space="preserve">
<path fill="#FFFFFF" d="M26,6.5L26,6.5c13.4,0,24.2,10.9,24.2,24.2v0C50.2,44.1,39.4,55,26,55l0,0C12.6,55,1.8,44.1,1.8,30.7v0
	C1.8,17.3,12.6,6.5,26,6.5z"/>
<path fill="none" stroke="#75ACE7" stroke-width="1.5" d="M26,6.5L26,6.5c13.4,0,24.2,10.9,24.2,24.2v0C50.2,44.1,39.4,55,26,55l0,0
	C12.6,55,1.8,44.1,1.8,30.7v0C1.8,17.3,12.6,6.5,26,6.5z"/>
<g>
	<g>
		<path fill="#75ACE7" d="M38.9,32.3l-9.7-4.1l-0.7-2.7H35l-7.2-2.7l-1.9-7.3l-1.7,7.3l-6.5,2.7h5.9L23,28.2l-8.9,4.1H22L19.3,44
			h13.9l-3-11.6H38.9z M24.8,23.4h2.5l0.3,1.4h-3.1L24.8,23.4z M26.7,26.6l1.2-0.8l0.5,1.9L26.7,26.6z M27.9,28.2h-3.5l1.7-1.2
			L27.9,28.2z M26.1,26.2L25,25.5h2.2L26.1,26.2z M25.5,26.6l-1.7,1.2l0.5-2L25.5,26.6z M23.5,28.9h5.1l0.7,2.7h-6.5L23.5,28.9z
			 M25.7,36.2l-5.3,6.2l2.2-9.7L25.7,36.2z M23.2,32.3H29l-2.8,3.3L23.2,32.3z M26.2,36.7l5.8,6.6H20.5L26.2,36.7z M26.6,36.1l3-3.5
			l2.5,9.7L26.6,36.1z M35.5,31.6h-5.5L29.4,29L35.5,31.6z M31.2,24.8h-2.9L28,23.6L31.2,24.8z M26,18.4l1.1,4.4h-2.1L26,18.4z
			 M21.1,24.8l3-1.3l-0.3,1.3H21.1z M17.2,31.6l5.6-2.6l-0.6,2.6H17.2z"/>
	</g>
</g>
</svg>
