<svg width="41" height="40" viewBox="0 0 41 40" fill="none" xmlns="http://www.w3.org/2000/svg">
    <path
        d="M3.16992 14.9V37H17.7265V3H3.16992V14.9ZM16.8703 36.15H4.02619V18.3H16.8703V36.15ZM16.8703 17.45H4.02619V15.75H16.8703V17.45ZM16.8703 3.85V14.9H4.02619V3.85H16.8703ZM21.4543 8.40048C24.5438 5.33325 26.4455 6.39363 28.6487 7.6206C29.7953 8.25938 31.0223 8.94235 32.4403 8.94235C33.7298 8.94235 35.1782 8.3771 36.8672 6.70048L37.1699 6.4L36.5645 5.79905L36.2618 6.09953C33.172 9.16633 31.2706 8.10553 29.0674 6.8794C26.878 5.65965 24.3965 4.2784 20.8489 7.79952L20.5463 8.1L21.1516 8.70095L21.4543 8.40048ZM36.2618 10.3495C33.172 13.4163 31.2706 12.3555 29.0674 11.1294C26.878 9.90965 24.3965 8.5284 20.8489 12.0495L20.5463 12.35L21.1516 12.9509L21.4543 12.6505C24.5438 9.58283 26.4455 10.6445 28.6487 11.8706C29.7953 12.5094 31.0223 13.1924 32.4403 13.1924C33.7298 13.1924 35.1782 12.6271 36.8672 10.9505L37.1699 10.65L36.5645 10.0491L36.2618 10.3495ZM36.2618 15.0245C33.172 18.0918 31.2706 17.0305 29.0674 15.8044C26.878 14.5847 24.3965 13.2034 20.8489 16.7245L20.5463 17.025L21.1516 17.626L21.4543 17.3255C24.5438 14.2583 26.4455 15.3195 28.6487 16.5456C29.7953 17.1844 31.0223 17.8673 32.4403 17.8673C33.7298 17.8673 35.1782 17.3021 36.8672 15.6255L37.1699 15.325L36.5645 14.724L36.2618 15.0245Z"
        fill="black" />
</svg>