<?xml version="1.0" encoding="utf-8"?>
<!-- Generator: Adobe Illustrator 28.3.0, SVG Export Plug-In . SVG Version: 6.00 Build 0)  -->
<svg version="1.2" baseProfile="tiny" id="Capa_1" xmlns="http://www.w3.org/2000/svg" xmlns:xlink="http://www.w3.org/1999/xlink"
	 x="0px" y="0px" viewBox="0 0 51 51" overflow="visible" xml:space="preserve">
<path fill="#FFFFFF" d="M25.3,1.5L25.3,1.5c13.4,0,24.3,10.9,24.3,24.2l0,0C49.5,39.1,38.7,50,25.3,50h0C11.9,50,1,39.1,1,25.7l0,0
	C1,12.3,11.9,1.5,25.3,1.5z"/>
<path fill="none" stroke="#CC36BD" stroke-width="1.5" d="M25.3,1.5L25.3,1.5c13.4,0,24.3,10.9,24.3,24.2l0,0
	C49.5,39.1,38.7,50,25.3,50h0C11.9,50,1,39.1,1,25.7l0,0C1,12.3,11.9,1.5,25.3,1.5z"/>
<path fill="#CC36BD" d="M11.4,20.9v19.5h12.8V10.4H11.4V20.9z M23.5,39.6H12.2V23.9h11.3V39.6z M23.5,23.1H12.2v-1.5h11.3V23.1z
	 M23.5,11.1v9.7H12.2v-9.7H23.5z M27.5,15.2c2.7-2.7,4.4-1.8,6.3-0.7c1,0.6,2.1,1.2,3.3,1.2c1.1,0,2.4-0.5,3.9-2l0.3-0.3l-0.5-0.5
	l-0.3,0.3c-2.7,2.7-4.4,1.8-6.3,0.7c-1.9-1.1-4.1-2.3-7.2,0.8l-0.3,0.3l0.5,0.5L27.5,15.2z M40.6,16.9c-2.7,2.7-4.4,1.8-6.3,0.7
	c-1.9-1.1-4.1-2.3-7.2,0.8l-0.3,0.3l0.5,0.5l0.3-0.3c2.7-2.7,4.4-1.8,6.3-0.7c1,0.6,2.1,1.2,3.3,1.2c1.1,0,2.4-0.5,3.9-2l0.3-0.3
	l-0.5-0.5L40.6,16.9z M40.6,21c-2.7,2.7-4.4,1.8-6.3,0.7c-1.9-1.1-4.1-2.3-7.2,0.8l-0.3,0.3l0.5,0.5l0.3-0.3
	c2.7-2.7,4.4-1.8,6.3-0.7c1,0.6,2.1,1.2,3.3,1.2c1.1,0,2.4-0.5,3.9-2l0.3-0.3l-0.5-0.5L40.6,21z"/>
</svg>
