<?xml version="1.0" encoding="utf-8"?>
<!-- Generator: Adobe Illustrator 28.3.0, SVG Export Plug-In . SVG Version: 6.00 Build 0)  -->
<svg version="1.2" baseProfile="tiny" id="Capa_1" xmlns="http://www.w3.org/2000/svg" xmlns:xlink="http://www.w3.org/1999/xlink"
	 x="0px" y="0px" viewBox="0 0 51 50" overflow="visible" xml:space="preserve">
<path fill="#FFFFFF" d="M25.2,0.8L25.2,0.8c13.4,0,24.2,10.9,24.2,24.2l0,0c0,13.4-10.9,24.2-24.2,24.2l0,0
	C11.8,49.2,0.9,38.4,0.9,25l0,0C0.9,11.6,11.8,0.8,25.2,0.8z"/>
<path fill="none" stroke="#996193" stroke-width="1.5" d="M25.2,0.8L25.2,0.8c13.4,0,24.2,10.9,24.2,24.2l0,0
	c0,13.4-10.9,24.2-24.2,24.2l0,0C11.8,49.2,0.9,38.4,0.9,25l0,0C0.9,11.6,11.8,0.8,25.2,0.8z"/>
<g>
	<g>
		<path fill="#996193" d="M23.5,35.6H12V13.1h11.5V35.6z M13,34.6h9.6V14.1H13V34.6z"/>
		<path fill="#996193" d="M20.2,24.6h-1v-1.9h2.9v1h-1.9V24.6z M39.7,35.6H26.8V21.2h12.9V35.6z M27.8,34.6h11V22.2h-11V34.6z"/>
		<path fill="#996193" d="M33.3,34.1c-2.5,0-4.5-2.1-4.5-4.5c0-2.5,2.1-4.5,4.5-4.5c2.5,0,4.5,2.1,4.5,4.5
			C37.8,32.1,35.8,34.1,33.3,34.1z M33.3,26c-2,0-3.6,1.6-3.6,3.6c0,2,1.6,3.6,3.6,3.6c2,0,3.6-1.6,3.6-3.6
			C36.9,27.6,35.2,26,33.3,26z"/>
		<path fill="#996193" d="M33.3,32.2c-1.4,0-2.6-1.2-2.6-2.6s1.2-2.6,2.6-2.6c1.4,0,2.6,1.2,2.6,2.6S34.7,32.2,33.3,32.2z
			 M33.3,27.9c-0.9,0-1.7,0.8-1.7,1.7c0,0.9,0.8,1.7,1.7,1.7c0.9,0,1.7-0.8,1.7-1.7C35,28.7,34.2,27.9,33.3,27.9z M28.7,23.6h1v1h-1
			V23.6z M30.2,23.6h1v1h-1V23.6z M31.6,23.6h1v1h-1V23.6z M27.3,22.7h11.9v1H27.3V22.7z M12.5,34.6h27.1v1H12.5V34.6z"/>
	</g>
</g>
</svg>
