<?xml version="1.0" encoding="utf-8"?>
<!-- Generator: Adobe Illustrator 28.3.0, SVG Export Plug-In . SVG Version: 6.00 Build 0)  -->
<svg version="1.2" baseProfile="tiny" id="Capa_1" xmlns="http://www.w3.org/2000/svg" xmlns:xlink="http://www.w3.org/1999/xlink"
	 x="0px" y="0px" viewBox="0 0 50 51" overflow="visible" xml:space="preserve">
<circle fill="#FFFFFF" stroke="#F8D927" stroke-width="1.5" stroke-miterlimit="10" cx="25.1" cy="25.9" r="24.2"/>
<g>
	<path fill="#F8D927" d="M11.3,39.9h14.4V17.8H11.3V39.9z M12.1,18.6h12.8V39H12.1V18.6z"/>
	<path fill="#F8D927" d="M32.1,19.9c2.2,0,4-1.9,4-4.2c0-2.3-1.8-4.2-4-4.2c-2.2,0-4,1.9-4,4.2C28.1,18,29.9,19.9,32.1,19.9z
		 M32.1,12.3c1.8,0,3.2,1.5,3.2,3.4c0,1.9-1.4,3.4-3.2,3.4c-1.8,0-3.2-1.5-3.2-3.4C28.9,13.8,30.3,12.3,32.1,12.3z"/>
	<rect x="31.7" y="20.3" fill="#F8D927" width="0.8" height="3.4"/>
	<polygon fill="#F8D927" points="29.2,12 27,9.7 26.4,10.3 28.6,12.6 	"/>
	<path fill="#F8D927" d="M12.5,19.1v19.5h12V19.1h-3.7H12.5z M15.2,37.7h-2v-3.8h2V37.7z M15.2,33h-2v-3.8h2V33z M15.2,28.4h-2v-3.8
		h2V28.4z M15.2,23.7h-2v-3.8h2V23.7z M18,37.7h-1.8v-3.8H18V37.7z M18,33h-1.8v-3.8H18V33z M18,28.4h-1.8v-3.8H18V28.4z M18,23.7
		h-1.8v-3.8H18V23.7z M20.8,37.7H19v-3.8h1.8V37.7z M20.8,33H19v-3.8h1.8V33z M20.8,28.4H19v-3.8h1.8V28.4z M20.8,23.7H19v-3.8h1.8
		V23.7z M21.7,19.9h2v3.8h-2V19.9z M21.7,24.6h2v3.8h-2V24.6z M21.7,29.3h2V33h-2V29.3z M21.7,33.9h2v3.8h-2V33.9z"/>
	<rect x="31.7" y="7.6" fill="#F8D927" width="0.8" height="3.4"/>
	<polygon fill="#F8D927" points="37.8,10.3 37.2,9.7 35,12 35.6,12.6 	"/>
	<rect x="24.5" y="15.3" fill="#F8D927" width="3.2" height="0.8"/>
	<path fill="#F8D927" d="M35.6,26.7h-4l-2.7,7.8h3.5l-2,5.3h2.8l3.5-8.2h-3.1L35.6,26.7z M35.4,32.5L32.7,39h-1.1l1.6-4.2l0.4-1.1
		H30l2.2-6.2h2.2l-1.5,3.7l-0.5,1.2H35.4z"/>
	<polygon fill="#F8D927" points="28.6,18.8 26.4,21.1 27,21.7 29.2,19.4 	"/>
	<rect x="36.5" y="15.3" fill="#F8D927" width="3.2" height="0.8"/>
	<polygon fill="#F8D927" points="35,19.4 37.2,21.7 37.8,21.1 35.6,18.8 	"/>
</g>
</svg>
