<svg width="40" height="42" viewBox="0 0 40 42" fill="none" xmlns="http://www.w3.org/2000/svg">
<path d="M7.32617 36.4494H21.7492V14.3828H7.32617V36.4494ZM8.12745 15.2315H20.948V35.6007H8.12745V15.2315Z" fill="black"/>
<path d="M16.8607 15.6549H8.52734V35.1754H20.5466V15.6549H16.8607ZM16.8607 24.9484H15.0177V21.1716H16.8607V24.9484ZM16.8607 29.6163H15.0177V25.8395H16.8607V29.6163ZM12.2132 25.8395H14.0562V29.6163H12.2132V25.8395ZM12.2132 21.1716H14.0562V24.9484H12.2132V21.1716ZM11.2918 24.9484H9.32863V21.1716H11.2918V24.9484ZM11.2918 29.6163H9.32863V25.8395H11.2918V29.6163ZM17.7822 25.8395H19.7453V29.6163H17.7822V25.8395ZM17.7822 21.1716H19.7453V24.9484H17.7822V21.1716ZM16.8607 16.5037V20.2804H15.0177V16.5037H16.8607ZM14.0562 16.5037V20.2804H12.2132V16.5037H14.0562ZM9.32863 16.5037H11.2918V20.2804H9.32863V16.5037ZM9.32863 34.3267V30.5075H11.2918V34.3267H9.32863ZM12.2132 34.3267V30.5075H14.0562V34.3267H12.2132ZM15.0177 34.3267V30.5075H16.8607V34.3267H15.0177ZM19.7453 34.3267H17.7822V30.5075H19.7453V34.3267ZM19.7453 16.5037V20.2804H17.7822V16.5037H19.7453ZM28.1588 16.5037C30.3623 16.5037 32.1652 14.594 32.1652 12.2601C32.1652 9.9261 30.3623 8.01649 28.1588 8.01649C25.9552 8.01649 24.1523 9.9261 24.1523 12.2601C24.1523 14.594 25.9552 16.5037 28.1588 16.5037ZM28.1588 8.86521C29.9216 8.86521 31.3639 10.3929 31.3639 12.2601C31.3639 14.1272 29.9216 15.6549 28.1588 15.6549C26.3959 15.6549 24.9536 14.1272 24.9536 12.2601C24.9536 10.3929 26.3959 8.86521 28.1588 8.86521ZM27.7581 4.19727H28.5594V7.59213H27.7581V4.19727ZM27.7581 16.928H28.5594V20.3229H27.7581V16.928ZM32.5658 11.8357H35.7709V12.6844H32.5658V11.8357ZM20.5466 11.8357H23.7517V12.6844H20.5466V11.8357ZM31.0818 15.9664L31.6487 15.3664L33.8298 17.677L33.2633 18.277L31.0818 15.9664ZM22.4857 6.84102L23.0526 6.24098L25.2341 8.55118L24.6672 9.15165L22.4857 6.84102ZM22.4765 17.6681L24.658 15.3575L25.2245 15.9575L23.043 18.2681L22.4765 17.6681ZM31.0926 8.56264L33.2737 6.25243L33.8406 6.85248L31.6592 9.16311L31.0926 8.56264ZM31.6443 23.2934H27.678L24.9536 31.1016H28.4392L26.436 36.4485H29.2405L32.7261 28.2159H29.6011L31.6443 23.2934ZM31.4841 29.0647L28.7197 35.5998H27.5979L29.1604 31.4411L29.6011 30.2953H26.0754L28.2389 24.1421H30.4424L28.92 27.8765L28.4392 29.0647H31.4841Z" fill="black"/>
</svg>
